<?xml version="1.0" encoding="UTF-8" standalone="no"?>
<!-- Created with Inkscape (http://www.inkscape.org/) -->

<svg
   xmlns:dc="http://purl.org/dc/elements/1.1/"
   xmlns:cc="http://creativecommons.org/ns#"
   xmlns:rdf="http://www.w3.org/1999/02/22-rdf-syntax-ns#"
   xmlns:svg="http://www.w3.org/2000/svg"
   xmlns="http://www.w3.org/2000/svg"
   xmlns:sodipodi="http://sodipodi.sourceforge.net/DTD/sodipodi-0.dtd"
   xmlns:inkscape="http://www.inkscape.org/namespaces/inkscape"
   version="1.1"
   id="svg3786"
   width="1142.2832"
   height="1002.7422"
   viewBox="0 0 1142.2832 1002.7422"
   sodipodi:docname="parrot.svg"
   inkscape:version="0.92.3 (2405546, 2018-03-11)">
  <metadata
     id="metadata3792">
    <rdf:RDF>
      <cc:Work
         rdf:about="">
        <dc:format>image/svg+xml</dc:format>
        <dc:type
           rdf:resource="http://purl.org/dc/dcmitype/StillImage" />
        <dc:title></dc:title>
      </cc:Work>
    </rdf:RDF>
  </metadata>
  <defs
     id="defs3790" />
  <sodipodi:namedview
     pagecolor="#ffffff"
     bordercolor="#666666"
     borderopacity="1"
     objecttolerance="10"
     gridtolerance="10"
     guidetolerance="10"
     inkscape:pageopacity="0"
     inkscape:pageshadow="2"
     inkscape:window-width="1920"
     inkscape:window-height="978"
     id="namedview3788"
     showgrid="false"
     inkscape:zoom="0.54345622"
     inkscape:cx="636.19217"
     inkscape:cy="594.93963"
     inkscape:window-x="0"
     inkscape:window-y="27"
     inkscape:window-maximized="1"
     inkscape:current-layer="svg3786" />
  <g
     transform="translate(-2.7170483,-0.68773754)"
     id="g3821">
    <path
       style="fill:#fe5b63"
       d="m 135,822.68822 0.0145,-176.09411 c 0.009,-105.27602 0.41796,-183.13192 1.0177,-193.59411 2.58347,-45.06731 13.32985,-93.8548 30.94784,-140.5 4.59788,-12.17329 14.89927,-35.52824 19.77643,-44.83638 L 2.7170483,178.38416 203.73853,131.5133 7,1 553.5,1.7157046 C 551.3,1.9244286 542.58975,3.4179428 534.14389,5.0346249 491.30088,13.235507 451.22391,33.361678 419.34062,62.687443 381.78149,97.233748 356.61455,141.94376 346.55152,192 c -3.97696,19.78249 -5.17885,52.73486 -2.64362,72.4806 2.49822,19.45752 12.06101,57.62809 21.65569,86.44025 11.29645,33.92251 20.33252,49.74176 48.30621,84.56862 10.74913,13.38252 40.82983,44.00943 54.6302,55.62217 52.06694,43.81334 111.26919,74.94366 173.7982,91.38833 39.30468,10.33684 69.3997,14.17942 118.5505,15.13669 18.9123,0.36835 33.17727,1.05088 33.9013,1.62208 1.83573,1.44824 1.83573,392.62831 0,394.91835 C 579.88597,1024.2683 265.04092,984.48642 135,822.68822 Z"
       id="path3827"
       inkscape:connector-curvature="0"
       sodipodi:nodetypes="ccsscccccsssssssssscc" />
    <path
       style="fill:#494949"
       d="M 797.25,483.33772 C 796.25485,482.93617 796,433.6831 796,241.76054 V 0.68773754 l 14.75,0.65528986 c 38.23546,1.6986647 78.86963,10.5973316 117.24588,25.6762216 19.67811,7.731969 48.8533,23.742915 69.0008,37.866703 31.30222,21.943429 63.80772,54.459188 85.39542,85.422408 30.535,43.79629 52.4749,98.84323 59.1643,148.44322 3.0981,22.97107 3.3727,31.61796 3.4079,107.33611 l 0.036,76.58768 -37.6637,0.66232 c -43.2285,0.76017 -308.2024,0.7602 -310.0863,3e-5 z M 665.33879,291.00999 C 658.66372,289.60577 647.94201,284.99395 642,280.97106 624.03999,268.8117 609.53761,242.88112 604.46157,213.85152 c -2.06709,-11.82157 -2.09494,-35.30256 -0.0552,-46.56557 8.30979,-45.88554 36.18275,-77.324665 68.50881,-77.274081 14.84851,0.02323 27.22852,5.338233 39.36612,16.900701 C 732.64073,126.3073 744,156.24205 744,190.5 c 0,54.22871 -29.39708,98.01844 -67.72275,100.87945 -3.72749,0.27825 -8.6498,0.112 -10.93846,-0.36946 z"
       id="path3825"
       inkscape:connector-curvature="0" />
    <path
       style="fill:#373737"
       d="m 798.03608,406.25 c 0.0354,-74.27167 0.0714,-75.65242 1.84436,-70.75 9.30621,25.73206 37.51832,55.12749 76.29047,79.4904 12.97542,8.15324 44.84323,24.23627 59.32909,29.94217 40.63999,16.00785 89.2655,28.3751 130.9951,33.31682 16.3494,1.93614 18.3063,2.34316 14.0049,2.913 -2.75,0.36432 -67.4375,0.70182 -143.75,0.75 L 798,482 798.0361,406.25 Z M 692.14677,240.90945 C 682.36199,239.02047 673.0359,230.54827 667.47874,218.5 c -4.51502,-9.78886 -5.90451,-16.43803 -5.8512,-28 0.0782,-16.97001 5.37973,-31.66156 14.80783,-41.03558 6.51438,-6.47702 11.40621,-8.76698 19.82288,-9.27951 5.79044,-0.3526 7.53612,-0.031 12.19009,2.24601 15.78601,7.72338 25.69316,29.21104 24.22818,52.54861 -0.99094,15.7861 -5.96247,28.21119 -14.8399,37.08861 -7.64319,7.6432 -16.35876,10.64271 -25.68985,8.84131 z"
       id="path3823"
       inkscape:connector-curvature="0" />
  </g>
  <path
     style="fill:#373737"
     d="m 795.31902,405.56226 c 0.035,-74.27167 0.071,-75.65242 1.8443,-70.75 9.3062,25.73206 37.5184,55.12749 76.2905,79.4904 12.9754,8.15324 44.8432,24.23627 59.3291,29.94217 40.64,16.00785 89.26548,28.3751 130.99508,33.31682 16.3494,1.93614 18.3063,2.34316 14.0049,2.913 -2.75,0.36432 -67.4375,0.70182 -143.74998,0.75 l -138.75,0.0876 0.036,-75.75 z M 689.42972,240.22171 c -9.7848,-1.88898 -19.1109,-10.36118 -24.6681,-22.40945 -4.515,-9.78886 -5.9045,-16.43803 -5.8512,-28 0.078,-16.97001 5.3798,-31.66156 14.8079,-41.03558 6.5143,-6.47702 11.4062,-8.76698 19.8228,-9.27951 5.7905,-0.3526 7.5362,-0.031 12.1901,2.24601 15.786,7.72338 25.6932,29.21104 24.2282,52.54861 -0.9909,15.7861 -5.9625,28.21119 -14.8399,37.08861 -7.6432,7.6432 -16.3587,10.64271 -25.6898,8.84131 z"
     id="path3823-3"
     inkscape:connector-curvature="0" />
</svg>
