<?xml version="1.0" encoding="UTF-8" standalone="no"?>
<!-- Generator: Adobe Illustrator 19.0.0, SVG Export Plug-In . SVG Version: 6.00 Build 0)  -->

<svg
   xmlns:dc="http://purl.org/dc/elements/1.1/"
   xmlns:cc="http://creativecommons.org/ns#"
   xmlns:rdf="http://www.w3.org/1999/02/22-rdf-syntax-ns#"
   xmlns:svg="http://www.w3.org/2000/svg"
   xmlns="http://www.w3.org/2000/svg"
   xmlns:sodipodi="http://sodipodi.sourceforge.net/DTD/sodipodi-0.dtd"
   xmlns:inkscape="http://www.inkscape.org/namespaces/inkscape"
   version="1.1"
   id="Capa_1"
   x="0px"
   y="0px"
   viewBox="0 0 54 54"
   style="enable-background:new 0 0 54 54;"
   xml:space="preserve"
   width="512px"
   height="512px"
   sodipodi:docname="analyse.svg"
   inkscape:version="0.92.3 (2405546, 2018-03-11)"><metadata
   id="metadata109"><rdf:RDF><cc:Work
       rdf:about=""><dc:format>image/svg+xml</dc:format><dc:type
         rdf:resource="http://purl.org/dc/dcmitype/StillImage" /></cc:Work></rdf:RDF></metadata><defs
   id="defs107" /><sodipodi:namedview
   pagecolor="#ffffff"
   bordercolor="#666666"
   borderopacity="1"
   objecttolerance="10"
   gridtolerance="10"
   guidetolerance="10"
   inkscape:pageopacity="0"
   inkscape:pageshadow="2"
   inkscape:window-width="640"
   inkscape:window-height="480"
   id="namedview105"
   showgrid="false"
   inkscape:zoom="0.4609375"
   inkscape:cx="256"
   inkscape:cy="256"
   inkscape:window-x="0"
   inkscape:window-y="27"
   inkscape:window-maximized="0"
   inkscape:current-layer="Capa_1" />
<g
   id="g72"
   style="fill:#6c63ff;fill-opacity:1">
	<g
   id="g70"
   style="fill:#6c63ff;fill-opacity:1">
		<path
   d="M9,35c-2.206,0-4,1.794-4,4s1.794,4,4,4s4-1.794,4-4S11.206,35,9,35z M9,41c-1.103,0-2-0.897-2-2s0.897-2,2-2s2,0.897,2,2    S10.103,41,9,41z"
   fill="#ff6484"
   id="path2"
   style="fill:#6c63ff;fill-opacity:1" />
		<circle
   cx="49"
   cy="37"
   r="1"
   fill="#ff6484"
   id="circle4"
   style="fill:#6c63ff;fill-opacity:1" />
		<circle
   cx="45"
   cy="37"
   r="1"
   fill="#ff6484"
   id="circle6"
   style="fill:#6c63ff;fill-opacity:1" />
		<circle
   cx="47"
   cy="41"
   r="1"
   fill="#ff6484"
   id="circle8"
   style="fill:#6c63ff;fill-opacity:1" />
		<circle
   cx="43"
   cy="41"
   r="1"
   fill="#ff6484"
   id="circle10"
   style="fill:#6c63ff;fill-opacity:1" />
		<circle
   cx="41"
   cy="37"
   r="1"
   fill="#ff6484"
   id="circle12"
   style="fill:#6c63ff;fill-opacity:1" />
		<circle
   cx="39"
   cy="41"
   r="1"
   fill="#ff6484"
   id="circle14"
   style="fill:#6c63ff;fill-opacity:1" />
		<circle
   cx="37"
   cy="37"
   r="1"
   fill="#ff6484"
   id="circle16"
   style="fill:#6c63ff;fill-opacity:1" />
		<circle
   cx="35"
   cy="41"
   r="1"
   fill="#ff6484"
   id="circle18"
   style="fill:#6c63ff;fill-opacity:1" />
		<circle
   cx="33"
   cy="37"
   r="1"
   fill="#ff6484"
   id="circle20"
   style="fill:#6c63ff;fill-opacity:1" />
		<circle
   cx="31"
   cy="41"
   r="1"
   fill="#ff6484"
   id="circle22"
   style="fill:#6c63ff;fill-opacity:1" />
		<circle
   cx="49"
   cy="23"
   r="1"
   fill="#ff6484"
   id="circle24"
   style="fill:#6c63ff;fill-opacity:1" />
		<circle
   cx="45"
   cy="23"
   r="1"
   fill="#ff6484"
   id="circle26"
   style="fill:#6c63ff;fill-opacity:1" />
		<circle
   cx="47"
   cy="27"
   r="1"
   fill="#ff6484"
   id="circle28"
   style="fill:#6c63ff;fill-opacity:1" />
		<circle
   cx="43"
   cy="27"
   r="1"
   fill="#ff6484"
   id="circle30"
   style="fill:#6c63ff;fill-opacity:1" />
		<circle
   cx="41"
   cy="23"
   r="1"
   fill="#ff6484"
   id="circle32"
   style="fill:#6c63ff;fill-opacity:1" />
		<circle
   cx="39"
   cy="27"
   r="1"
   fill="#ff6484"
   id="circle34"
   style="fill:#6c63ff;fill-opacity:1" />
		<circle
   cx="37"
   cy="23"
   r="1"
   fill="#ff6484"
   id="circle36"
   style="fill:#6c63ff;fill-opacity:1" />
		<circle
   cx="35"
   cy="27"
   r="1"
   fill="#ff6484"
   id="circle38"
   style="fill:#6c63ff;fill-opacity:1" />
		<circle
   cx="33"
   cy="23"
   r="1"
   fill="#ff6484"
   id="circle40"
   style="fill:#6c63ff;fill-opacity:1" />
		<circle
   cx="31"
   cy="27"
   r="1"
   fill="#ff6484"
   id="circle42"
   style="fill:#6c63ff;fill-opacity:1" />
		<circle
   cx="49"
   cy="9"
   r="1"
   fill="#ff6484"
   id="circle44"
   style="fill:#6c63ff;fill-opacity:1" />
		<circle
   cx="45"
   cy="9"
   r="1"
   fill="#ff6484"
   id="circle46"
   style="fill:#6c63ff;fill-opacity:1" />
		<circle
   cx="47"
   cy="13"
   r="1"
   fill="#ff6484"
   id="circle48"
   style="fill:#6c63ff;fill-opacity:1" />
		<circle
   cx="43"
   cy="13"
   r="1"
   fill="#ff6484"
   id="circle50"
   style="fill:#6c63ff;fill-opacity:1" />
		<circle
   cx="41"
   cy="9"
   r="1"
   fill="#ff6484"
   id="circle52"
   style="fill:#6c63ff;fill-opacity:1" />
		<circle
   cx="39"
   cy="13"
   r="1"
   fill="#ff6484"
   id="circle54"
   style="fill:#6c63ff;fill-opacity:1" />
		<circle
   cx="37"
   cy="9"
   r="1"
   fill="#ff6484"
   id="circle56"
   style="fill:#6c63ff;fill-opacity:1" />
		<circle
   cx="35"
   cy="13"
   r="1"
   fill="#ff6484"
   id="circle58"
   style="fill:#6c63ff;fill-opacity:1" />
		<circle
   cx="33"
   cy="9"
   r="1"
   fill="#ff6484"
   id="circle60"
   style="fill:#6c63ff;fill-opacity:1" />
		<circle
   cx="31"
   cy="13"
   r="1"
   fill="#ff6484"
   id="circle62"
   style="fill:#6c63ff;fill-opacity:1" />
		<path
   d="M9,29c2.206,0,4-1.794,4-4s-1.794-4-4-4s-4,1.794-4,4S6.794,29,9,29z M9,23c1.103,0,2,0.897,2,2s-0.897,2-2,2    s-2-0.897-2-2S7.897,23,9,23z"
   fill="#ff6484"
   id="path64"
   style="fill:#6c63ff;fill-opacity:1" />
		<path
   d="M54,5.406C54,4.079,52.921,3,51.594,3H2.406C1.079,3,0,4.079,0,5.406v11.188C0,17.12,0.175,17.604,0.462,18    C0.175,18.396,0,18.88,0,19.406v11.188C0,31.12,0.175,31.604,0.462,32C0.175,32.396,0,32.88,0,33.406v11.188    C0,45.921,1.079,47,2.406,47H3c0,2.206,1.794,4,4,4s4-1.794,4-4h32c0,2.206,1.794,4,4,4s4-1.794,4-4h0.594    C52.921,47,54,45.921,54,44.594V33.406c0-0.526-0.175-1.01-0.462-1.406C53.825,31.604,54,31.12,54,30.594V19.406    c0-0.526-0.175-1.01-0.462-1.406C53.825,17.604,54,17.12,54,16.594V5.406z M2,5.406C2,5.183,2.183,5,2.406,5h49.188    C51.817,5,52,5.183,52,5.406v11.188C52,16.817,51.817,17,51.594,17H2.406C2.183,17,2,16.817,2,16.594V5.406z M52,19.406v11.188    C52,30.817,51.817,31,51.594,31H2.406C2.183,31,2,30.817,2,30.594V19.406C2,19.183,2.183,19,2.406,19h49.188    C51.817,19,52,19.183,52,19.406z M7,49c-1.103,0-2-0.897-2-2h4C9,48.103,8.103,49,7,49z M47,49c-1.103,0-2-0.897-2-2h4    C49,48.103,48.103,49,47,49z M52,44.594C52,44.817,51.817,45,51.594,45H51h-8H11H3H2.406C2.183,45,2,44.817,2,44.594V33.406    C2,33.183,2.183,33,2.406,33h49.188C51.817,33,52,33.183,52,33.406V44.594z"
   fill="#ff6484"
   id="path66"
   style="fill:#6c63ff;fill-opacity:1" />
		<path
   d="M9,15c2.206,0,4-1.794,4-4s-1.794-4-4-4s-4,1.794-4,4S6.794,15,9,15z M9,9c1.103,0,2,0.897,2,2s-0.897,2-2,2s-2-0.897-2-2    S7.897,9,9,9z"
   fill="#ff6484"
   id="path68"
   style="fill:#6c63ff;fill-opacity:1" />
	</g>
</g>
<g
   id="g74"
   style="fill:#6c63ff;fill-opacity:1">
</g>
<g
   id="g76"
   style="fill:#6c63ff;fill-opacity:1">
</g>
<g
   id="g78"
   style="fill:#6c63ff;fill-opacity:1">
</g>
<g
   id="g80"
   style="fill:#6c63ff;fill-opacity:1">
</g>
<g
   id="g82"
   style="fill:#6c63ff;fill-opacity:1">
</g>
<g
   id="g84"
   style="fill:#6c63ff;fill-opacity:1">
</g>
<g
   id="g86"
   style="fill:#6c63ff;fill-opacity:1">
</g>
<g
   id="g88"
   style="fill:#6c63ff;fill-opacity:1">
</g>
<g
   id="g90"
   style="fill:#6c63ff;fill-opacity:1">
</g>
<g
   id="g92"
   style="fill:#6c63ff;fill-opacity:1">
</g>
<g
   id="g94"
   style="fill:#6c63ff;fill-opacity:1">
</g>
<g
   id="g96"
   style="fill:#6c63ff;fill-opacity:1">
</g>
<g
   id="g98"
   style="fill:#6c63ff;fill-opacity:1">
</g>
<g
   id="g100"
   style="fill:#6c63ff;fill-opacity:1">
</g>
<g
   id="g102"
   style="fill:#6c63ff;fill-opacity:1">
</g>
</svg>