<?xml version="1.0" encoding="iso-8859-1"?>
<!-- Generator: Adobe Illustrator 19.0.0, SVG Export Plug-In . SVG Version: 6.00 Build 0)  -->
<svg xmlns="http://www.w3.org/2000/svg" xmlns:xlink="http://www.w3.org/1999/xlink" version="1.1" id="Capa_1" x="0px" y="0px" viewBox="0 0 54 54" style="enable-background:new 0 0 54 54;" xml:space="preserve" width="512px" height="512px">
<g>
	<g>
		<path d="M9,35c-2.206,0-4,1.794-4,4s1.794,4,4,4s4-1.794,4-4S11.206,35,9,35z M9,41c-1.103,0-2-0.897-2-2s0.897-2,2-2s2,0.897,2,2    S10.103,41,9,41z" fill="#ff6484"/>
		<circle cx="49" cy="37" r="1" fill="#ff6484"/>
		<circle cx="45" cy="37" r="1" fill="#ff6484"/>
		<circle cx="47" cy="41" r="1" fill="#ff6484"/>
		<circle cx="43" cy="41" r="1" fill="#ff6484"/>
		<circle cx="41" cy="37" r="1" fill="#ff6484"/>
		<circle cx="39" cy="41" r="1" fill="#ff6484"/>
		<circle cx="37" cy="37" r="1" fill="#ff6484"/>
		<circle cx="35" cy="41" r="1" fill="#ff6484"/>
		<circle cx="33" cy="37" r="1" fill="#ff6484"/>
		<circle cx="31" cy="41" r="1" fill="#ff6484"/>
		<circle cx="49" cy="23" r="1" fill="#ff6484"/>
		<circle cx="45" cy="23" r="1" fill="#ff6484"/>
		<circle cx="47" cy="27" r="1" fill="#ff6484"/>
		<circle cx="43" cy="27" r="1" fill="#ff6484"/>
		<circle cx="41" cy="23" r="1" fill="#ff6484"/>
		<circle cx="39" cy="27" r="1" fill="#ff6484"/>
		<circle cx="37" cy="23" r="1" fill="#ff6484"/>
		<circle cx="35" cy="27" r="1" fill="#ff6484"/>
		<circle cx="33" cy="23" r="1" fill="#ff6484"/>
		<circle cx="31" cy="27" r="1" fill="#ff6484"/>
		<circle cx="49" cy="9" r="1" fill="#ff6484"/>
		<circle cx="45" cy="9" r="1" fill="#ff6484"/>
		<circle cx="47" cy="13" r="1" fill="#ff6484"/>
		<circle cx="43" cy="13" r="1" fill="#ff6484"/>
		<circle cx="41" cy="9" r="1" fill="#ff6484"/>
		<circle cx="39" cy="13" r="1" fill="#ff6484"/>
		<circle cx="37" cy="9" r="1" fill="#ff6484"/>
		<circle cx="35" cy="13" r="1" fill="#ff6484"/>
		<circle cx="33" cy="9" r="1" fill="#ff6484"/>
		<circle cx="31" cy="13" r="1" fill="#ff6484"/>
		<path d="M9,29c2.206,0,4-1.794,4-4s-1.794-4-4-4s-4,1.794-4,4S6.794,29,9,29z M9,23c1.103,0,2,0.897,2,2s-0.897,2-2,2    s-2-0.897-2-2S7.897,23,9,23z" fill="#ff6484"/>
		<path d="M54,5.406C54,4.079,52.921,3,51.594,3H2.406C1.079,3,0,4.079,0,5.406v11.188C0,17.12,0.175,17.604,0.462,18    C0.175,18.396,0,18.88,0,19.406v11.188C0,31.12,0.175,31.604,0.462,32C0.175,32.396,0,32.88,0,33.406v11.188    C0,45.921,1.079,47,2.406,47H3c0,2.206,1.794,4,4,4s4-1.794,4-4h32c0,2.206,1.794,4,4,4s4-1.794,4-4h0.594    C52.921,47,54,45.921,54,44.594V33.406c0-0.526-0.175-1.01-0.462-1.406C53.825,31.604,54,31.12,54,30.594V19.406    c0-0.526-0.175-1.01-0.462-1.406C53.825,17.604,54,17.12,54,16.594V5.406z M2,5.406C2,5.183,2.183,5,2.406,5h49.188    C51.817,5,52,5.183,52,5.406v11.188C52,16.817,51.817,17,51.594,17H2.406C2.183,17,2,16.817,2,16.594V5.406z M52,19.406v11.188    C52,30.817,51.817,31,51.594,31H2.406C2.183,31,2,30.817,2,30.594V19.406C2,19.183,2.183,19,2.406,19h49.188    C51.817,19,52,19.183,52,19.406z M7,49c-1.103,0-2-0.897-2-2h4C9,48.103,8.103,49,7,49z M47,49c-1.103,0-2-0.897-2-2h4    C49,48.103,48.103,49,47,49z M52,44.594C52,44.817,51.817,45,51.594,45H51h-8H11H3H2.406C2.183,45,2,44.817,2,44.594V33.406    C2,33.183,2.183,33,2.406,33h49.188C51.817,33,52,33.183,52,33.406V44.594z" fill="#ff6484"/>
		<path d="M9,15c2.206,0,4-1.794,4-4s-1.794-4-4-4s-4,1.794-4,4S6.794,15,9,15z M9,9c1.103,0,2,0.897,2,2s-0.897,2-2,2s-2-0.897-2-2    S7.897,9,9,9z" fill="#ff6484"/>
	</g>
</g>
<g>
</g>
<g>
</g>
<g>
</g>
<g>
</g>
<g>
</g>
<g>
</g>
<g>
</g>
<g>
</g>
<g>
</g>
<g>
</g>
<g>
</g>
<g>
</g>
<g>
</g>
<g>
</g>
<g>
</g>
</svg>
