<?xml version="1.0" encoding="UTF-8" standalone="no"?>
<svg
   xmlns:dc="http://purl.org/dc/elements/1.1/"
   xmlns:cc="http://creativecommons.org/ns#"
   xmlns:rdf="http://www.w3.org/1999/02/22-rdf-syntax-ns#"
   xmlns:svg="http://www.w3.org/2000/svg"
   xmlns="http://www.w3.org/2000/svg"
   xmlns:sodipodi="http://sodipodi.sourceforge.net/DTD/sodipodi-0.dtd"
   xmlns:inkscape="http://www.inkscape.org/namespaces/inkscape"
   height="512px"
   viewBox="-26 -26 853.33331 853.33331"
   width="512px"
   version="1.1"
   id="svg169"
   sodipodi:docname="collecte.svg"
   inkscape:version="0.92.3 (2405546, 2018-03-11)">
  <metadata
     id="metadata175">
    <rdf:RDF>
      <cc:Work
         rdf:about="">
        <dc:format>image/svg+xml</dc:format>
        <dc:type
           rdf:resource="http://purl.org/dc/dcmitype/StillImage" />
      </cc:Work>
    </rdf:RDF>
  </metadata>
  <defs
     id="defs173" />
  <sodipodi:namedview
     pagecolor="#ffffff"
     bordercolor="#666666"
     borderopacity="1"
     objecttolerance="10"
     gridtolerance="10"
     guidetolerance="10"
     inkscape:pageopacity="0"
     inkscape:pageshadow="2"
     inkscape:window-width="640"
     inkscape:window-height="480"
     id="namedview171"
     showgrid="false"
     inkscape:zoom="0.4609375"
     inkscape:cx="256"
     inkscape:cy="256"
     inkscape:window-x="0"
     inkscape:window-y="27"
     inkscape:window-maximized="0"
     inkscape:current-layer="svg169" />
  <path
     d="m484.34375 398.25h14.484375c18.078125-.023438 32.734375-14.675781 32.753906-32.757812v-41.148438c-.019531-18.085938-14.675781-32.738281-32.753906-32.757812h-14.484375c-18.082031.019531-32.734375 14.671874-32.761719 32.757812v41.148438c.027344 18.082031 14.679688 32.734374 32.761719 32.757812zm-6.09375-73.90625c.003906-3.363281 2.734375-6.082031 6.09375-6.09375h14.484375c3.359375.011719 6.082031 2.730469 6.085937 6.09375v41.148438c-.003906 3.359374-2.726562 6.089843-6.085937 6.09375h-14.484375c-3.359375-.003907-6.089844-2.734376-6.09375-6.09375zm0 0"
     fill="#ff6484"
     id="path111"
     style="fill:#6c63ff;fill-opacity:1" />
  <path
     d="m411.585938 471.007812c7.363281 0 13.328124-5.964843 13.328124-13.332031.007813-3.359375 2.734376-6.085937 6.09375-6.09375h14.484376c3.363281.007813 6.082031 2.734375 6.089843 6.09375v41.152344c0 7.355469 5.96875 13.328125 13.339844 13.328125 7.355469 0 13.328125-5.972656 13.328125-13.328125v-41.152344c-.019531-18.078125-14.671875-32.734375-32.757812-32.761719h-14.484376c-18.078124.027344-32.734374 14.683594-32.757812 32.761719 0 7.367188 5.96875 13.332031 13.335938 13.332031zm0 0"
     fill="#ff6484"
     id="path113"
     style="fill:#6c63ff;fill-opacity:1" />
  <path
     d="m411.585938 398.25c7.363281 0 13.328124-5.964844 13.328124-13.335938v-80c0-7.355468-5.964843-13.328124-13.328124-13.328124-7.367188 0-13.335938 5.972656-13.335938 13.328124v80c0 7.371094 5.96875 13.335938 13.335938 13.335938zm0 0"
     fill="#ff6484"
     id="path115"
     style="fill:#6c63ff;fill-opacity:1" />
  <path
     d="m571.585938 398.25c7.359374 0 13.328124-5.964844 13.328124-13.335938v-80c0-7.355468-5.96875-13.328124-13.328124-13.328124-7.367188 0-13.335938 5.972656-13.335938 13.328124v80c0 7.371094 5.96875 13.335938 13.335938 13.335938zm0 0"
     fill="#ff6484"
     id="path117"
     style="fill:#6c63ff;fill-opacity:1" />
  <path
     d="m518.25 424.914062c-7.363281 0-13.335938 5.972657-13.335938 13.335938v53.335938c0 7.359374 5.972657 13.328124 13.335938 13.328124s13.332031-5.96875 13.332031-13.328124v-53.335938c0-7.363281-5.96875-13.335938-13.332031-13.335938zm0 0"
     fill="#ff6484"
     id="path119"
     style="fill:#6c63ff;fill-opacity:1" />
  <path
     d="m571.585938 478.25c7.359374 0 13.328124-5.972656 13.328124-13.328125v-26.671875c0-7.363281-5.96875-13.335938-13.328124-13.335938-7.367188 0-13.335938 5.972657-13.335938 13.335938v26.671875c0 7.355469 5.96875 13.328125 13.335938 13.328125zm0 0"
     fill="#ff6484"
     id="path121"
     style="fill:#6c63ff;fill-opacity:1" />
  <path
     d="m758.25-1.75h-720c-22.089844 0-40 17.910156-40 40v720c0 22.089844 17.910156 40 40 40h720c22.089844 0 40-17.910156 40-40v-720c0-22.089844-17.910156-40-40-40zm-733.335938 40c0-7.363281 5.972657-13.335938 13.335938-13.335938h720c7.363281 0 13.335938 5.972657 13.335938 13.335938v66.664062h-746.671876zm746.671876 93.332031v533.339844h-746.671876v-533.339844zm0 626.667969c0 7.363281-5.972657 13.335938-13.335938 13.335938h-720c-7.363281 0-13.335938-5.972657-13.335938-13.335938v-66.664062h746.671876zm0 0"
     fill="#ff6484"
     id="path123"
     style="fill:#6c63ff;fill-opacity:1" />
  <path
     d="m318.25 384.914062c-.085938 67.691407 39.28125 129.230469 100.792969 157.507813 61.492187 28.285156 133.839843 18.125 185.164062-26.011719l117.949219 117.933594c5.234375 5.050781 13.550781 4.980469 18.691406-.160156 5.148438-5.148438 5.214844-13.460938.167969-18.691406l-117.9375-117.949219c49.949219-58.304688 55.566406-142.53125 13.804687-206.957031-41.757812-64.425782-120.945312-93.679688-194.558593-71.882813-73.621094 21.789063-124.113281 89.433594-124.074219 166.210937zm173.335938-146.664062c81 0 146.664062 65.664062 146.664062 146.664062 0 81.007813-65.664062 146.667969-146.664062 146.667969-81.007813 0-146.664063-65.660156-146.664063-146.667969.097656-80.957031 65.703125-146.570312 146.664063-146.664062zm0 0"
     fill="#ff6484"
     id="path125"
     style="fill:#6c63ff;fill-opacity:1" />
  <path
     d="m64.921875 198.25h293.328125c7.363281 0 13.335938-5.964844 13.335938-13.335938 0-7.363281-5.972657-13.328124-13.335938-13.328124h-293.328125c-7.371094 0-13.339844 5.964843-13.339844 13.328124 0 7.371094 5.96875 13.335938 13.339844 13.335938zm0 0"
     fill="#ff6484"
     id="path127"
     style="fill:#6c63ff;fill-opacity:1" />
  <path
     d="m64.921875 251.582031h119.992187c7.371094 0 13.335938-5.96875 13.335938-13.332031s-5.964844-13.335938-13.335938-13.335938h-119.992187c-7.371094 0-13.339844 5.972657-13.339844 13.335938s5.96875 13.332031 13.339844 13.332031zm0 0"
     fill="#ff6484"
     id="path129"
     style="fill:#6c63ff;fill-opacity:1" />
  <path
     d="m651.582031 198.25h53.332031c7.371094 0 13.335938-5.964844 13.335938-13.335938 0-7.363281-5.964844-13.328124-13.335938-13.328124h-53.332031c-7.359375 0-13.332031 5.964843-13.332031 13.328124 0 7.371094 5.972656 13.335938 13.332031 13.335938zm0 0"
     fill="#ff6484"
     id="path131"
     style="fill:#6c63ff;fill-opacity:1" />
  <path
     d="m704.914062 224.914062h-26.664062c-7.363281 0-13.328125 5.972657-13.328125 13.335938s5.964844 13.332031 13.328125 13.332031h26.664062c7.371094 0 13.335938-5.96875 13.335938-13.332031s-5.964844-13.335938-13.335938-13.335938zm0 0"
     fill="#ff6484"
     id="path133"
     style="fill:#6c63ff;fill-opacity:1" />
  <path
     d="m704.914062 491.585938h-26.664062c-7.363281 0-13.328125 5.972656-13.328125 13.328124 0 7.371094 5.964844 13.335938 13.328125 13.335938h26.664062c7.371094 0 13.335938-5.964844 13.335938-13.335938 0-7.355468-5.964844-13.328124-13.335938-13.328124zm0 0"
     fill="#ff6484"
     id="path135"
     style="fill:#6c63ff;fill-opacity:1" />
  <path
     d="m704.914062 278.25h-26.664062c-7.363281 0-13.328125 5.96875-13.328125 13.335938 0 7.359374 5.964844 13.328124 13.328125 13.328124h26.664062c7.371094 0 13.335938-5.96875 13.335938-13.328124 0-7.367188-5.964844-13.335938-13.335938-13.335938zm0 0"
     fill="#ff6484"
     id="path137"
     style="fill:#6c63ff;fill-opacity:1" />
  <path
     d="m611.585938 598.25h-26.671876c-7.363281 0-13.328124 5.96875-13.328124 13.335938 0 7.363281 5.964843 13.328124 13.328124 13.328124h26.671876c7.363281 0 13.328124-5.964843 13.328124-13.328124 0-7.367188-5.964843-13.335938-13.328124-13.335938zm0 0"
     fill="#ff6484"
     id="path139"
     style="fill:#6c63ff;fill-opacity:1" />
  <path
     d="m64.921875 304.914062h159.992187c7.371094 0 13.335938-5.96875 13.335938-13.328124 0-7.367188-5.964844-13.335938-13.335938-13.335938h-159.992187c-7.371094 0-13.339844 5.96875-13.339844 13.335938 0 7.359374 5.96875 13.328124 13.339844 13.328124zm0 0"
     fill="#ff6484"
     id="path141"
     style="fill:#6c63ff;fill-opacity:1" />
  <path
     d="m64.921875 358.25h26.664063c7.359374 0 13.328124-5.972656 13.328124-13.328125 0-7.371094-5.96875-13.339844-13.328124-13.339844h-26.664063c-7.371094 0-13.339844 5.96875-13.339844 13.339844 0 7.355469 5.96875 13.328125 13.339844 13.328125zm0 0"
     fill="#ff6484"
     id="path143"
     style="fill:#6c63ff;fill-opacity:1" />
  <path
     d="m224.914062 411.585938h26.667969c7.367188 0 13.339844-5.972657 13.339844-13.335938s-5.972656-13.335938-13.339844-13.335938h-26.667969c-7.355468 0-13.328124 5.972657-13.328124 13.335938s5.972656 13.335938 13.328124 13.335938zm0 0"
     fill="#ff6484"
     id="path145"
     style="fill:#6c63ff;fill-opacity:1" />
  <path
     d="m278.25 344.921875c0-7.371094-5.972656-13.339844-13.328125-13.339844h-93.335937c-7.367188 0-13.335938 5.96875-13.335938 13.339844 0 7.355469 5.96875 13.328125 13.335938 13.328125h93.335937c7.355469 0 13.328125-5.972656 13.328125-13.328125zm0 0"
     fill="#ff6484"
     id="path147"
     style="fill:#6c63ff;fill-opacity:1" />
  <path
     d="m171.585938 504.914062c0 7.371094 5.964843 13.335938 13.328124 13.335938h93.335938c7.363281 0 13.335938-5.964844 13.335938-13.335938 0-7.355468-5.972657-13.328124-13.335938-13.328124h-93.335938c-7.363281 0-13.328124 5.972656-13.328124 13.328124zm0 0"
     fill="#ff6484"
     id="path149"
     style="fill:#6c63ff;fill-opacity:1" />
  <path
     d="m64.921875 411.585938h80c7.355469 0 13.328125-5.972657 13.328125-13.335938s-5.972656-13.335938-13.328125-13.335938h-80c-7.371094 0-13.339844 5.972657-13.339844 13.335938s5.96875 13.335938 13.339844 13.335938zm0 0"
     fill="#ff6484"
     id="path151"
     style="fill:#6c63ff;fill-opacity:1" />
  <path
     d="m64.921875 464.921875h119.992187c7.371094 0 13.335938-5.972656 13.335938-13.339844 0-7.359375-5.964844-13.332031-13.335938-13.332031h-119.992187c-7.371094 0-13.339844 5.972656-13.339844 13.332031 0 7.367188 5.96875 13.339844 13.339844 13.339844zm0 0"
     fill="#ff6484"
     id="path153"
     style="fill:#6c63ff;fill-opacity:1" />
  <path
     d="m64.921875 518.25h66.660156c7.367188 0 13.339844-5.964844 13.339844-13.335938 0-7.355468-5.972656-13.328124-13.339844-13.328124h-66.660156c-7.371094 0-13.339844 5.972656-13.339844 13.328124 0 7.371094 5.96875 13.335938 13.339844 13.335938zm0 0"
     fill="#ff6484"
     id="path155"
     style="fill:#6c63ff;fill-opacity:1" />
  <path
     d="m64.921875 571.585938h280c7.355469 0 13.328125-5.972657 13.328125-13.335938s-5.972656-13.328125-13.328125-13.328125h-280c-7.371094 0-13.339844 5.964844-13.339844 13.328125s5.96875 13.335938 13.339844 13.335938zm0 0"
     fill="#ff6484"
     id="path157"
     style="fill:#6c63ff;fill-opacity:1" />
  <path
     d="m171.585938 598.25h-106.664063c-7.371094 0-13.339844 5.96875-13.339844 13.335938 0 7.363281 5.96875 13.328124 13.339844 13.328124h106.664063c7.359374 0 13.328124-5.964843 13.328124-13.328124 0-7.367188-5.96875-13.335938-13.328124-13.335938zm0 0"
     fill="#ff6484"
     id="path159"
     style="fill:#6c63ff;fill-opacity:1" />
  <path
     d="m491.585938 598.25h-173.335938c-7.363281 0-13.335938 5.96875-13.335938 13.335938 0 7.363281 5.972657 13.328124 13.335938 13.328124h173.335938c7.359374 0 13.328124-5.964843 13.328124-13.328124 0-7.367188-5.96875-13.335938-13.328124-13.335938zm0 0"
     fill="#ff6484"
     id="path161"
     style="fill:#6c63ff;fill-opacity:1" />
  <path
     d="m78.25 64.921875c0 7.355469-5.972656 13.328125-13.328125 13.328125-7.371094 0-13.339844-5.972656-13.339844-13.328125 0-7.371094 5.96875-13.339844 13.339844-13.339844 7.355469 0 13.328125 5.96875 13.328125 13.339844zm0 0"
     fill="#ff6484"
     id="path163"
     style="fill:#6c63ff;fill-opacity:1" />
  <path
     d="m131.582031 64.921875c0 7.355469-5.96875 13.328125-13.332031 13.328125s-13.335938-5.972656-13.335938-13.328125c0-7.371094 5.972657-13.339844 13.335938-13.339844s13.332031 5.96875 13.332031 13.339844zm0 0"
     fill="#ff6484"
     id="path165"
     style="fill:#6c63ff;fill-opacity:1" />
  <path
     d="m184.914062 64.921875c0 7.355469-5.96875 13.328125-13.328124 13.328125-7.367188 0-13.335938-5.972656-13.335938-13.328125 0-7.371094 5.96875-13.339844 13.335938-13.339844 7.359374 0 13.328124 5.96875 13.328124 13.339844zm0 0"
     fill="#ff6484"
     id="path167"
     style="fill:#6c63ff;fill-opacity:1" />
</svg>
