<?xml version="1.0" encoding="UTF-8" standalone="no"?>
<svg
   xmlns:dc="http://purl.org/dc/elements/1.1/"
   xmlns:cc="http://creativecommons.org/ns#"
   xmlns:rdf="http://www.w3.org/1999/02/22-rdf-syntax-ns#"
   xmlns:svg="http://www.w3.org/2000/svg"
   xmlns="http://www.w3.org/2000/svg"
   xmlns:xlink="http://www.w3.org/1999/xlink"
   xmlns:sodipodi="http://sodipodi.sourceforge.net/DTD/sodipodi-0.dtd"
   xmlns:inkscape="http://www.inkscape.org/namespaces/inkscape"
   version="1.1"
   viewBox="0 0 1100.0058 736.19831"
   height="736.1983"
   width="1100.0059"
   data-name="Layer 1"
   id="a26a8f0d-4f9c-4927-88fb-2c6a33da07b1"
   sodipodi:docname="design-data.svg"
   inkscape:version="0.92.3 (2405546, 2018-03-11)">
  <sodipodi:namedview
     pagecolor="#ffffff"
     bordercolor="#666666"
     borderopacity="1"
     objecttolerance="10"
     gridtolerance="10"
     guidetolerance="10"
     inkscape:pageopacity="0"
     inkscape:pageshadow="2"
     inkscape:window-width="1920"
     inkscape:window-height="969"
     id="namedview82"
     showgrid="false"
     inkscape:zoom="0.90669701"
     inkscape:cx="775.5903"
     inkscape:cy="350.52223"
     inkscape:window-x="0"
     inkscape:window-y="27"
     inkscape:window-maximized="1"
     inkscape:current-layer="a26a8f0d-4f9c-4927-88fb-2c6a33da07b1" />
  <metadata
     id="metadata338">
    <rdf:RDF>
      <cc:Work
         rdf:about="">
        <dc:format>image/svg+xml</dc:format>
        <dc:type
           rdf:resource="http://purl.org/dc/dcmitype/StillImage" />
        <dc:title>Data points</dc:title>
      </cc:Work>
    </rdf:RDF>
  </metadata>
  <defs
     id="defs13">
    <linearGradient
       gradientUnits="userSpaceOnUse"
       y2="186.69"
       x2="588.16998"
       y1="805.69"
       x1="588.16998"
       id="ab1c7cfe-44b5-4159-9f4a-9e5eb45dcf3d">
      <stop
         id="stop2"
         stop-opacity="0.25"
         stop-color="gray"
         offset="0" />
      <stop
         id="stop4"
         stop-opacity="0.12"
         stop-color="gray"
         offset="0.54" />
      <stop
         id="stop6"
         stop-opacity="0.1"
         stop-color="gray"
         offset="1" />
    </linearGradient>
    <linearGradient
       xlink:href="#ab1c7cfe-44b5-4159-9f4a-9e5eb45dcf3d"
       gradientTransform="translate(-343.70707,-3038.6113)"
       y2="1173.83"
       x2="568.69"
       y1="1179.83"
       x1="568.69"
       id="bef5b74f-e0e9-4f25-a252-2de6d30fcb3c" />
    <linearGradient
       xlink:href="#ab1c7cfe-44b5-4159-9f4a-9e5eb45dcf3d"
       y2="622.09998"
       x2="995.73999"
       y1="822.32001"
       x1="995.73999"
       id="edd93e19-8656-44cb-97b1-fa57f76832a0" />
    <linearGradient
       xlink:href="#ab1c7cfe-44b5-4159-9f4a-9e5eb45dcf3d"
       gradientTransform="matrix(-1,0,0,1,2114.6113,51.29293)"
       y2="603.69"
       x2="355.29001"
       y1="824.58002"
       x1="355.29001"
       id="a7aacfe1-33f0-4fa2-a43d-b0dbbe7da94f" />
    <linearGradient
       xlink:href="#ab1c7cfe-44b5-4159-9f4a-9e5eb45dcf3d"
       gradientTransform="matrix(-0.98,0.22,0.22,0.98,532.3,-45.53)"
       y2="572.32001"
       x2="463.14999"
       y1="767.97998"
       x1="463.14999"
       id="a35cfccf-3ee0-4563-bdbb-1343be007a46" />
    <linearGradient
       xlink:href="#ab1c7cfe-44b5-4159-9f4a-9e5eb45dcf3d"
       gradientTransform="matrix(-1.6414537,0,0,1.6411452,1058.223,-633.85953)"
       y2="603.69"
       x2="355.29001"
       y1="824.58002"
       x1="355.29001"
       id="a7aacfe1-33f0-4fa2-a43d-b0dbbe7da94f-3" />
    <linearGradient
       xlink:href="#ab1c7cfe-44b5-4159-9f4a-9e5eb45dcf3d"
       gradientTransform="matrix(0.90606596,0,0,0.89878587,-461.94869,-1654.6791)"
       y2="1173.83"
       x2="568.69"
       y1="1179.83"
       x1="568.69"
       id="bef5b74f-e0e9-4f25-a252-2de6d30fcb3c-3" />
    <linearGradient
       gradientTransform="matrix(0.74496737,0,0,0.7176258,89.93789,-82.862991)"
       y2="186.69"
       x2="588.16998"
       y1="805.69"
       x1="588.16998"
       gradientUnits="userSpaceOnUse"
       id="linearGradient364"
       xlink:href="#ab1c7cfe-44b5-4159-9f4a-9e5eb45dcf3d" />
    <linearGradient
       xlink:href="#ab1c7cfe-44b5-4159-9f4a-9e5eb45dcf3d"
       gradientTransform="matrix(-1.6414537,0,0,1.6411452,1139.6016,-628.95888)"
       y2="603.69"
       x2="355.29001"
       y1="824.58002"
       x1="355.29001"
       id="a7aacfe1-33f0-4fa2-a43d-b0dbbe7da94f-3-2" />
  </defs>
  <title
     id="title15">Data points</title>
  <g
     transform="matrix(0.50886512,0,0,0.53773228,43.226387,28.749483)"
     id="d00831fc-a64a-413c-b5dd-d7bd6eafa01d"
     data-name="flowers">
    <path
       style="fill:none;stroke:#535461;stroke-width:2;stroke-miterlimit:10"
       inkscape:connector-curvature="0"
       d="m 299.89,346.32 c 0,0 -46,-81.52 -115.32,-105 -29.09,-9.86 -54.48,-28.4 -71.84,-53.74 a 238,238 0 0 1 -21.2,-38.12"
       transform="translate(-41.9,-21.46)"
       stroke-miterlimit="10"
       id="path16-8" />
    <path
       style="fill:#6c63ff"
       inkscape:connector-curvature="0"
       d="M 47.94,134.37 C 55.84,142 92.62,150 92.62,150 c 0,0 -9,-36.52 -16.92,-44.19 a 19.93,19.93 0 0 0 -27.76,28.6 z"
       transform="translate(-41.9,-21.46)"
       id="path18-7" />
    <path
       style="fill:#6c63ff"
       inkscape:connector-curvature="0"
       d="m 68.75,200.46 c 10.79,2.14 46,-11.19 46,-11.19 0,0 -27.45,-25.76 -38.25,-27.9 a 19.93,19.93 0 0 0 -7.75,39.09 z"
       transform="translate(-41.9,-21.46)"
       id="path20-9" />
    <path
       style="fill:#6c63ff"
       inkscape:connector-curvature="0"
       d="m 144.5,272 c 10.4,-3.6 34,-32.87 34,-32.87 0,0 -36.68,-8.39 -47.07,-4.79 a 19.93,19.93 0 1 0 13,37.66 z"
       transform="translate(-41.9,-21.46)"
       id="path22-2" />
    <path
       style="fill:#6c63ff"
       inkscape:connector-curvature="0"
       d="m 214,313.19 c 10.86,-1.8 39.1,-26.65 39.1,-26.65 0,0 -34.73,-14.47 -45.59,-12.68 a 19.930937,19.930937 0 0 0 6.49,39.33 z"
       transform="translate(-41.9,-21.46)"
       id="path24-0" />
    <path
       style="fill:#6c63ff"
       inkscape:connector-curvature="0"
       d="m 145.39,160.73 c 0,11 -19.9,42.93 -19.9,42.93 0,0 -19.94,-31.91 -19.95,-42.91 a 19.93,19.93 0 1 1 39.85,0 z"
       transform="translate(-41.9,-21.46)"
       id="path26-2" />
    <path
       style="fill:#6c63ff"
       inkscape:connector-curvature="0"
       d="m 226.07,210 c -3.29,10.5 -31.84,35 -31.84,35 0,0 -9.48,-36.45 -6.23,-47 a 19.93,19.93 0 0 1 38,11.91 z"
       transform="translate(-41.9,-21.46)"
       id="path28-3" />
    <path
       style="fill:#6c63ff"
       inkscape:connector-curvature="0"
       d="m 297.91,268.55 c -1.46,10.91 -25.46,39.88 -25.46,39.88 0,0 -15.5,-34.28 -14,-45.19 a 19.93,19.93 0 0 1 39.5,5.31 z"
       transform="translate(-41.9,-21.46)"
       id="path30-7" />
    <path
       style="opacity:0.25"
       inkscape:connector-curvature="0"
       d="M 47.94,134.37 C 55.84,142 92.62,150 92.62,150 c 0,0 -9,-36.52 -16.92,-44.19 a 19.93,19.93 0 0 0 -27.76,28.6 z"
       transform="translate(-41.9,-21.46)"
       id="path32-5" />
    <path
       style="opacity:0.25"
       inkscape:connector-curvature="0"
       d="m 68.75,200.46 c 10.79,2.14 46,-11.19 46,-11.19 0,0 -27.45,-25.76 -38.25,-27.9 a 19.93,19.93 0 0 0 -7.75,39.09 z"
       transform="translate(-41.9,-21.46)"
       id="path34-9" />
    <path
       style="opacity:0.25"
       inkscape:connector-curvature="0"
       d="m 144.5,272 c 10.4,-3.6 34,-32.87 34,-32.87 0,0 -36.68,-8.39 -47.07,-4.79 a 19.93,19.93 0 1 0 13,37.66 z"
       transform="translate(-41.9,-21.46)"
       id="path36-2" />
    <path
       style="opacity:0.25"
       inkscape:connector-curvature="0"
       d="m 214,313.19 c 10.86,-1.8 39.1,-26.65 39.1,-26.65 0,0 -34.73,-14.47 -45.59,-12.68 a 19.930937,19.930937 0 0 0 6.49,39.33 z"
       transform="translate(-41.9,-21.46)"
       id="path38-2" />
    <path
       style="opacity:0.25"
       inkscape:connector-curvature="0"
       d="m 145.39,160.73 c 0,11 -19.9,42.93 -19.9,42.93 0,0 -19.94,-31.91 -19.95,-42.91 a 19.93,19.93 0 1 1 39.85,0 z"
       transform="translate(-41.9,-21.46)"
       id="path40-8" />
    <path
       style="opacity:0.25"
       inkscape:connector-curvature="0"
       d="m 226.07,210 c -3.29,10.5 -31.84,35 -31.84,35 0,0 -9.48,-36.45 -6.23,-47 a 19.93,19.93 0 0 1 38,11.91 z"
       transform="translate(-41.9,-21.46)"
       id="path42-9" />
    <path
       style="opacity:0.25"
       inkscape:connector-curvature="0"
       d="m 297.91,268.55 c -1.46,10.91 -25.46,39.88 -25.46,39.88 0,0 -15.5,-34.28 -14,-45.19 a 19.93,19.93 0 0 1 39.5,5.31 z"
       transform="translate(-41.9,-21.46)"
       id="path44-7" />
    <path
       style="fill:none;stroke:#535461;stroke-width:2;stroke-miterlimit:10"
       inkscape:connector-curvature="0"
       d="m 297.24,344.7 c 0,0 -9,-93.18 -62.88,-142.74 -22.59,-20.8 -38.29,-48 -43.9,-78.24 a 238.15,238.15 0 0 1 -3.92,-43.45"
       transform="translate(-41.9,-21.46)"
       stroke-miterlimit="10"
       id="path46-3" />
    <path
       style="fill:#6c63ff"
       inkscape:connector-curvature="0"
       d="m 152.79,48.84 c 4.12,10.21 34.53,32.36 34.53,32.36 0,0 6.55,-37.05 2.44,-47.26 a 19.943733,19.943733 0 0 0 -37,14.9 z"
       transform="translate(-41.9,-21.46)"
       id="path48-6" />
    <path
       style="fill:#6c63ff"
       inkscape:connector-curvature="0"
       d="m 145,117.69 c 9,6.33 46.57,8.4 46.57,8.4 0,0 -14.57,-34.66 -23.57,-40.99 a 19.944348,19.944348 0 1 0 -23,32.59 z"
       transform="translate(-41.9,-21.46)"
       id="path50-1" />
    <path
       style="fill:#6c63ff"
       inkscape:connector-curvature="0"
       d="m 185.31,213.77 c 11,0.93 44.44,-16.26 44.44,-16.26 0,0 -30.13,-22.53 -41.1,-23.45 a 19.93,19.93 0 1 0 -3.34,39.71 z"
       transform="translate(-41.9,-21.46)"
       id="path52-2" />
    <path
       style="fill:#6c63ff"
       inkscape:connector-curvature="0"
       d="m 232.15,279.61 c 10.66,2.76 46.55,-8.52 46.55,-8.52 0,0 -25.89,-27.3 -36.54,-30.06 a 19.93,19.93 0 0 0 -10,38.58 z"
       transform="translate(-41.9,-21.46)"
       id="path54-9" />
    <path
       style="fill:#6c63ff"
       inkscape:connector-curvature="0"
       d="m 231.2,112.43 c -4.45,10.06 -35.59,31.17 -35.59,31.17 0,0 -5.3,-37.24 -0.85,-47.31 a 19.93,19.93 0 1 1 36.44,16.14 z"
       transform="translate(-41.9,-21.46)"
       id="path56-3" />
    <path
       style="fill:#6c63ff"
       inkscape:connector-curvature="0"
       d="m 285,190.11 c -7.26,8.27 -43.29,19.1 -43.29,19.1 0,0 6.08,-37.12 13.35,-45.39 A 19.922147,19.922147 0 1 1 285,190.11 Z"
       transform="translate(-41.9,-21.46)"
       id="path58" />
    <path
       style="fill:#6c63ff"
       inkscape:connector-curvature="0"
       d="m 327,272.8 c -5.76,9.38 -39.44,26.14 -39.44,26.14 0,0 -0.28,-37.62 5.48,-47 a 19.944546,19.944546 0 0 1 34,20.86 z"
       transform="translate(-41.9,-21.46)"
       id="path60" />
  </g>
  <path
     id="path15"
     d="m 1027.0607,561.77326 c -22.0063,16.41728 -53.32103,23.21176 -83.60561,27.503 l -5.09723,0.69896 c -31.63112,4.24248 -63.61472,6.50189 -95.70678,7.87542 -17.1712,0.74771 -34.34239,1.27599 -51.51359,1.74738 l -13.45679,0.35761 q -26.20866,0.69895 -52.51674,1.37352 -25.75679,0.65831 -51.51358,1.23535 -32.98677,0.72334 -65.97353,1.20285 -25.7568,0.36574 -51.51358,0.5039 -32.99581,0.17068 -65.97353,-0.11378 -25.77487,-0.23569 -51.51359,-0.81273 -33.00483,-0.76398 -65.97353,-2.23504 -22.37678,-0.9834 -44.72644,-2.36506 l -6.78714,-0.43075 C 257.23086,594.16894 192.12493,586.7324 136.15588,563.22805 l -1.50927,-0.64205 c -0.7501,-0.31697 -1.50021,-0.63394 -2.25032,-0.96716 A 202.53875,182.14239 0 0 1 102.97027,546.1037 C 86.422668,535.48936 72.758013,522.53434 65.537075,507.16549 c -11.314913,-24.10576 -5.332107,-51.2024 7.591475,-74.77176 12.923583,-23.56936 32.32703,-44.8468 49.10961,-67.04264 4.91638,-6.50189 9.57973,-13.2476 13.91772,-20.16399 27.1124,-43.37575 40.56016,-93.57036 12.13732,-135.3694 a 206.5785,185.77532 0 0 0 -12.13732,-15.442 c -6.93174,-8.12736 -13.98098,-16.25472 -18.74373,-25.25172 -11.10705,-20.93609 -8.72116,-44.48108 -4.67236,-66.84758 5.42247,-29.738029 15.36369,-61.767976 46.43452,-80.347134 32.23665,-19.2943653 77.99337,-18.3190814 118.00225,-11.378311 62.20491,10.719995 119.61996,33.159651 177.57725,53.396791 57.9573,20.23714 118.67102,38.743144 182.39423,40.734354 a 291.08788,261.77431 0 0 0 41.01204,-1.34102 v 0 A 260.10744,233.9137 0 0 0 731.58961,93.222512 C 756.66858,85.794105 779.4882,74.618977 796.40634,59.087581 832.69178,25.887294 900.87949,23.375938 950.0434,43.426149 c 46.91345,19.131817 77.2523,59.622351 75.011,100.064121 -2.5486,45.01747 -40.03597,82.0295 -74.38741,119.99242 -4.16627,4.60009 -8.27833,9.21644 -12.28202,13.86529 q -3.35287,3.89301 -6.57925,7.80227 v 0 c -3.76862,4.60009 -7.41072,9.22455 -10.84496,13.90592 -17.55077,24.00011 -29.95922,52.82788 -17.87612,78.73792 6.7781,14.50735 19.71072,25.57681 35.30033,35.24025 34.92989,21.64318 83.14483,36.20741 104.83473,66.50624 18.6895,26.11322 11.7668,61.36161 -16.159,82.23268 z"
     style="opacity:0.1;fill:#6c63ff;stroke-width:0.85703456"
     inkscape:connector-curvature="0" />
  <path
     style="fill:url(#linearGradient364);stroke-width:0.73116875"
     id="path65"
     d="M 888.94513,51.110574 H 167.2655 a 6.436518,6.200287 0 0 0 -6.42907,6.207463 V 482.79121 a 12.984781,12.508218 0 0 0 12.96243,12.52974 H 882.41177 A 12.984781,12.508218 0 0 0 895.3742,482.79121 V 57.318037 a 6.436518,6.200287 0 0 0 -6.42907,-6.207463 z"
     inkscape:connector-curvature="0" />
  <path
     style="fill:#ffffff;stroke-width:0.73116875"
     id="path67"
     d="M 892.45393,77.526379 V 480.2867 a 12.858137,12.386222 0 0 1 -12.85069,12.38622 H 176.73403 A 12.858137,12.386222 0 0 1 163.8759,480.2867 V 77.526379 Z"
     inkscape:connector-curvature="0" />
  <path
     style="fill:#d7d9e1;stroke-width:0.73116875"
     id="path69"
     d="M 259.91709,72.63934 V 492.67292 H 176.73403 A 12.858137,12.386222 0 0 1 163.8759,480.2867 V 72.675229 Z"
     inkscape:connector-curvature="0" />
  <path
     style="fill:#ededf4;stroke-width:0.73116875"
     id="path71"
     d="M 892.45393,59.628792 V 77.526379 H 163.8759 V 59.628792 a 6.3769207,6.1428769 0 0 1 6.37691,-6.142876 h 715.8242 a 6.3769207,6.1428769 0 0 1 6.37692,6.142876 z"
     inkscape:connector-curvature="0" />
  <ellipse
     style="opacity:0.8;fill:#fa5959;stroke-width:0.73116875"
     id="circle73"
     cy="65.31955"
     cx="175.42293"
     rx="2.9798696"
     ry="2.8705032" />
  <ellipse
     style="opacity:0.8;fill:#fed253;stroke-width:0.73116875"
     id="circle75"
     cy="65.31955"
     cx="183.61758"
     rx="2.9798696"
     ry="2.8705032" />
  <ellipse
     style="opacity:0.8;fill:#8ccf4d;stroke-width:0.73116875"
     id="circle77"
     cy="65.31955"
     cx="191.81223"
     rx="2.9798696"
     ry="2.8705032" />
  <rect
     style="fill:#28a745;stroke-width:0.73116875"
     id="rect79"
     height="7.1762581"
     width="70.026932"
     y="112.81921"
     x="379.11197" />
  <rect
     style="fill:#ededf4;stroke-width:0.73116875"
     id="rect81"
     height="7.1762581"
     width="393.34277"
     y="133.63037"
     x="379.11197" />
  <rect
     style="fill:#ededf4;stroke-width:0.73116875"
     id="rect83"
     height="7.1762581"
     width="393.34277"
     y="154.4415"
     x="379.11197" />
  <rect
     style="fill:#ededf4;stroke-width:0.73116875"
     id="rect85"
     height="7.1762581"
     width="393.34277"
     y="175.25267"
     x="379.11197" />
  <rect
     style="fill:#ededf4;stroke-width:0.73116875"
     id="rect87"
     height="7.1762581"
     width="393.34277"
     y="196.0638"
     x="379.11197" />
  <rect
     style="fill:#ededf4;stroke-width:0.73116875"
     id="rect89"
     height="7.1762581"
     width="70.026932"
     y="112.81921"
     x="173.50095" />
  <rect
     style="fill:#ededf4;stroke-width:0.73116875"
     id="rect91"
     height="7.1762581"
     width="70.026932"
     y="133.63037"
     x="173.50095" />
  <rect
     style="fill:#ededf4;stroke-width:0.73116875"
     id="rect93"
     height="7.1762581"
     width="70.026932"
     y="154.4415"
     x="173.50095" />
  <rect
     style="fill:#ededf4;stroke-width:0.73116875"
     id="rect95"
     height="7.1762581"
     width="70.026932"
     y="175.25267"
     x="173.50095" />
  <rect
     style="fill:#ededf4;stroke-width:0.73116875"
     id="rect97"
     height="7.1762581"
     width="70.026932"
     y="196.0638"
     x="173.50095" />
  <rect
     style="fill:url(#bef5b74f-e0e9-4f25-a252-2de6d30fcb3c-3);stroke-width:0.90241855"
     id="rect99"
     transform="rotate(90)"
     height="5.392715"
     width="3.6242638"
     y="-599.64832"
     x="51.509838" />
  <rect
     style="fill:#ededf4;stroke-width:0.73116875"
     id="rect183"
     height="58.845318"
     width="61.087322"
     y="322.12378"
     x="624.21796" />
  <path
     style="fill:#28a745;stroke-width:0.73116875"
     id="path185"
     d="m 636.64409,347.81469 h 10.35504 v 14.95533 h -10.35504 z m 12.94008,-7.47765 h 10.3476 v 22.43298 h -10.3476 z m 12.94009,12.45798 h 10.34759 v 9.975 h -10.34759 z"
     inkscape:connector-curvature="0" />
  <rect
     style="opacity:0.1;stroke-width:0.73116875"
     id="rect193"
     height="58.845318"
     width="61.087322"
     y="229.79219"
     x="380.6019" />
  <rect
     style="fill:#ededf4;stroke-width:0.73116875"
     id="rect195"
     height="58.845318"
     width="61.087322"
     y="228.35693"
     x="379.11197" />
  <path
     style="fill:#28a745;stroke-width:0.73116875"
     id="path197"
     d="m 403.18174,242.83147 h 5.17753 v 29.91064 h -5.17753 z m -7.76253,21.18431 h 5.17005 v 8.72633 h -5.1775 z m 15.52509,-4.98749 h 5.21478 v 13.71382 h -5.21478 z m 7.76257,-7.47766 h 5.17751 v 21.19148 h -5.17751 z"
     inkscape:connector-curvature="0" />
  <rect
     style="opacity:0.1;stroke-width:0.73116875"
     id="rect199"
     height="58.845318"
     width="61.087322"
     y="229.07457"
     x="711.36725" />
  <rect
     style="fill:#ededf4;stroke-width:0.73116875"
     id="rect201"
     height="58.845318"
     width="61.087322"
     y="227.63931"
     x="709.87732" />
  <path
     style="fill:#6c63ff;stroke-width:0.73116875"
     id="path203"
     d="m 750.39613,251.01241 -7.05484,10.39121 a 3.8216826,3.6814204 0 0 1 0.87162,2.35382 3.8812809,3.7388315 0 0 1 -7.76256,0 4.5592002,4.3918699 0 0 1 0.067,-0.71762 l -4.65606,-2.61217 a 3.8663806,3.7244779 0 0 1 -4.60389,0.55975 l -4.95404,4.47081 v 4.45646 a 3.4640982,3.3369599 0 0 0 3.4492,3.32979 h 29.32937 a 3.4715479,3.3441363 0 0 0 3.45665,-3.32979 v -16.52692 l -4.738,-3.03556 a 3.8961793,3.7531829 0 0 1 -3.4045,0.66022 z"
     inkscape:connector-curvature="0" />
  <path
     style="fill:#6c63ff;stroke-width:0.73116875"
     id="path205"
     d="m 729.17201,254.02643 a 3.88128,3.7388305 0 0 1 3.88128,3.73883 c 0,0.15788 0,0.32293 0,0.48081 l 4.85719,2.61934 a 3.8738303,3.7316541 0 0 1 2.45839,-0.8468 4.2910121,4.1335247 0 0 1 0.84181,0.0861 l 7.06975,-10.54193 a 3.8440317,3.7029492 0 0 1 -0.74497,-2.15287 3.8812809,3.7388315 0 0 1 7.76256,0 4.1122198,3.9612944 0 0 1 -0.10429,0.88268 l 3.3449,2.15287 v -6.23617 a 3.4715479,3.3441363 0 0 0 -3.45665,-3.32978 h -29.32937 a 3.4640982,3.3369599 0 0 0 -3.4492,3.32978 v 17.86172 l 3.23317,-2.98533 a 3.8738303,3.7316541 0 0 1 3.63543,-5.02338 z"
     inkscape:connector-curvature="0" />
  <rect
     style="opacity:0.1;stroke-width:0.73116875"
     id="rect207"
     height="58.845318"
     width="61.087322"
     y="231.94507"
     x="545.98462" />
  <rect
     style="fill:#ededf4;stroke-width:0.73116875"
     id="rect209"
     height="58.845318"
     width="61.087322"
     y="230.50981"
     x="544.49469" />
  <path
     style="fill:#6c63ff;stroke-width:0.73116875"
     id="path211"
     d="m 564.68322,272.39766 h 20.70264 v 3.73882 h -20.70264 z m 10.35504,-9.96783 a 2.6073874,2.5116919 0 0 0 0,-5.02338 2.853225,2.7485068 0 0 0 -0.74496,0.0933 l -5.34142,-3.75318 -0.32033,0.2727 3.95577,5.19561 a 2.4509426,2.3609889 0 0 0 -0.11919,0.71763 2.5850368,2.4901616 0 0 0 2.57013,2.49733 z"
     inkscape:connector-curvature="0" />
  <path
     style="fill:#6c63ff;stroke-width:0.73116875"
     id="path213"
     d="M 575.03826,243.73568 A 16.813913,16.196814 0 0 0 561.7853,269.9075 h 4.75289 l 0.32033,-0.31576 1.78793,-1.71513 -1.84753,-1.78689 -1.78792,1.71513 a 12.850687,12.379045 0 0 1 -2.84577,-6.62368 h 2.51799 v -2.45428 h -2.51799 a 12.850687,12.379045 0 0 1 2.84577,-6.62369 l 1.78792,1.71512 1.84753,-1.78689 -1.78048,-1.71512 a 12.873036,12.400574 0 0 1 6.87606,-2.74133 v 2.42558 h 2.58503 v -2.42558 a 12.850687,12.379045 0 0 1 6.87604,2.74133 l -1.78046,1.71512 1.85496,1.78689 1.78792,-1.71512 a 12.910284,12.436455 0 0 1 2.84578,6.62369 h -2.52544 v 2.49016 h 2.52544 a 12.910284,12.436455 0 0 1 -2.84578,6.62368 l -1.78792,-1.71513 -1.85496,1.78689 1.78792,1.71513 0.32778,0.31576 h 4.78269 a 16.821364,16.20399 0 0 0 -13.25296,-26.17182 z"
     inkscape:connector-curvature="0" />
  <rect
     style="opacity:0.1;stroke-width:0.73116875"
     id="rect215"
     height="58.845318"
     width="61.087322"
     y="324.51886"
     x="468.50806" />
  <rect
     style="fill:#ededf4;stroke-width:0.73116875"
     id="rect217"
     height="58.845318"
     width="61.087322"
     y="320.2131"
     x="463.29324" />
  <path
     style="fill:#6c63ff;stroke-width:0.73116875"
     id="path219"
     d="m 501.0779,339.16558 4.14947,3.99 -8.83531,8.52539 -7.24853,-6.98249 -13.40941,12.95314 2.55524,2.46146 10.86907,-10.47017 7.24853,6.98251 11.40545,-10.97968 4.14947,3.99717 v -10.47733 z"
     inkscape:connector-curvature="0" />
  <g
     transform="matrix(-0.91037806,0,0,0.86182103,900.3157,-4.485988)"
     id="5cfdbbb0-8197-4f02-a5fd-2740d54b5dec"
     data-name="floor flowers">
    <ellipse
       style="opacity:0.1;fill:#6c63ff"
       cx="182.88"
       cy="836.06"
       rx="33.880001"
       ry="5.8000002"
       id="ellipse65" />
    <path
       style="fill:#6c63ff"
       inkscape:connector-curvature="0"
       d="m 232.14,792.94 c 0,0 5.49,7.19 -2.54,18 -8.03,10.81 -14.65,20 -12,26.77 0,0 12.11,-20.15 22,-20.43 9.89,-0.28 3.4,-12.22 -7.46,-24.34 z"
       transform="translate(-41.9,-21.46)"
       id="path67-3" />
    <path
       style="opacity:0.1"
       inkscape:connector-curvature="0"
       d="m 232.14,792.94 a 8.83,8.83 0 0 1 1.12,2.26 c 9.62,11.3 14.75,21.85 5.5,22.11 -8.61,0.25 -18.95,15.65 -21.42,19.54 a 9.24,9.24 0 0 0 0.29,0.89 c 0,0 12.11,-20.15 22,-20.43 9.89,-0.28 3.37,-12.25 -7.49,-24.37 z"
       transform="translate(-41.9,-21.46)"
       id="path69-6" />
    <path
       style="fill:#ffd037"
       inkscape:connector-curvature="0"
       d="m 242.35,802.1 c 0,2.53 -0.28,4.58 -0.63,4.58 -0.35,0 -0.64,-2 -0.64,-4.58 0,-2.58 0.36,-1.34 0.71,-1.34 0.35,0 0.56,-1.19 0.56,1.34 z"
       transform="translate(-41.9,-21.46)"
       id="path71-7" />
    <path
       style="fill:#ffd037"
       inkscape:connector-curvature="0"
       d="m 245.86,805.12 c -2.22,1.21 -4.16,1.94 -4.33,1.63 -0.17,-0.31 1.5,-1.54 3.72,-2.75 2.22,-1.21 1.34,-0.33 1.51,0 0.17,0.33 1.32,-0.09 -0.9,1.12 z"
       transform="translate(-41.9,-21.46)"
       id="path73" />
    <path
       style="fill:#6c63ff"
       inkscape:connector-curvature="0"
       d="m 203.12,792.94 c 0,0 -5.49,7.19 2.54,18 8.03,10.81 14.65,20 12,26.77 0,0 -12.11,-20.15 -22,-20.43 -9.89,-0.28 -3.38,-12.22 7.46,-24.34 z"
       transform="translate(-41.9,-21.46)"
       id="path75" />
    <path
       style="opacity:0.1"
       inkscape:connector-curvature="0"
       d="M 203.12,792.94 A 8.83,8.83 0 0 0 202,795.2 c -9.62,11.3 -14.75,21.85 -5.5,22.11 8.62,0.25 18.95,15.65 21.42,19.54 a 7.11,7.11 0 0 1 -0.29,0.89 c 0,0 -12.11,-20.15 -22,-20.43 -9.89,-0.28 -3.35,-12.25 7.49,-24.37 z"
       transform="translate(-41.9,-21.46)"
       id="path77" />
    <path
       style="fill:#ffd037"
       inkscape:connector-curvature="0"
       d="m 192.91,802.1 c 0,2.53 0.28,4.58 0.63,4.58 0.35,0 0.64,-2 0.64,-4.58 0,-2.58 -0.36,-1.34 -0.71,-1.34 -0.35,0 -0.56,-1.19 -0.56,1.34 z"
       transform="translate(-41.9,-21.46)"
       id="path79" />
    <path
       style="fill:#ffd037"
       inkscape:connector-curvature="0"
       d="m 189.41,805.12 c 2.22,1.21 4.15,1.94 4.32,1.63 0.17,-0.31 -1.5,-1.54 -3.72,-2.75 -2.22,-1.21 -1.34,-0.33 -1.51,0 -0.17,0.33 -1.31,-0.09 0.91,1.12 z"
       transform="translate(-41.9,-21.46)"
       id="path81" />
    <path
       style="fill:#a8a8a8"
       inkscape:connector-curvature="0"
       d="m 194.66,836.8 c 0,0 15.36,-0.48 20,-3.77 4.64,-3.29 23.62,-7.24 24.77,-1.95 1.15,5.29 23.08,26.29 5.74,26.43 -17.34,0.14 -40.29,-2.7 -44.91,-5.51 -4.62,-2.81 -5.6,-15.2 -5.6,-15.2 z"
       transform="translate(-41.9,-21.46)"
       id="path83" />
    <path
       style="opacity:0.2"
       inkscape:connector-curvature="0"
       d="m 245.47,855.67 c -17.34,0.14 -40.29,-2.7 -44.91,-5.51 -3.52,-2.15 -4.92,-9.84 -5.39,-13.38 h -0.51 c 0,0 1,12.38 5.59,15.2 4.59,2.82 27.57,5.65 44.91,5.51 5,0 6.74,-1.82 6.64,-4.46 -0.69,1.62 -2.6,2.61 -6.33,2.64 z"
       transform="translate(-41.9,-21.46)"
       id="path85" />
    <path
       style="fill:#6c63ff"
       inkscape:connector-curvature="0"
       d="m 707.6,836.21 c 0,0 -42.28,-2.55 -37.29,27.08 0,0 -1,5.23 3.75,7.61 0,0 0.08,-2.19 4.34,-1.45 a 19.36,19.36 0 0 0 4.59,0.22 9.5,9.5 0 0 0 5.62,-2.32 v 0 c 0,0 11.88,-4.9 16.5,-24.33 0,0 3.42,-4.24 3.29,-5.33 l -7.14,3 c 0,0 2.44,5.15 0.52,9.43 0,0 -0.23,-9.24 -1.6,-9 -0.28,0 -3.71,1.78 -3.71,1.78 0,0 4.2,9 1,15.48 0,0 1.2,-11 -2.34,-14.83 l -5,2.93 c 0,0 4.9,9.26 1.58,16.82 0,0 0.85,-11.59 -2.63,-16.11 l -4.55,3.55 c 0,0 4.6,9.13 1.79,15.4 0,0 -0.36,-13.49 -2.78,-14.51 0,0 -4,3.51 -4.59,5 0,0 3.15,6.62 1.2,10.12 0,0 -1.2,-9 -2.19,-9 0,0 -4,6 -4.38,10 0,0 0.18,-6.07 3.42,-10.61 a 11.94,11.94 0 0 0 -6.07,3.15 c 0,0 0.62,-4.21 7,-4.58 0,0 3.28,-4.52 4.16,-4.79 0,0 -6.4,-0.54 -10.28,1.18 0,0 3.41,-4 11.45,-2.17 l 4.49,-3.66 c 0,0 -8.42,-1.16 -12,0.12 0,0 4.12,-3.52 13.21,-1 l 4.9,-2.92 c 0,0 -7.19,-1.55 -11.47,-1 0,0 4.52,-2.44 12.9,0.2 l 3.5,-1.57 c 0,0 -5.27,-1 -6.81,-1.19 -1.54,-0.19 -1.62,-0.59 -1.62,-0.59 a 18.26,18.26 0 0 1 9.89,1.1 c 0,0 7.48,-2.74 7.35,-3.21 z"
       transform="translate(-41.9,-21.46)"
       id="path87" />
    <ellipse
       style="opacity:0.1;fill:#6c63ff"
       cx="636.58002"
       cy="852.02002"
       rx="29.92"
       ry="5.0599999"
       id="ellipse89" />
    <path
       style="fill:#6c63ff"
       inkscape:connector-curvature="0"
       d="m 633.53,837.79 c 0,0 -23.84,-1.44 -21,15.27 a 4.08,4.08 0 0 0 2.12,4.29 c 0,0 0,-1.24 2.45,-0.82 a 11.67,11.67 0 0 0 2.58,0.13 5.47,5.47 0 0 0 3.17,-1.31 v 0 c 0,0 6.7,-2.77 9.31,-13.72 0,0 1.92,-2.39 1.85,-3 l -4,1.71 c 0,0 1.37,2.91 0.29,5.32 0,0 -0.13,-5.21 -0.9,-5.09 -0.16,0 -2.09,1 -2.09,1 0,0 2.36,5 0.58,8.73 0,0 0.67,-6.23 -1.32,-8.37 l -2.83,1.66 c 0,0 2.76,5.22 0.89,9.48 0,0 0.48,-6.54 -1.49,-9.08 l -2.56,2 c 0,0 2.59,5.15 1,8.68 0,0 -0.21,-7.61 -1.57,-8.18 a 15.64,15.64 0 0 0 -2.59,2.79 c 0,0 1.78,3.74 0.68,5.71 0,0 -0.68,-5.07 -1.23,-5.09 0,0 -2.24,3.36 -2.47,5.66 a 12.15,12.15 0 0 1 1.92,-6 6.72,6.72 0 0 0 -3.42,1.77 c 0,0 0.35,-2.38 4,-2.58 0,0 1.84,-2.55 2.34,-2.7 0,0 -3.61,-0.31 -5.8,0.66 0,0 1.93,-2.24 6.46,-1.22 l 2.53,-2.07 c 0,0 -4.75,-0.65 -6.76,0.07 0,0 2.32,-2 7.45,-0.54 l 2.75,-1.64 a 24.71,24.71 0 0 0 -6.46,-0.56 c 0,0 2.55,-1.37 7.27,0.11 l 2,-0.88 c 0,0 -3,-0.59 -3.83,-0.68 -0.83,-0.09 -0.92,-0.33 -0.92,-0.33 a 10.32,10.32 0 0 1 5.58,0.62 c 0,0 4.09,-1.53 4.02,-1.8 z"
       transform="translate(-41.9,-21.46)"
       id="path91" />
    <ellipse
       style="opacity:0.1;fill:#6c63ff"
       cx="575.21002"
       cy="837.34998"
       rx="16.870001"
       ry="2.8499999"
       id="ellipse93" />
    <path
       style="fill:#6c63ff"
       inkscape:connector-curvature="0"
       d="m 678.9,802.38 c 0,0 -28.77,-1.74 -25.38,18.43 a 4.92,4.92 0 0 0 2.56,5.18 c 0,0 0,-1.49 2.95,-1 a 14.19,14.19 0 0 0 3.12,0.15 6.59,6.59 0 0 0 3.83,-1.58 v 0 c 0,0 8.09,-3.34 11.23,-16.57 0,0 2.33,-2.88 2.24,-3.62 l -4.86,2.07 c 0,0 1.66,3.51 0.36,6.42 0,0 -0.16,-6.29 -1.1,-6.14 -0.18,0 -2.52,1.21 -2.52,1.21 0,0 2.86,6.11 0.7,10.54 0,0 0.82,-7.52 -1.59,-10.1 l -3.42,2 c 0,0 3.34,6.3 1.08,11.45 0,0 0.58,-7.89 -1.8,-11 l -3.1,2.41 c 0,0 3.14,6.21 1.23,10.48 0,0 -0.25,-9.18 -1.9,-9.88 0,0 -2.71,2.39 -3.12,3.37 0,0 2.15,4.51 0.81,6.89 0,0 -0.81,-6.11 -1.48,-6.14 0,0 -2.7,4 -3,6.83 a 14.71,14.71 0 0 1 2.32,-7.22 8.13,8.13 0 0 0 -4.13,2.14 c 0,0 0.42,-2.87 4.8,-3.12 0,0 2.23,-3.07 2.83,-3.26 0,0 -4.36,-0.36 -7,0.81 0,0 2.32,-2.71 7.8,-1.48 l 3.06,-2.49 c 0,0 -5.74,-0.79 -8.17,0.08 0,0 2.8,-2.39 9,-0.65 l 3.33,-2 c 0,0 -4.89,-1 -7.8,-0.67 0,0 3.07,-1.66 8.78,0.13 l 2.38,-1.06 c 0,0 -3.59,-0.71 -4.64,-0.82 -1.05,-0.11 -1.1,-0.4 -1.1,-0.4 a 12.43,12.43 0 0 1 6.73,0.75 c 0,0 5.07,-1.82 4.97,-2.14 z"
       transform="translate(-41.9,-21.46)"
       id="path95" />
    <ellipse
       style="opacity:0.1;fill:#6c63ff"
       cx="617.19"
       cy="806.28998"
       rx="20.370001"
       ry="3.4400001"
       id="ellipse97" />
  </g>
  <path
     style="fill:url(#a7aacfe1-33f0-4fa2-a43d-b0dbbe7da94f-3-2);stroke-width:1.64129949"
     id="path221"
     d="m 471.05388,716.78023 c 0.96846,-4.13569 1.64145,-7.76262 1.64145,-7.76262 a 15.971345,15.968343 0 0 1 1.78919,-7.8775 v -1.11597 0 -8.32061 a 27.773397,27.768177 0 0 0 -2.08465,-4.34904 c -1.51013,-2.60942 0,-12.1937 0,-12.1937 0,0 5.54812,-13.49022 4.18571,-22.04058 -1.36241,-8.55037 11.35886,-38.09098 11.35886,-38.09098 a 36.89988,36.892944 0 0 0 -1.21468,-8.40267 7.2223965,7.2210389 0 0 1 -0.14773,-1.77243 c 0,0 0,-0.1313 0,-0.21335 v 0 c 0.18056,-5.64554 4.64532,-16.21452 4.64532,-16.21452 l -0.59093,-20.16967 c 0,0 -2.85613,-11.89831 1.8056,-27.89947 1.64146,-5.56348 2.65916,-10.0274 3.28291,-13.45739 0,-0.39388 0.14773,-0.77134 0.21339,-1.13239 -9.56968,-1.46062 -16.87414,-2.67507 -16.87414,-2.67507 0,0 5.54811,-23.20579 9.29062,-27.27583 3.74252,-4.07004 6.74638,-16.82174 6.74638,-16.82174 0,0 1.95333,-16.41145 -1.19826,-21.18719 -3.15159,-4.77574 -3.59479,-13.12917 -3.59479,-13.12917 0,0 -7.20598,-5.21884 -8.10878,-7.53285 a 39.066599,39.059256 0 0 1 -2.39652,-10.30639 c 0,-2.75713 0.9028,-5.21885 0.60734,-6.67947 -0.29546,-1.46062 2.10106,-6.95845 0.9028,-9.56787 a 7.1895674,7.188216 0 0 1 -0.49244,-2.52737 v 0.18053 a 35.159939,35.15333 0 0 1 0.64017,-6.81075 19.205009,19.201399 0 0 1 7.10749,-3.80746 l 0.16415,-0.62363 0.41036,-1.64115 a 8.0759524,8.0744344 0 0 1 0.70583,-0.4267 v -0.59081 -2.34684 l -1.13261,-5.3009 c -2.19954,-9.20682 10.07853,-10.58538 10.07853,-10.58538 a 6.4673277,6.4661121 0 0 1 3.4963,-3.05253 c 2.47859,-0.86981 0.41036,13.85126 -0.75507,14.7703 a 55.431893,55.421474 0 0 0 -4.92436,7.58209 v 0 l -0.21339,0.37747 a 5.5973573,5.5963051 0 0 1 0.55809,0.5744 l -0.45961,3.28229 v 0.49234 a 13.541993,13.539448 0 0 1 1.95333,3.28229 7.1567383,7.1553931 0 0 0 -1.8056,5.21884 16.414537,16.411452 0 0 1 -0.73865,6.38406 c 0.13132,-0.1477 1.72353,-1.87091 3.28291,-1.44421 1.55938,0.4267 5.9913,1.73962 5.9913,1.73962 0,0 3.28291,0.5744 3.00386,1.31291 -0.27904,0.73852 2.2488,3.90593 2.2488,3.90593 l 8.86385,-8.38625 c 0.0821,-0.26259 0.18056,-0.50876 0.24621,-0.77134 a 19.17218,19.168576 0 0 0 0.77149,-3.67617 19.467641,19.463982 0 0 1 -2.8233,-0.90263 5.8928189,5.8917113 0 0 1 -2.46218,-1.64114 9.5532608,9.5514651 0 0 1 -1.42807,-3.80746 53.265174,53.255162 0 0 0 -3.28291,-7.33592 23.866737,23.862251 0 0 1 -1.77277,-13.12916 8.6504612,8.6488352 0 0 1 1.36241,-3.85669 c 1.44448,-2.0022 4.07081,-2.80636 5.97489,-4.39827 1.90409,-1.59191 3.15159,-4.0044 5.36756,-5.20243 a 10.669449,10.667444 0 0 1 6.72996,-0.5744 35.882179,35.875434 0 0 1 12.55712,4.56238 6.352426,6.3512319 0 0 0 4.20212,1.37856 5.6466009,5.6455395 0 0 0 3.03669,-2.21554 v -0.13129 l 0.0985,-0.11488 a 15.708712,15.70576 0 0 1 1.37882,6.56458 c 0,0.36105 0,0.7221 0,1.06674 a 2.9382022,2.9376499 0 0 0 0,0.37746 1.7891846,1.7888483 0 0 0 0,0.29541 v 0 a 1.4773084,1.4770307 0 0 0 0,0.45952 3.2829075,3.2822904 0 0 0 0.83714,1.19804 7.238811,7.2374503 0 0 1 0.72224,0.98468 c 0,-0.11488 -0.0821,-0.24617 -0.13132,-0.36105 a 5.1377502,5.1367845 0 0 1 0.91922,2.78995 2.7904714,2.7899468 0 0 1 -0.65659,2.0022 10.948496,10.946439 0 0 1 -1.44447,1.16521 17.662042,17.658722 0 0 1 0.26263,2.95406 17.186021,17.18279 0 0 1 -8.355,14.6226 l -0.29546,0.75493 a 21.027022,21.02307 0 0 0 -1.64146,9.66635 c 0,0.22976 0,0.45952 0.0985,0.70569 l 0.32829,0.36105 v 0 c 0,0 14.62535,0.1477 18.05599,-2.97047 3.43064,-3.11818 8.69971,7.61491 8.69971,7.61491 0,0 5.23624,1.01751 6.28677,0 1.05053,-1.01751 7.20599,-0.1477 7.20599,-0.1477 a 13.13163,13.129162 0 0 1 9.14289,-3.28229 26.821354,26.816313 0 0 1 6.71355,-3.7254 v 0 h 0.16415 v 0 a 7.3701273,7.368742 0 0 1 3.2829,-0.41029 c 0,0 7.18957,-5.95735 9.29063,-9.14118 2.10106,-3.18382 12.09751,-15.03289 12.14676,-15.09853 v -0.55799 l 0.1149,-1.73962 a 5.6301863,5.629128 0 0 0 0.9028,0 c 0,-0.16411 0.1149,-0.37746 0.19697,-0.59081 a 33.223024,33.216779 0 0 1 2.11748,-4.92343 c 0,0 0,-2.18273 -0.62375,-2.7243 -0.62376,-0.54158 0.26263,-8.53396 0.26263,-8.53396 0,0 6.56581,-15.14777 12.29449,-3.84028 0,0 10.98132,7.31951 1.75635,15.85346 0,0 -3.67685,1.77244 -4.20212,3.18383 -0.32829,0.91904 -1.64145,3.47922 -2.42935,5.18601 l -0.36112,0.75493 h 0.0985 l -0.13132,1.4278 v 0.55799 c 1.73994,0.98468 2.92179,1.95296 2.62633,2.70789 a 17.005461,17.002264 0 0 0 -1.05053,3.90592 c 0,0 -12.73768,15.96834 -14.37914,22.7791 0,0 -34.19148,20.31737 -45.43544,21.76158 l 1.95333,10.15869 c 0,0 0.59093,6.08865 0.4432,8.20574 -0.14774,2.11707 1.34599,12.046 1.34599,12.046 0,0 1.95333,14.50773 3.6112,16.54275 1.65786,2.03502 1.34599,10.73309 1.34599,10.73309 a 72.223965,72.210389 0 0 0 2.24879,12.325 31.565155,31.559222 0 0 1 0.44319,12.34141 c 0,0 5.69585,13.0471 -7.94463,4.20133 0,0 -6.69715,-0.41029 -14.41198,-0.67287 0,0.24617 0,0.50876 0,0.77134 0,0.98469 0,2.06784 0,3.20023 0.0985,7.46721 0.14773,17.77361 -0.19697,25.56904 -0.59093,13.78562 -4.79305,41.02863 -4.79305,41.02863 v 13.70357 a 18.236551,18.233123 0 0 1 0.39395,3.92233 25.458948,25.454162 0 0 1 -3.69327,13.71998 l -1.05053,9.14118 a 35.816521,35.809788 0 0 0 -2.51142,9.61711 4.6453141,4.6444409 0 0 0 0.1149,0.8698 6.565815,6.5645808 0 0 1 0.1149,1.39498 c 0.13132,4.1521 -2.36369,14.08102 -2.36369,14.08102 0,0 -0.14773,10.01099 -1.64146,10.6018 -1.49372,0.59081 1.64146,5.76042 2.60991,7.27028 a 1.3952357,1.3949734 0 0 0 0,-0.279 l 0.18056,0.29541 a 6.9761784,6.9748671 0 0 1 0.45961,2.54377 3.6276128,3.6269309 0 0 1 -1.64145,3.51205 c -2.85613,1.73962 -4.38268,3.18382 -1.96975,3.77464 a 22.405844,22.401632 0 0 1 2.64274,0.55799 2.9546167,2.9540614 0 0 0 0.13132,-0.34464 1.6414537,1.6411452 0 0 1 0.98487,1.75602 7.4850291,7.4836221 0 0 1 -0.88638,3.39717 35.84935,35.842611 0 0 1 -4.07081,7.40157 l -1.14902,-0.1313 a 6.0569643,6.0558258 0 0 0 0.673,1.23086 4.7438013,4.7429096 0 0 0 1.64145,1.50986 5.4496264,5.4486021 0 0 0 2.05182,0.70569 5.7779172,5.7768311 0 0 1 4.25137,2.06784 c 1.49372,1.92014 2.42935,4.56239 -0.52527,6.8764 l -10.71869,3.69258 c 0,0 -18.44994,2.39607 -17.46507,-1.73962 0.98487,-4.13568 1.64145,-7.76261 1.64145,-7.76261 a 16.299636,16.296572 0 0 1 1.49373,-7.33592 c 0.19697,-0.36105 0.41036,-0.72211 0.65658,-1.08316 h -0.65658 c 0,0 -1.346,-9.14118 -3.15159,-10.88079 -0.41037,-0.41029 -0.50886,-0.70569 -0.41037,-0.95186 -0.18056,-0.49235 0.27905,-0.78775 0.88639,-0.95187 a 2.3472789,2.3468376 0 0 1 0.13131,0.36105 8.978752,8.9770643 0 0 1 1.78919,-0.19693 c 0,0 0.60734,-4.79215 -1.34599,-6.56459 a 1.8876718,1.887317 0 0 1 -0.37754,-1.42779 8.0431233,8.0416115 0 0 1 0.19698,-1.93655 l 0.0821,0.0985 a 71.255507,71.242113 0 0 1 4.30061,-11.24185 c 0,0 0.14773,-4.34903 -1.05053,-6.08865 -1.19826,-1.73961 0.14773,-23.6489 0.14773,-23.6489 0,0 -0.44319,-10.6018 0.9028,-15.52523 1.34599,-4.92344 -1.64146,-10.73309 -1.64146,-10.73309 v -0.32823 0 c 0,0 0,-0.65646 0.18056,-1.64115 v 0.0985 c 0.29547,-2.80636 0.86997,-7.8775 1.29675,-10.22433 0.59093,-3.28229 -0.14773,-19.29987 -0.14773,-19.29987 l -2.47859,-6.66305 -4.79305,11.7506 -5.05568,15.65652 a 13.328604,13.326099 0 0 0 -2.62632,6.67947 c 0,0.16411 0,0.32822 0,0.49234 0,0.16411 0,0.7221 0,1.05033 a 9.3891154,9.3873506 0 0 1 -1.64146,5.5799 c 0,0 -1.34599,7.40156 -3.44705,9.28888 a 8.3714141,8.3698405 0 0 0 -2.10106,5.51425 c 0,0 -2.54425,10.73308 -3.75893,12.6204 -1.00129,1.64115 -1.05053,5.95736 -1.05053,7.3031 v 0 c 0,0.24617 0,0.39387 0,0.39387 0,0 -0.36112,3.84028 -0.3447,7.05693 0,0.39387 0,0.78775 0,1.1488 v -0.0821 a 11.063398,11.061319 0 0 0 0.31187,2.60942 v 0.14771 -0.54158 a 27.707739,27.702531 0 0 1 0.77148,6.69587 c 0,3.85669 -0.52526,8.41907 -2.85612,11.11055 -4.0544,4.64444 -6.56582,4.05363 -6.56582,4.05363 0,0 1.95333,5.80966 4.34985,6.97487 a 1.0669449,1.0667444 0 0 1 0.24622,0.16411 2.5442533,2.5437751 0 0 0 0,-0.34464 2.8561295,2.8555927 0 0 1 0.70583,2.16631 15.560981,15.558057 0 0 1 -2.97104,8.59961 4.7602159,4.7593211 0 0 1 -2.0354,1.18162 l 0.37754,0.22976 a 9.0279956,9.0262986 0 0 0 0.83714,0.39388 4.6781432,4.6772638 0 0 0 1.21467,0.32822 5.7286736,5.7275968 0 0 1 4.25137,2.05144 c 1.49372,1.93655 2.42935,4.56238 -0.52527,6.87639 l -10.71869,3.70899 c 0,0 -18.18731,2.37966 -17.21885,-1.73961 z"
     inkscape:connector-curvature="0" />
  <path
     style="fill:#3f3d56;stroke-width:1.64129949"
     id="path223"
     d="m 541.48866,723.60739 10.37399,-3.69257 c 2.87254,-2.31402 1.95333,-4.92344 0.50885,-6.8764 a 5.49887,5.4978364 0 0 0 -4.10364,-2.06785 5.0720921,5.0711387 0 0 1 -1.98615,-0.70569 4.5796559,4.5787951 0 0 1 -1.64146,-1.50985 7.665589,7.6641481 0 0 1 -1.19826,-4.0044 c 0,0 -11.39169,-3.28229 -14.51045,0 a 8.7981921,8.7965383 0 0 0 -1.37882,2.01861 16.956217,16.95303 0 0 0 -1.44448,7.33592 c 0,0 -0.57451,3.62693 -1.52655,7.76262 -0.95205,4.13568 16.90697,1.73961 16.90697,1.73961 z"
     inkscape:connector-curvature="0" />
  <path
     style="fill:#3f3d56;stroke-width:1.64129949"
     id="path225"
     d="m 490.70208,718.50343 10.37399,-3.70899 c 2.85613,-2.31401 1.95333,-4.92343 0.50885,-6.8764 a 5.49887,5.4978364 0 0 0 -4.10363,-2.05143 4.4319251,4.431092 0 0 1 -1.19827,-0.32823 7.025422,7.0241015 0 0 1 -0.78789,-0.39387 c -2.90538,-1.64115 -2.83972,-5.51425 -2.83972,-5.51425 0,0 -11.39169,-3.28229 -14.51045,0 a 8.8966793,8.895007 0 0 0 -1.08336,1.49344 16.414537,16.411452 0 0 0 -1.73994,7.8775 c 0,0 -0.59092,3.62693 -1.52655,7.76262 -0.93563,4.13568 16.90697,1.73961 16.90697,1.73961 z"
     inkscape:connector-curvature="0" />
  <path
     style="fill:#65617d;stroke-width:1.64129949"
     id="path227"
     d="m 475.0262,687.33808 a 29.874458,29.868843 0 0 1 2.0354,4.34904 v 11.48801 c 2.90537,4.77574 18.05599,3.18383 20.02574,0.57441 1.96974,-2.60943 4.20212,-9.43659 1.88767,-10.58539 -2.31445,-1.1488 -4.21854,-6.97487 -4.21854,-6.97487 0,0 2.4786,0.59081 6.38526,-4.05363 3.90666,-4.64444 2.75764,-14.95083 2.0354,-17.41255 -0.72224,-2.46172 0,-10.73309 0,-10.73309 0,0 -0.14773,-5.80965 1.0177,-7.69697 1.16543,-1.88732 3.62761,-12.6204 3.62761,-12.6204 a 8.5355595,8.5339551 0 0 1 2.03541,-5.51425 c 2.0354,-1.88732 3.2829,-9.28888 3.2829,-9.28888 a 9.4876026,9.4858193 0 0 0 1.44448,-6.23636 c -0.42677,-3.62693 2.4786,-7.53285 2.4786,-7.53285 l 4.92436,-15.67294 4.64531,-11.7506 2.60992,6.81075 c 0,0 0.73865,15.96835 0.14773,19.29987 -0.59093,3.33153 -1.44448,12.19371 -1.44448,12.19371 0,0 2.90537,5.79324 1.64145,10.73309 -1.26392,4.93985 -0.86997,15.52523 -0.86997,15.52523 0,0 -1.31316,21.90929 -0.14773,23.64891 1.16543,1.73961 1.0177,6.08864 1.0177,6.08864 0,0 -5.94206,12.76811 -4.05439,14.50773 1.88767,1.73961 1.29675,6.56458 1.29675,6.56458 0,0 -4.05439,0 -2.31445,1.73961 1.73994,1.73962 3.03669,10.8808 3.03669,10.8808 l 17.54714,2.03502 a 36.932709,36.925767 0 0 0 3.93949,-7.40157 c 2.31445,-5.36654 -0.44319,-4.79214 -2.77406,-5.36654 -2.33086,-0.57441 -0.85355,-2.03502 1.90409,-3.77464 2.75764,-1.73961 1.14902,-5.66195 1.14902,-5.66195 0,0 -4.20213,-7.10616 -2.75765,-7.68056 1.44448,-0.5744 1.64146,-10.6018 1.64146,-10.6018 0,0 2.88896,-11.8983 2.16672,-15.08212 -0.72224,-3.18382 2.33086,-10.88079 2.33086,-10.88079 l 1.0177,-9.14118 a 25.147071,25.142345 0 0 0 3.16801,-17.31408 v -14.08103 c 0,0 4.0708,-27.27583 4.64531,-41.02863 0.37754,-8.82936 0.26263,-20.87537 0.14773,-28.39181 0,-4.21775 -0.14773,-7.00769 -0.14773,-7.00769 l -62.68712,-6.56458 a 51.656549,51.64684 0 0 1 -1.1326,9.30529 c -0.64017,3.4464 -1.64145,7.89391 -3.28291,13.4738 a 61.176981,61.165482 0 0 0 -1.73994,27.89947 l 0.57451,20.16967 c 0,0 -5.51528,13.49022 -4.34985,18.0526 a 38.984526,38.977199 0 0 1 1.14902,8.41908 c 0,0 -12.32732,29.44214 -11.01416,38.00892 1.31316,8.56678 -4.0708,22.05699 -4.0708,22.05699 0,0 -1.39524,9.61711 0.0492,12.22653 z"
     inkscape:connector-curvature="0" />
  <g
     style="opacity:0.05"
     transform="matrix(1.6414537,0,0,1.6411452,-417.74401,-509.20451)"
     id="g247">
    <path
       id="path229"
       transform="translate(-16.24,-72.97)"
       d="m 604.33,802 a 2.06,2.06 0 0 0 0.95,-1.51 l 0.11,0.18 c 0,0 1,2.39 -0.71,3.45 l -0.54,0.36 c -0.31,-0.06 -0.65,-0.1 -1,-0.18 -1.39,-0.3 -0.49,-1.24 1.19,-2.3 z"
       inkscape:connector-curvature="0" />
    <path
       id="path231"
       transform="translate(-16.24,-72.97)"
       d="m 590.89,801.29 c -0.28,-0.26 -0.27,-0.94 -0.1,-1.81 a 4.81,4.81 0 0 1 0.59,2.56 2.17,2.17 0 0 0 -0.49,-0.75 z"
       inkscape:connector-curvature="0" />
    <path
       id="path233"
       transform="translate(-16.24,-72.97)"
       d="m 592.5,757.31 a 12,12 0 0 1 0.7,3.25 12.43,12.43 0 0 0 -0.81,-2.23 c 0,0 0.04,-0.4 0.11,-1.02 z"
       inkscape:connector-curvature="0" />
    <path
       id="path235"
       transform="translate(-16.24,-72.97)"
       d="m 568.61,752.67 a 4.57,4.57 0 0 1 -0.09,-1 c 0.13,0.66 0.22,1.28 0.29,1.81 -0.06,-0.24 -0.12,-0.48 -0.2,-0.81 z"
       inkscape:connector-curvature="0" />
    <path
       id="path237"
       transform="translate(-16.24,-72.97)"
       d="m 592.75,788.74 a 5.56,5.56 0 0 1 -0.27,-2 6.61,6.61 0 0 1 0.52,2.48 2.1,2.1 0 0 0 -0.25,-0.48 z"
       inkscape:connector-curvature="0" />
    <path
       id="path239"
       transform="translate(-16.24,-72.97)"
       d="m 604.68,789.54 c 0,0 -0.09,6.1 -1,6.45 v 0 c -0.45,-1 -0.75,-2 -0.35,-2.12 0.88,-0.36 1,-6.46 1,-6.46 0,0 1.77,-7.25 1.33,-9.19 -0.44,-1.94 1.41,-6.63 1.41,-6.63 l 0.62,-5.57 a 15.32,15.32 0 0 0 1.94,-10.52 v -8.58 c 0,0 2.48,-16.62 2.83,-25 0.23,-5.38 0.17,-12.72 0.09,-17.3 0,-0.83 0,-1.56 0,-2.18 h 0.31 c 0,0 0,1.7 0.08,4.27 0.08,4.58 0.14,11.92 -0.08,17.3 -0.36,8.4 -2.83,25 -2.83,25 v 8.57 a 15.36,15.36 0 0 1 -2,10.52 l -0.62,5.57 c 0,0 -1.85,4.69 -1.41,6.63 0.44,1.94 -1.32,9.24 -1.32,9.24 z"
       inkscape:connector-curvature="0" />
    <path
       id="path241"
       transform="translate(-16.24,-72.97)"
       d="m 559.77,799.7 a 16.93,16.93 0 0 1 1.24,2.65 v 1.24 c -0.2,-0.45 -0.49,-1.05 -0.88,-1.77 a 5.29,5.29 0 0 1 -0.39,-2.19 z"
       inkscape:connector-curvature="0" />
    <path
       id="path243"
       transform="translate(-16.24,-72.97)"
       d="m 572.67,801.09 a 15.68,15.68 0 0 1 -0.87,-2.1 c 0,0 1.5,0.36 3.89,-2.47 1.73,-2.06 1.83,-5.95 1.58,-8.49 0.45,1.51 1.16,7.78 -1.23,10.61 -1.56,1.85 -2.74,2.36 -3.37,2.45 z"
       inkscape:connector-curvature="0" />
    <path
       id="path245"
       transform="translate(-16.24,-72.97)"
       d="m 577.28,781.49 a 46.38,46.38 0 0 0 -0.18,5.24 7.72,7.72 0 0 0 -0.18,-0.82 c -0.44,-1.5 0,-6.54 0,-6.54 0,0 -0.08,-3.54 0.62,-4.69 0.7,-1.15 2.21,-7.69 2.21,-7.69 a 5.2,5.2 0 0 1 1.24,-3.36 c 1.24,-1.15 2,-5.65 2,-5.65 a 5.86,5.86 0 0 0 0.89,-3.81 c -0.27,-2.21 1.5,-4.59 1.5,-4.59 l 3,-9.55 2.83,-7.16 1.59,4.15 v 1.35 l -1.2,-3.37 -2.83,7.16 -3,9.55 c 0,0 -1.76,2.39 -1.5,4.6 a 5.78,5.78 0 0 1 -0.88,3.8 c 0,0 -0.8,4.51 -2,5.65 a 5.23,5.23 0 0 0 -1.23,3.36 c 0,0 -1.51,6.55 -2.21,7.7 -0.7,1.15 -0.67,4.67 -0.67,4.67 z"
       inkscape:connector-curvature="0" />
  </g>
  <path
     style="fill:#ffcdd3;stroke-width:1.64129949"
     id="path249"
     d="m 490.99754,386.64745 1.08336,5.3009 v 2.36325 1.73961 l 6.05697,0.62364 0.67299,-1.26369 v 0 a 55.513966,55.503531 0 0 1 4.71098,-7.5985 c 1.11618,-0.93545 3.10234,-15.67293 0.70582,-14.7703 a 6.3688405,6.3676434 0 0 0 -3.36498,3.05253 c 0,0 -12.01544,1.34573 -9.86514,10.55256 z"
     inkscape:connector-curvature="0" />
  <path
     style="opacity:0.1;stroke-width:1.64129949"
     id="path251"
     d="m 491.966,396.05121 6.05697,0.62364 0.67299,-1.26369 v 0 a 5.3183101,5.3173105 0 0 0 -6.68071,-1.09956 z"
     inkscape:connector-curvature="0" />
  <path
     style="fill:#dce6f2;stroke-width:1.64129949"
     id="path253"
     d="m 490.43945,398.9068 7.97746,1.8545 0.18056,-1.18163 0.4432,-3.28229 a 5.4824555,5.481425 0 0 0 -7.73125,-1.05033 l -0.39395,1.64115 z"
     inkscape:connector-curvature="0" />
  <path
     style="fill:#ffcdd3;stroke-width:1.64129949"
     id="path255"
     d="m 619.78601,387.23826 8.51915,4.56239 c 0,0 0.31188,-0.67287 0.77148,-1.64115 0.80431,-1.64115 2.01899,-4.25057 2.34728,-5.16961 0.50885,-1.41138 4.05439,-3.28229 4.05439,-3.28229 8.92951,-8.51754 -1.64145,-15.83705 -1.64145,-15.83705 -5.61377,-11.3239 -11.88413,3.84028 -11.88413,3.84028 0,0 -0.88638,7.97597 -0.26263,8.51754 0.62375,0.54158 0.60734,2.72431 0.60734,2.72431 a 34.470529,34.464049 0 0 0 -2.05182,4.92343 c -0.32829,0.8534 -0.45961,1.36215 -0.45961,1.36215 z"
     inkscape:connector-curvature="0" />
  <path
     style="opacity:0.1;stroke-width:1.64129949"
     id="path257"
     d="m 619.78601,387.23826 8.51915,4.56239 c 0,0 0.31188,-0.67287 0.77148,-1.64115 -1.21467,-1.0011 -5.46604,-4.46392 -6.87769,-4.2998 a 11.030569,11.028496 0 0 1 -2.01899,0 c -0.26263,0.86981 -0.39395,1.37856 -0.39395,1.37856 z"
     inkscape:connector-curvature="0" />
  <path
     style="fill:#dce6f2;stroke-width:1.64129949"
     id="path259"
     d="m 618.89963,389.81486 9.58609,4.71009 0.19697,-2.05144 0.13132,-1.42779 c 0,0 -5.54811,-4.75932 -7.18957,-4.5788 a 8.7981921,8.7965383 0 0 1 -2.49501,0 l -0.1149,1.64115 z"
     inkscape:connector-curvature="0" />
  <path
     style="fill:#ffcdd3;stroke-width:1.64129949"
     id="path261"
     d="m 514.2077,421.8336 c 0,0 41.75858,4.71009 33.96168,2.18273 -5.43321,-1.77244 -7.59993,-5.21885 -8.04313,-9.05913 a 21.683604,21.679528 0 0 1 1.54297,-9.66634 41.889899,41.882026 0 0 1 3.74252,-7.53286 c 0,0 -31.92628,-17.56025 -25.54102,-1.64114 a 25.376875,25.372105 0 0 1 1.80559,7.54926 20.994193,20.990247 0 0 1 -0.82072,7.66415 22.783378,22.779095 0 0 1 -6.64789,10.50333 z"
     inkscape:connector-curvature="0" />
  <path
     style="opacity:0.1;stroke-width:1.64129949"
     id="path263"
     d="m 519.87072,396.16609 a 25.376875,25.372105 0 0 1 1.80559,7.54927 c 3.00386,2.52736 6.30319,2.36325 10.53814,2.36325 3.2829,0 6.86127,0.78775 9.45477,-0.78775 a 41.889899,41.882026 0 0 1 3.74252,-7.53286 c 0,0 -31.92628,-17.56025 -25.54102,-1.59191 z"
     inkscape:connector-curvature="0" />
  <ellipse
     style="fill:#ffcdd3;stroke-width:1.64129949"
     id="circle265"
     cy="389.91321"
     cx="532.78925"
     rx="17.268095"
     ry="17.264849" />
  <path
     style="opacity:0.1;stroke-width:1.64129949"
     id="path267"
     d="m 514.2077,421.8336 c 0,0 41.75858,4.71009 33.96168,2.18273 -5.43321,-1.77244 -7.59993,-5.21885 -8.04313,-9.05913 -2.08464,-2.24837 -6.27035,-3.8731 -8.94592,-4.74291 a 12.540707,12.538349 0 0 0 -7.5671,-0.11488 10.702278,10.700267 0 0 0 -2.75764,1.2801 22.783378,22.779095 0 0 1 -6.64789,10.45409 z"
     inkscape:connector-curvature="0" />
  <path
     style="opacity:0.1;stroke-width:1.64129949"
     id="path269"
     d="m 490.43945,398.9068 7.97746,1.8545 0.18056,-1.18163 a 7.0418366,7.0405129 0 0 0 -7.682,-2.62583 z"
     inkscape:connector-curvature="0" />
  <path
     style="opacity:0.1;stroke-width:1.64129949"
     id="path271"
     d="m 618.89963,389.81486 9.58609,4.71009 0.19697,-2.05144 a 71.600212,71.586754 0 0 0 -9.66816,-4.28338 z"
     inkscape:connector-curvature="0" />
  <path
     style="opacity:0.1;stroke-width:1.64129949"
     id="path273"
     d="m 497.69468,527.04743 c 16.16831,2.56019 39.1815,5.8753 42.84194,4.75932 3.02027,-0.91904 12.70485,-0.82057 21.12551,-0.52516 0,-4.21775 -0.14773,-7.00769 -0.14773,-7.00769 l -62.68712,-6.56458 a 51.656549,51.64684 0 0 1 -1.1326,9.33811 z"
     inkscape:connector-curvature="0" />
  <path
     style="fill:#ff6484;stroke-width:1.64129949"
     id="path275"
     d="m 481.55918,523.25639 c 0,0 53.24876,9.14117 58.97744,7.40156 5.72867,-1.73961 35.04505,0.13129 35.04505,0.13129 13.2137,8.86219 7.69841,-4.20133 7.69841,-4.20133 a 32.188908,32.182857 0 0 0 -0.44319,-12.325 75.375556,75.361388 0 0 1 -2.16672,-12.34141 c 0,0 0.29546,-8.69807 -1.31316,-10.73309 -1.60863,-2.03502 -3.47988,-16.54275 -3.47988,-16.54275 0,0 -1.44448,-9.84687 -1.29675,-12.046 0.14773,-2.19915 -0.44319,-8.20574 -0.44319,-8.20574 l -1.88768,-10.15869 c 10.88284,-1.46061 43.97455,-21.76158 43.97455,-21.76158 1.64145,-6.82717 13.91953,-22.7791 13.91953,-22.7791 a 16.709999,16.706858 0 0 1 1.0177,-3.92233 c 0.86997,-2.31402 -12.17959,-6.95846 -12.17959,-6.95846 0,0 -9.73382,11.8983 -11.75281,15.08213 -2.01898,3.18382 -8.99516,9.14117 -8.99516,9.14117 a 7.1895674,7.188216 0 0 0 -3.28291,0.41029 h -0.16415 v 0 a 25.934969,25.930094 0 0 0 -6.56581,3.7254 12.639194,12.636818 0 0 0 -8.84744,3.28229 c 0,0 -5.94206,-0.86981 -6.95976,0.1477 -1.0177,1.01751 -6.0898,0 -6.0898,0 0,0 -5.08851,-10.7495 -8.42066,-7.63132 -3.33215,3.11817 -17.43224,3.06894 -17.43224,3.06894 -1.88767,-2.51095 -6.48374,-4.31621 -9.35629,-5.23525 a 12.540707,12.538349 0 0 0 -7.5671,-0.1313 9.651748,9.6499338 0 0 0 -2.98744,1.44421 l -8.60122,8.41908 c 0,0 -2.46218,-3.28229 -2.16672,-3.92234 0.29546,-0.64005 -2.90537,-1.31292 -2.90537,-1.31292 0,0 -4.20213,-1.2965 -5.81075,-1.73961 -1.60862,-0.44311 -3.0531,1.29651 -3.18442,1.44421 a 16.85773,16.854561 0 0 0 0.72224,-6.36765 7.3044692,7.3030962 0 0 1 1.73994,-5.21884 c -5.07209,-12.48911 -16.54585,-2.03502 -16.54585,-2.03502 0,0 -1.29675,6.81076 -0.14773,9.42018 1.14901,2.60942 -1.14902,8.20572 -0.86997,9.58428 0.27904,1.37857 -0.57451,3.92234 -0.57451,6.67947 a 38.886039,38.87873 0 0 0 2.33086,10.28998 c 0.86997,2.33042 7.82973,7.54926 7.82973,7.54926 0,0 0.42678,8.20573 3.47989,13.12917 3.0531,4.92344 1.16543,21.17078 1.16543,21.17078 0,0 -2.90537,12.76811 -6.56582,16.83815 -3.66044,4.07004 -8.89668,27.21019 -8.89668,27.21019 z"
     inkscape:connector-curvature="0" />
  <path
     style="fill:#2d293d;stroke-width:1.64129949"
     id="path277"
     d="m 537.45068,405.56985 a 3.6604418,3.6597538 0 0 1 -1.34599,2.33043 3.4634674,3.4628164 0 0 1 -1.64145,0.36105 c -5.26907,0.32823 -10.75152,0.55799 -15.62664,-1.46062 a 6.1062079,6.1050602 0 0 1 -2.36369,-1.64114 9.5532608,9.5514651 0 0 1 -1.37883,-3.82387 56.630154,56.61951 0 0 0 -3.18442,-7.33592 24.621806,24.617178 0 0 1 -1.72352,-13.12916 9.0936537,9.0919444 0 0 1 1.32958,-3.85669 c 1.39523,-1.98579 3.93948,-2.78995 5.77791,-4.38186 1.83843,-1.59191 3.03669,-4.02081 5.20341,-5.20243 a 9.8487225,9.8468712 0 0 1 6.56582,-0.5744 34.043751,34.037352 0 0 1 12.16317,4.56238 6.1882806,6.1871174 0 0 0 4.0708,1.37856 5.6794299,5.6783624 0 0 0 2.98745,-2.2976 16.020589,16.017577 0 0 1 1.28033,7.53286 3.2829075,3.2822904 0 0 0 0,1.13239 3.2829075,3.2822904 0 0 0 0.80432,1.19803 c 1.29674,1.50986 2.10106,3.88952 0.82072,5.41578 -0.55809,0.65646 -1.41165,1.01751 -1.95333,1.64115 -0.98487,1.21444 -0.65658,2.97047 -0.62375,4.51315 a 2.3308643,2.3304262 0 0 1 -0.39395,1.52626 2.1667189,2.1663117 0 0 1 -2.11747,0.50876 6.0077207,6.0065914 0 0 0 -2.28162,-0.21335 3.8245872,3.8238683 0 0 0 -1.96975,1.52626 26.870598,26.865547 0 0 0 -4.3991,10.28998 z"
     inkscape:connector-curvature="0" />
  <path
     style="opacity:0.1;stroke-width:1.64129949"
     id="path279"
     d="m 540.47096,416.04036 c 0,0 -21.58512,2.85559 -23.52203,-0.39388"
     inkscape:connector-curvature="0" />
  <ellipse
     style="opacity:0.1;fill:#6c63ff;stroke-width:0.81168616"
     cx="518.91644"
     cy="720.1402"
     rx="73.479797"
     ry="14.52"
     id="ellipse63" />
</svg>
