<?xml version="1.0" encoding="UTF-8" standalone="no"?>
<svg
   xmlns:dc="http://purl.org/dc/elements/1.1/"
   xmlns:cc="http://creativecommons.org/ns#"
   xmlns:rdf="http://www.w3.org/1999/02/22-rdf-syntax-ns#"
   xmlns:svg="http://www.w3.org/2000/svg"
   xmlns="http://www.w3.org/2000/svg"
   xmlns:xlink="http://www.w3.org/1999/xlink"
   xmlns:sodipodi="http://sodipodi.sourceforge.net/DTD/sodipodi-0.dtd"
   xmlns:inkscape="http://www.inkscape.org/namespaces/inkscape"
   version="1.1"
   viewBox="0 0 1028 739"
   height="739"
   width="1028"
   data-name="Layer 1"
   id="fb8df35c-97a2-484c-ac16-3c830d03619c"
   sodipodi:docname="design-pricing.svg"
   inkscape:version="0.92.3 (2405546, 2018-03-11)">
  <sodipodi:namedview
     pagecolor="#ffffff"
     bordercolor="#666666"
     borderopacity="1"
     objecttolerance="10"
     gridtolerance="10"
     guidetolerance="10"
     inkscape:pageopacity="0"
     inkscape:pageshadow="2"
     inkscape:window-width="960"
     inkscape:window-height="969"
     id="namedview68"
     showgrid="false"
     inkscape:zoom="0.45162977"
     inkscape:cx="326.51333"
     inkscape:cy="431.67245"
     inkscape:window-x="0"
     inkscape:window-y="27"
     inkscape:window-maximized="0"
     inkscape:current-layer="fb8df35c-97a2-484c-ac16-3c830d03619c" />
  <metadata
     id="metadata177">
    <rdf:RDF>
      <cc:Work
         rdf:about="">
        <dc:format>image/svg+xml</dc:format>
        <dc:type
           rdf:resource="http://purl.org/dc/dcmitype/StillImage" />
        <dc:title>growth analytics</dc:title>
      </cc:Work>
    </rdf:RDF>
  </metadata>
  <defs
     id="defs10">
    <linearGradient
       gradientUnits="userSpaceOnUse"
       gradientTransform="matrix(-1, 0, 0, 1, 421, 0)"
       y2="341.61"
       x2="210.01"
       y1="811.87"
       x1="210.01"
       id="abc71e73-d4d0-48d8-8443-969b5fcd59ae">
      <stop
         id="stop2"
         stop-opacity="0.25"
         stop-color="gray"
         offset="0" />
      <stop
         id="stop4"
         stop-opacity="0.12"
         stop-color="gray"
         offset="0.54" />
      <stop
         id="stop6"
         stop-opacity="0.1"
         stop-color="gray"
         offset="1" />
    </linearGradient>
    <linearGradient
       xlink:href="#abc71e73-d4d0-48d8-8443-969b5fcd59ae"
       gradientTransform="matrix(1, 0, 0, 1, 0, 0)"
       y2="315.5"
       x2="978.5"
       y1="806.5"
       x1="978.5"
       id="bdd0ebe0-6a5f-4260-a4c1-52643e5fb488" />
    <linearGradient
       y2="341.61"
       x2="210.01"
       y1="811.87"
       x1="210.01"
       gradientTransform="translate(693,-80.5)"
       gradientUnits="userSpaceOnUse"
       id="linearGradient179"
       xlink:href="#abc71e73-d4d0-48d8-8443-969b5fcd59ae" />
  </defs>
  <title
     id="title12">growth analytics</title>
  <path
     style="fill:#f2f2f2"
     id="path14"
     d="m 613.41,54.91 15.52,9.85 -9.42,-17.14 a 15.35,15.35 0 0 1 9.38,-3.35 h 0.25 a 18.09,18.09 0 0 0 3.22,-0.23 l 5.26,3.33 -2.25,-4.1 a 18.72,18.72 0 0 0 9.2,-7 l 9.41,6 L 648,31.44 c 5.5,-6.6 12.92,-10.66 21.09,-10.66 9.79,0 18.51,5.83 24.14,14.9 a 18,18 0 0 0 16,8.6 h 0.52 c 10.81,0 19.57,12.26 19.57,27.37 0,15.11 -8.76,27.37 -19.57,27.37 a 14.71,14.71 0 0 1 -6.81,-1.7 c -7.05,-3.67 -16.31,-3.74 -23.69,-0.47 a 24.71,24.71 0 0 1 -20.14,0 28.27,28.27 0 0 0 -23.47,0.45 14.72,14.72 0 0 1 -6.75,1.67 c -10.81,0 -19.57,-12.25 -19.57,-27.37 a 34.77,34.77 0 0 1 4.09,-16.69 z" />
  <path
     style="opacity:0.02999998"
     id="path16"
     d="m 642.66,94.96 a 28.9,28.9 0 0 1 16.77,1.83 24.69,24.69 0 0 0 20.13,0 28.25,28.25 0 0 1 23.69,0.46 14.6,14.6 0 0 0 6.81,1.71 c 9.61,0 17.59,-9.67 19.26,-22.43 a 18.43,18.43 0 0 1 -4.8,-5.18 c -5.63,-9.07 -14.35,-14.89 -24.14,-14.89 -9.79,0 -18.41,5.75 -24,14.73 a 18.52,18.52 0 0 1 -15.95,8.76 h -0.25 c -7.68,-0.05 -14.3,6.08 -17.52,15.01 z" />
  <path
     style="fill:#f2f2f2"
     id="path18"
     d="m 745.87,481.27 6.29,-3.91 c 0.6,-0.37 1.19,-0.77 1.79,-1.15 A 59.86,59.86 0 0 1 747.9,359.59 l -0.31,24.66 13.55,-26.83 h 0.17 a 59.87,59.87 0 0 1 62.58,57 c 0.06,1.15 0,2.27 0,3.4 4.71,-5.38 9,-11.15 11.83,-17.47 5.73,-12.79 5.84,-27.28 5.39,-44.9 -0.9,-34.9 -2.41,-70.08 -4.37,-105.14 a 59.85,59.85 0 0 1 -53.16,-56.64 c -0.08,-1.83 -0.05,-3.63 0,-5.43 0,-0.45 0,-0.89 0.07,-1.34 0.12,-1.74 0.28,-3.46 0.55,-5.16 0,-0.28 0.1,-0.55 0.15,-0.82 0.24,-1.44 0.54,-2.86 0.88,-4.26 0.13,-0.53 0.26,-1.05 0.4,-1.57 0.42,-1.53 0.88,-3 1.42,-4.52 0.18,-0.49 0.39,-1 0.58,-1.46 0.42,-1.09 0.88,-2.17 1.37,-3.23 0.26,-0.56 0.51,-1.12 0.78,-1.67 0.08,-0.14 0.13,-0.29 0.21,-0.43 v 0 a 59.84,59.84 0 0 1 70.28,-30.36 l -0.4,32.1 13.4,-26.52 a 59.57,59.57 0 0 1 28.61,64.5 h 0.06 c -0.09,0.43 -0.22,0.84 -0.32,1.26 -0.19,0.79 -0.39,1.57 -0.61,2.35 -0.28,1 -0.6,2 -0.93,3 -0.25,0.74 -0.49,1.47 -0.77,2.2 -0.41,1.06 -0.87,2.09 -1.33,3.12 -0.27,0.6 -0.51,1.22 -0.8,1.81 q -1.14,2.32 -2.48,4.53 c -0.31,0.52 -0.66,1 -1,1.51 -0.64,1 -1.28,2 -2,2.93 -0.43,0.59 -0.89,1.16 -1.34,1.73 -0.66,0.83 -1.33,1.65 -2,2.44 -0.49,0.57 -1,1.12 -1.51,1.66 -0.74,0.78 -1.49,1.53 -2.27,2.26 -0.52,0.49 -1,1 -1.57,1.46 -0.88,0.79 -1.8,1.53 -2.73,2.26 -0.47,0.37 -0.93,0.75 -1.41,1.11 -1.42,1 -2.88,2 -4.39,3 -0.28,0.17 -0.59,0.31 -0.87,0.48 -1.27,0.74 -2.55,1.45 -3.87,2.09 -0.57,0.28 -1.15,0.53 -1.73,0.79 -1.08,0.48 -2.17,0.95 -3.29,1.38 l -2,0.7 c -1.1,0.37 -2.22,0.72 -3.35,1 -0.66,0.18 -1.33,0.37 -2,0.53 -1.22,0.29 -2.47,0.53 -3.73,0.75 l -0.24,0.05 q 1.23,22.19 2.2,44.39 a 59.83,59.83 0 0 1 83.07,-26 l -10.58,29 21.77,-20.9 a 59.66,59.66 0 0 1 19.34,41.34 58.5,58.5 0 0 1 -1.52,16.49 59.84,59.84 0 0 1 -110.04,16.28 c 0,1.5 0.1,3 0.14,4.51 0.4,15.54 0.9,34.88 -6.85,52.15 -5.25,11.7 -13.69,21.21 -22,29.73 -5.43,5.54 -11.06,10.91 -16.83,16.1 a 60.09,60.09 0 0 1 -21.62,18 c -9.48,7.3 -19.3,14.17 -29.45,20.51 l -6.34,3.94 c -5.7,3.53 -11.54,7.16 -17.26,10.93 1,-0.1 2,-0.21 3,-0.26 a 59.89,59.89 0 0 1 58.94,39 l -37.42,30.39 41.14,-9.54 a 59.89,59.89 0 0 1 -85.82,53.92 l 2.73,3.45 q 2.76,3.43 5.45,6.82 c 24.34,30.83 31.11,60.09 19.06,82.4 l -14.66,-7.91 C 741.63,682.92 724,655.12 712.43,640.5 q -2.64,-3.33 -5.36,-6.7 c -15.55,-19.32 -33.17,-41.22 -32.74,-68.08 0.67,-40.51 39.96,-64.87 71.54,-84.45 z" />
  <path
     style="fill:#f2f2f2"
     id="path20"
     d="m 474.93,437.01 -7.84,-4.88 c -0.75,-0.47 -1.48,-1 -2.23,-1.44 a 74.69,74.69 0 0 0 61.95,-70.11 74,74 0 0 0 -6.45,-34 74.8,74.8 0 0 0 -48,-41.38 l 0.39,30.77 -16.87,-33.47 h -0.2 a 74.7,74.7 0 0 0 -78.09,71.13 c -0.07,1.43 0,2.83 0,4.24 -5.89,-6.71 -11.23,-13.91 -14.76,-21.79 -7.16,-16 -7.3,-34 -6.73,-56 1.12,-43.55 3,-87.43 5.45,-131.17 a 74.66,74.66 0 0 0 66.32,-70.67 c 0.1,-2.28 0.07,-4.53 0,-6.77 q 0,-0.84 -0.09,-1.68 c -0.14,-2.17 -0.35,-4.32 -0.67,-6.43 -0.05,-0.35 -0.13,-0.69 -0.19,-1 q -0.46,-2.7 -1.11,-5.32 c -0.16,-0.65 -0.32,-1.31 -0.49,-2 -0.53,-1.9 -1.1,-3.79 -1.77,-5.63 -0.22,-0.62 -0.48,-1.21 -0.72,-1.82 -0.54,-1.37 -1.11,-2.71 -1.72,-4 -0.32,-0.69 -0.63,-1.39 -1,-2.08 -0.08,-0.17 -0.16,-0.36 -0.25,-0.53 v 0 A 74.6,74.6 0 0 0 332.18,3.11 l 0.5,40 -16.72,-33.08 A 74.27,74.27 0 0 0 280.3,90.5 h -0.08 c 0.11,0.53 0.28,1 0.4,1.57 0.24,1 0.49,2 0.76,2.93 0.35,1.25 0.75,2.47 1.16,3.69 0.31,0.92 0.61,1.84 1,2.75 0.51,1.32 1.08,2.61 1.66,3.89 0.34,0.75 0.64,1.52 1,2.26 1,1.93 2,3.82 3.09,5.65 0.38,0.65 0.82,1.26 1.23,1.89 0.8,1.24 1.61,2.46 2.48,3.65 0.54,0.74 1.11,1.44 1.67,2.16 0.82,1 1.65,2.06 2.53,3.05 q 0.92,1 1.89,2.07 c 0.91,1 1.86,1.9 2.82,2.82 0.65,0.61 1.29,1.23 2,1.82 1.11,1 2.25,1.9 3.42,2.81 0.58,0.46 1.15,0.95 1.75,1.39 1.77,1.3 3.59,2.54 5.48,3.69 0.35,0.21 0.73,0.39 1.09,0.6 q 2.35,1.4 4.82,2.61 c 0.71,0.35 1.44,0.65 2.16,1 1.35,0.61 2.71,1.19 4.1,1.72 0.82,0.31 1.64,0.6 2.46,0.88 1.38,0.47 2.77,0.89 4.18,1.28 0.83,0.23 1.66,0.46 2.51,0.67 1.53,0.36 3.08,0.66 4.65,0.93 l 0.31,0.06 q -1.56,27.69 -2.75,55.39 a 74.62,74.62 0 0 0 -103.64,-32.4 l 13.11,36.17 -27.15,-26.07 a 74.4,74.4 0 0 0 -24.13,51.57 72.94,72.94 0 0 0 1.89,20.5 74.66,74.66 0 0 0 137.32,20.34 c 0,1.87 -0.13,3.76 -0.18,5.63 -0.5,19.39 -1.12,43.52 8.54,65.06 6.55,14.61 17.09,26.46 27.51,37.09 q 10.17,10.38 21,20.09 a 74.94,74.94 0 0 0 27,22.43 c 11.83,9.11 24.08,17.68 36.74,25.6 l 7.9,4.93 c 7.11,4.4 14.39,8.93 21.54,13.63 -1.26,-0.12 -2.5,-0.26 -3.78,-0.32 a 74.72,74.72 0 0 0 -73.53,48.62 l 46.66,38 -51.33,-11.89 a 74.73,74.73 0 0 0 107.08,67.26 c -1.16,1.44 -2.31,2.88 -3.47,4.31 -2.29,2.85 -4.58,5.69 -6.81,8.51 -30.36,38.45 -38.81,75 -23.77,102.8 l 18.28,-9.87 c -14.63,-27.1 7.38,-61.78 21.81,-80 2.19,-2.77 4.43,-5.56 6.68,-8.36 19.4,-24.1 41.39,-51.42 40.85,-84.93 -0.83,-50.61 -49.87,-81 -89.28,-105.42 z" />
  <path
     style="fill:#ffffff;fill-opacity:1;stroke:#000000;stroke-opacity:1;opacity:1;stroke-linejoin:miter;paint-order:markers stroke fill"
     id="path22"
     d="m 149.34,188.21 v 350.58 a 7.21,7.21 0 0 0 7.21,7.21 h 714.59 a 7.2,7.2 0 0 0 7.2,-7.21 V 188.21 A 7.2,7.2 0 0 0 871.14,181 H 156.55 a 7.21,7.21 0 0 0 -7.21,7.21 z" />
  <path
     style="fill:#6c63ff;fill-opacity:1"
     id="path24"
     d="M 149.34,185.81 V 202 h 729 V 185.81 A 4.81,4.81 0 0 0 873.53,181 H 154.15 a 4.81,4.81 0 0 0 -4.81,4.81 z" />
  <circle
     style="fill:#ff748e;fill-opacity:1"
     transform="scale(-1,1)"
     id="circle26"
     r="5"
     cy="191"
     cx="-862.33997" />
  <circle
     style="fill:#6c63ff"
     transform="scale(-1,1)"
     id="circle28"
     r="5"
     cy="191"
     cx="-848.33997" />
  <circle
     style="fill:#28a745;fill-opacity:1"
     transform="scale(-1,1)"
     id="circle30"
     r="5"
     cy="191"
     cx="-834.33997" />
  <path
     style="opacity:0.2;fill:#28a745;fill-opacity:1"
     id="path32"
     d="m 762.17,436.97 v 60.18 l -495.2,0.27 -0.45,-120.3 c 5.23,15.41 18.14,18.18 40.87,-9 55.55,-66.34 131.06,-83.8 189.51,-85.63 40,-1.26 79.91,7 118,23.41 15.82,6.83 78.34,14.18 119.6,17.46 a 29.9,29.9 0 0 1 27.55,29.74 z" />
  <path
     style="opacity:0.2;fill:#28a745;fill-opacity:1"
     id="path34"
     d="m 762.17,378.12 v 119.6 H 266.52 v -26 c 14.17,-3.57 67.17,-17.3 92.58,-55.22 30.4,-45.4 71.72,-57.34 103.69,-58.59 21.91,-0.87 43.72,4.76 64.54,16 23.42,12.64 68.57,27.89 102.87,-16.38 37.94,-48.95 96.22,-8.61 111,6.22 5.28,5.24 20.97,14.37 20.97,14.37 z" />
  <polyline
     style="fill:none;stroke:#6c63ff;stroke-width:2;stroke-miterlimit:10"
     transform="matrix(-1,0,0,1,1028,0)"
     id="polyline36"
     stroke-miterlimit="10"
     points="265.83 251.28 265.83 495.84 761.48 495.84" />
  <line
     style="fill:none;stroke:#6c63ff;stroke-miterlimit:10"
     id="line38"
     stroke-miterlimit="10"
     y2="346.75"
     x2="328.97003"
     y1="495.84"
     x1="328.97003" />
  <line
     style="fill:none;stroke:#6c63ff;stroke-miterlimit:10"
     id="line40"
     stroke-miterlimit="10"
     y2="306.87"
     x2="389.13"
     y1="495.84"
     x1="389.13" />
  <line
     style="fill:none;stroke:#6c63ff;stroke-miterlimit:10"
     id="line42"
     stroke-miterlimit="10"
     y2="287.89999"
     x2="449.28998"
     y1="495.84"
     x1="449.28998" />
  <line
     style="fill:none;stroke:#6c63ff;stroke-miterlimit:10"
     id="line44"
     stroke-miterlimit="10"
     y2="282.01999"
     x2="509.45001"
     y1="495.84"
     x1="509.45001" />
  <line
     style="fill:none;stroke:#6c63ff;stroke-miterlimit:10"
     id="line46"
     stroke-miterlimit="10"
     y2="288.56"
     x2="569.60999"
     y1="495.84"
     x1="569.60999" />
  <line
     style="fill:none;stroke:#6c63ff;stroke-miterlimit:10"
     id="line48"
     stroke-miterlimit="10"
     y2="312.75"
     x2="629.77002"
     y1="495.84"
     x1="629.77002" />
  <line
     style="fill:none;stroke:#6c63ff;stroke-miterlimit:10"
     id="line50"
     stroke-miterlimit="10"
     y2="325.17001"
     x2="689.92999"
     y1="495.84"
     x1="689.92999" />
  <circle
     style="fill:#28a745;fill-opacity:1"
     id="circle52"
     r="11.12"
     cy="344.79001"
     cx="328.64001" />
  <circle
     style="fill:#28a745;fill-opacity:1"
     id="circle54"
     r="11.12"
     cy="306.87"
     cx="388.79999" />
  <circle
     style="fill:#28a745;fill-opacity:1"
     id="circle56"
     r="11.12"
     cy="288.56"
     cx="448.96002" />
  <circle
     style="fill:#28a745;fill-opacity:1"
     id="circle58"
     r="11.12"
     cy="282.01999"
     cx="509.11005" />
  <circle
     style="fill:#28a745;fill-opacity:1"
     id="circle60"
     r="11.12"
     cy="288.56"
     cx="569.27002" />
  <circle
     style="fill:#28a745;fill-opacity:1"
     id="circle62"
     r="11.12"
     cy="313.39999"
     cx="629.42999" />
  <circle
     style="fill:#28a745;fill-opacity:1"
     id="circle64"
     r="11.12"
     cy="326.48001"
     cx="689.59003" />
  <ellipse
     style="fill:#f0efff;fill-opacity:1"
     transform="scale(-1,1)"
     id="ellipse66"
     ry="21"
     rx="514"
     cy="718"
     cx="-514" />
  <path
     style="fill:url(#linearGradient179)"
     id="path68"
     d="m 970.46,352.72 a 4.67,4.67 0 0 0 0.81,2.42 c -4,-0.12 -7.55,-2.75 -11.24,-4 0.66,3.88 0,8.48 -0.5,11.78 a 49.16,49.16 0 0 1 -2.38,9.39 c -2.53,10.87 -7.14,21.56 -11.27,32 a 64.31,64.31 0 0 0 -4,12.87 c -2.81,16.85 6.91,33.15 8.75,50.12 a 9.51,9.51 0 0 1 0,2.82 3.59,3.59 0 0 1 0.44,0.57 c 6.79,10.42 5.91,27.86 4.69,40.2 -1.22,12.34 -5.13,24.24 -8.82,36.09 a 70.67,70.67 0 0 0 -2.57,10 66.43,66.43 0 0 0 -0.28,14 c 1.22,21.71 4.28,43.61 0.67,65 -2.63,15.59 -8.37,29.77 -9,45.56 a 7.67,7.67 0 0 0 -2.2,-3 l -1.08,41.47 a 2.41,2.41 0 0 1 -0.78,2.1 c -0.77,0.49 -1.77,0 -2.68,-0.13 -2.64,-0.32 -4.33,2.55 -6.08,4.54 -2.63,3 -6.68,4.42 -10.65,4.73 a 46.83,46.83 0 0 1 -11.9,-1.08 c -1.83,-0.33 -3.77,-0.71 -5.14,-2 a 6.37,6.37 0 0 1 -1.74,-5.49 c 0.78,-6.11 7.36,-9.59 10.67,-14.8 3.91,-6.16 3,-14.41 6.82,-20.64 1.31,-2.13 3.12,-3.93 4.29,-6.14 a 24.5,24.5 0 0 0 1.39,-4.22 12.27,12.27 0 0 0 -3.34,1.59 c 0.36,-3.24 0.73,-6.49 1.09,-9.74 l 0.16,-1.4 c 0.49,-4.39 1,-8.77 1.36,-13.17 1.23,-14.48 -2.88,-28.67 0,-42.92 0.6,-3 -0.36,-6.13 -1.25,-9.08 a 226.28,226.28 0 0 1 -9.19,-51.66 c -0.36,-6.18 -0.35,-12.14 -2.33,-18 -2.32,9.45 -9.49,16.9 -14,25.57 -2.78,5.4 -4.51,11.3 -7.54,16.56 -1.46,2.56 -3.24,5 -4.17,7.78 -1.44,4.35 -0.68,9.07 0,13.61 3.25,23.5 2.87,47.42 1.83,71.12 a 112.68,112.68 0 0 0 6.21,26.55 c 1.24,3.38 2.59,7.32 0.67,10.37 a 10.69,10.69 0 0 1 -3,2.8 70.6,70.6 0 0 1 -8.94,5.41 4.62,4.62 0 0 1 -3.13,0.72 7.19,7.19 0 0 1 -1.9,-1 c -2.43,-1.46 -5.57,-1.23 -8.25,-0.29 -2.68,0.94 -5.1,2.51 -7.7,3.64 A 26.28,26.28 0 0 1 836,716.56 c -2.42,-0.67 -5,-1.95 -5.75,-4.32 -0.75,-2.37 0.63,-4.87 2.54,-6.43 1.91,-1.56 4.27,-2.4 6.46,-3.54 a 26.52,26.52 0 0 0 11.23,-11.21 52.07,52.07 0 0 0 3.54,-9.87 q 1.74,-6.12 3.47,-12.24 a 17.25,17.25 0 0 0 -1.88,1.43 c -1.63,-20.2 -3.28,-40.46 -7.61,-60.26 -2.07,-9.47 -4.77,-19.06 -3.72,-28.69 0.55,-5.06 2.13,-9.95 3.63,-14.82 q 7,-22.79 12.26,-46.06 a 15.5,15.5 0 0 1 -3,-5 36.85,36.85 0 0 1 -1.83,-10.6 509.92,509.92 0 0 1 0.2,-73 c 0.46,-6.16 1.18,-12.63 3.6,-18.23 h -1.42 c 1.69,0 4.45,-16.78 4.78,-18.65 1.13,-6.48 1.92,-13 3.09,-19.47 0.57,-3.15 1.21,-6.3 2,-9.4 0.54,-2.06 2.7,-14.85 4.42,-16.28 a 2.14,2.14 0 0 1 0.62,-0.36 12.22,12.22 0 0 1 5.31,-6.9 c 2.77,-1.56 6.07,-1.61 9.3,-1.36 q 1.37,-2 2.74,-3.95 a 23.11,23.11 0 0 0 3.79,-7.19 17.58,17.58 0 0 0 0.46,-3.32 c 0,-0.75 0.05,-1.5 0.08,-2.25 0,-0.38 0,-0.75 0,-1.13 a 18.53,18.53 0 0 1 0.24,-2.23 v 0 c 0.1,-0.61 0.25,-1.2 0.41,-1.8 0.07,-0.25 0.16,-0.51 0.24,-0.76 0.46,-1.51 1,-3 1.4,-4.52 1.23,-4.91 0.61,-10.06 0.42,-15.12 -0.19,-5.06 0.14,-10.42 3,-14.64 2.09,-3.1 5.44,-5.45 6.56,-9 0.53,-1.69 0.5,-3.55 1.28,-5.15 a 8.54,8.54 0 0 1 4.56,-3.82 c 2.26,-1 6.8,-2.32 9.23,-1.15 a 3.59,3.59 0 0 1 1.18,0.94 c 2.57,0.13 5.16,0.48 7.42,-0.65 1.74,-0.87 3,-2.52 4.69,-3.47 4,-2.24 9.1,0 12.66,2.92 a 36.5,36.5 0 0 1 11.87,17.88 c 1.58,5.41 2.22,11.73 6.75,15.14 1.88,1.41 4.3,2.19 5.67,4.08 a 10.39,10.39 0 0 1 1.5,5.09 c 0.47,4.1 0.86,8.32 -0.23,12.3 -0.82,3 -2.43,5.68 -3.43,8.6 a 22.65,22.65 0 0 0 6.27,23.67 7.47,7.47 0 0 1 -5.54,0.95 z M 874.3,474.05 a 10.76,10.76 0 0 1 -5.39,-7.17 c -0.11,0.39 -0.2,0.78 -0.3,1.17 a 27.77,27.77 0 0 0 0.75,15.78 56.76,56.76 0 0 1 4.94,-9.78 z m -2,-22.14 a 41.17,41.17 0 0 0 4.2,-7.63 c 1.54,-4.32 1.19,-9 0.82,-13.62 a 64.26,64.26 0 0 0 -1.44,-10.36 220.84,220.84 0 0 1 -3.61,31.61 z" />
  <path
     style="fill:#3f3d56"
     id="path70"
     d="m 911,269.06 a 8.43,8.43 0 0 0 -4.48,3.79 c -0.76,1.59 -0.74,3.44 -1.26,5.12 -1.1,3.54 -4.4,5.88 -6.44,9 -2.78,4.19 -3.11,9.53 -2.92,14.55 0.19,5.02 0.79,10.15 -0.42,15 -0.59,2.37 -1.61,4.64 -2,7.05 -0.5,2.94 -0.08,6 -0.81,8.89 a 22.91,22.91 0 0 1 -3.73,7.14 l -6.51,9.52 a 73.79,73.79 0 0 0 8.57,-2.62 15.33,15.33 0 0 1 -4.64,7 l 4.71,-5.7 a 13.3,13.3 0 0 1 3.5,-3.32 c 1.73,-1 3.77,-1.14 5.71,-1.53 3.74,-0.76 7.47,-2.67 9.3,-6 2.43,-4.48 0.88,-10.1 2.23,-15 1,-3.58 3.46,-6.53 5.16,-9.84 3.84,-7.47 3.61,-16.29 4.81,-24.62 0.51,-3.53 1.3,-7 1.32,-10.62 0,-2.63 -0.26,-7.65 -3,-9 -2.41,-1.12 -6.87,0.24 -9.1,1.19 z" />
  <path
     style="fill:#575a89"
     id="path72"
     d="m 858.58,663.71 -5,17.77 a 51.76,51.76 0 0 1 -3.48,9.81 26.11,26.11 0 0 1 -11,11.15 c -2.15,1.13 -4.48,2 -6.35,3.52 -1.87,1.52 -3.21,4.07 -2.49,6.39 0.72,2.32 3.27,3.63 5.65,4.3 a 25.62,25.62 0 0 0 17,-1.23 c 2.55,-1.13 4.93,-2.69 7.56,-3.62 2.63,-0.93 5.73,-1.17 8.11,0.29 a 7.11,7.11 0 0 0 1.87,1 4.46,4.46 0 0 0 3.08,-0.71 68.68,68.68 0 0 0 8.79,-5.38 10.39,10.39 0 0 0 2.9,-2.78 c 1.9,-3 0.56,-7 -0.65,-10.31 a 113.11,113.11 0 0 1 -6.23,-27.49 2.89,2.89 0 0 0 -0.91,-2.23 2.82,2.82 0 0 0 -1.44,-0.32 l -21.36,-1" />
  <path
     style="fill:#575a89"
     id="path74"
     d="m 913.88,681.5 c -1.15,2.19 -2.94,4 -4.22,6.11 -3.75,6.19 -2.86,14.39 -6.71,20.51 -3.25,5.18 -9.72,8.65 -10.49,14.72 a 6.38,6.38 0 0 0 1.71,5.45 c 1.35,1.25 3.26,1.62 5.06,1.94 a 45.22,45.22 0 0 0 11.69,1.08 c 3.91,-0.31 7.89,-1.75 10.47,-4.71 1.73,-2 3.38,-4.83 6,-4.5 0.9,0.11 1.88,0.61 2.64,0.12 a 2.42,2.42 0 0 0 0.76,-2.08 l 1.18,-45.47 c -3.78,-0.41 -10.33,-1.91 -14,-0.61 -3.16,1.11 -2.65,4.67 -4.09,7.44 z" />
  <path
     style="fill:#3c354c"
     id="path76"
     d="m 876.56,471.31 c -9.22,11.47 -11.95,26.66 -14.91,41.08 q -5.72,27.9 -14.06,55.18 c -1.48,4.84 -3,9.7 -3.57,14.73 -1,9.58 1.62,19.11 3.66,28.52 4.25,19.69 5.87,39.83 7.47,59.91 a 19.14,19.14 0 0 1 23.22,-1.23 c 1.08,-24.21 1.57,-48.67 -1.71,-72.69 -0.62,-4.51 -1.37,-9.2 0,-13.52 0.92,-2.78 2.66,-5.19 4.11,-7.73 3,-5.24 4.68,-11.1 7.41,-16.47 4.39,-8.62 11.44,-16 13.72,-25.42 1.95,5.84 1.94,11.76 2.29,17.9 a 227.33,227.33 0 0 0 9,51.42 c 0.88,2.94 1.82,6 1.23,9 -2.8,14.18 1.24,28.28 0,42.68 -0.36,4.37 -0.85,8.73 -1.33,13.09 l -0.16,1.4 -1.08,9.68 c 4,-2.73 8.23,-2.34 13.06,-2.09 a 14.06,14.06 0 0 1 4.78,0.84 7.79,7.79 0 0 1 4.31,4.31 c 0.58,-15.7 6.23,-29.8 8.81,-45.29 3.55,-21.32 0.55,-43.1 -0.66,-64.68 a 67,67 0 0 1 0.28,-13.95 71.82,71.82 0 0 1 2.53,-10 c 3.62,-11.78 7.47,-23.61 8.67,-35.88 1.2,-12.27 2.06,-29.6 -4.61,-40 -2.06,-3.2 -7.13,-1.76 -10.33,-3.84 a 26.05,26.05 0 0 0 -8.2,-3.36 c -17.49,-4.06 -36.05,4.87 -53.93,6.41 z" />
  <path
     style="fill:#ffc1c7"
     id="path78"
     d="m 908.13,328.97 c -0.39,4.37 -1.31,9.52 -5.29,11.36 -2.26,1 -4.88,0.65 -7.32,1.05 -4.62,0.75 -8.42,4.3 -10.56,8.46 -2.14,4.16 -2.88,8.89 -3.38,13.54 -0.62,5.83 -0.82,12.15 2.38,17.06 2.58,4 7,6.39 11.64,7.62 a 32.45,32.45 0 0 0 27.11,-5 60.77,60.77 0 0 0 10,-9.86 c 6.64,-7.73 13.33,-16.2 14.69,-26.3 0.16,-1.15 0.15,-2.54 -0.79,-3.22 a 3.47,3.47 0 0 0 -2.14,-0.42 l -6.37,0.11 c -1.61,0 -3.43,0 -4.53,-1.21 -1.1,-1.21 -1,-2.75 -1,-4.23 L 933,319.44 a 2.66,2.66 0 0 0 -0.43,-1.87 2.43,2.43 0 0 0 -1.46,-0.63 c -3.51,-0.59 -7.18,0 -10.61,-0.95 -3.27,-0.9 -8.4,-4.65 -10.8,-0.8 -2,3.31 -1.24,10.05 -1.57,13.78 z" />
  <path
     style="opacity:0.1"
     id="path80"
     d="m 908.13,328.97 c -0.39,4.37 -1.31,9.52 -5.29,11.36 -2.26,1 -4.88,0.65 -7.32,1.05 -4.62,0.75 -8.42,4.3 -10.56,8.46 -2.14,4.16 -2.88,8.89 -3.38,13.54 -0.62,5.83 -0.82,12.15 2.38,17.06 2.58,4 7,6.39 11.64,7.62 a 32.45,32.45 0 0 0 27.11,-5 60.77,60.77 0 0 0 10,-9.86 c 6.64,-7.73 13.33,-16.2 14.69,-26.3 0.16,-1.15 0.15,-2.54 -0.79,-3.22 a 3.47,3.47 0 0 0 -2.14,-0.42 l -6.37,0.11 c -1.61,0 -3.43,0 -4.53,-1.21 -1.1,-1.21 -1,-2.75 -1,-4.23 L 933,319.44 a 2.66,2.66 0 0 0 -0.43,-1.87 2.43,2.43 0 0 0 -1.46,-0.63 c -3.51,-0.59 -7.18,0 -10.61,-0.95 -3.27,-0.9 -8.4,-4.65 -10.8,-0.8 -2,3.31 -1.24,10.05 -1.57,13.78 z" />
  <circle
     style="fill:#ffc1c7"
     transform="scale(-1,1)"
     id="circle82"
     r="24.33"
     cy="303.42999"
     cx="-924.16003" />
  <path
     style="fill:#ff6584"
     id="path84"
     d="m 898,371.11 c -3.93,0.07 -8.37,-1 -10.27,-4.48 -1.3,-2.36 -1.09,-5.23 -0.84,-7.91 l 1.41,-15 c -3.82,-0.4 -7.93,-0.74 -11.26,1.15 -4.43,2.51 -6,8.07 -6.52,13.13 -0.93,9.5 0.58,19.09 0.06,28.62 -0.44,8 -2.29,16.26 0.07,23.93 1,3.2 2.66,6.15 3.74,9.32 1.35,4 1.7,8.3 2,12.53 0.37,4.54 0.72,9.24 -0.8,13.54 -1.27,3.6 -3.75,6.63 -5.52,10 -2.9,5.58 -3.52,13.1 0.84,17.63 4,4.14 10.58,4.31 16.17,3 5.59,-1.31 11,-3.81 16.7,-4.05 10.12,-0.43 19.14,6.14 29,8.27 a 9,9 0 0 0 4.05,0.14 10,10 0 0 0 3.26,-1.78 l 5.42,-3.9 a 7.47,7.47 0 0 0 2.62,-2.65 7.18,7.18 0 0 0 0.34,-3.8 c -1.82,-16.88 -11.37,-33.08 -8.61,-49.83 a 64.35,64.35 0 0 1 3.92,-12.8 c 6.87,-17.58 15.11,-35.84 12.44,-54.53 -0.58,-4.14 -1.8,-8.37 -4.65,-11.43 -2.85,-3.06 -7.67,-4.58 -11.36,-2.62 -3.69,1.96 -5,6.32 -6.63,10.11 a 46.6,46.6 0 0 1 -14.48,18.68 c -2.68,2.06 -5.93,4.69 -9.44,4.78 C 906,371.29 902,371.03 898,371.11 Z" />
  <path
     style="fill:#ffc1c7"
     id="path86"
     d="m 862.76,408.91 c -5.9,6.55 -7.06,16 -7.71,24.78 a 509.62,509.62 0 0 0 -0.19,72.58 37.16,37.16 0 0 0 1.79,10.55 c 1.26,3.35 3.62,6.45 6.94,7.79 2.13,0.86 5.1,0.63 6.06,-1.46 0.88,-1.91 -0.43,-4 -1.42,-5.9 a 21.41,21.41 0 0 1 -2.16,-13.94 c 1.21,0.88 1.64,2.47 2,3.93 l 1.93,8.12 c 2.61,-0.38 3.59,-3.57 4,-6.17 0.76,-4.72 1.49,-9.75 -0.4,-14.14 -1,-2.34 -2.7,-4.33 -3.71,-6.67 -2.55,-5.88 -3.55,-12.6 -1.91,-18.8 a 220.29,220.29 0 0 0 7.16,-64.2 27.36,27.36 0 0 1 -12.38,3.53 z" />
  <path
     style="fill:#ff6584"
     id="path88"
     d="m 857.19,415.5 a 89.81,89.81 0 0 1 21.52,2.84 c 0.93,-4.58 0.48,-9.32 0,-14 l -3.1,-32 c -0.23,-2.37 0.21,-24.14 -4.38,-20.29 -1.69,1.42 -3.82,14.14 -4.35,16.19 -0.8,3.08 -1.43,6.2 -2,9.34 -1.15,6.43 -1.93,12.92 -3,19.36 -0.31,1.91 -3.03,18.56 -4.69,18.56 z" />
  <path
     style="fill:#3f3d56"
     id="path90"
     d="m 914.88,272.5 a 4.31,4.31 0 0 1 0.5,-2.19 3.67,3.67 0 0 1 2.61,-1.37 c 3.52,-0.55 7.37,0.87 10.54,-0.74 1.72,-0.87 2.94,-2.5 4.61,-3.45 4,-2.23 9,0 12.45,2.91 a 36.27,36.27 0 0 1 11.66,17.76 c 1.56,5.38 2.19,11.67 6.64,15.06 1.85,1.4 4.23,2.18 5.58,4.06 a 10.35,10.35 0 0 1 1.47,5 c 0.46,4.08 0.85,8.28 -0.22,12.24 -0.81,3 -2.39,5.64 -3.38,8.54 a 22.69,22.69 0 0 0 6.19,23.61 7.3,7.3 0 0 1 -5.45,0.94 4.79,4.79 0 0 0 0.79,2.41 c -5.69,-0.18 -10.64,-5.73 -16.21,-4.52 -4.26,0.92 -6.63,5.31 -9.8,8.3 -4.09,3.84 -10.44,5.45 -15.57,3.17 -5.13,-2.28 -8.25,-8.76 -6.07,-13.94 2.48,-5.89 10.13,-8.22 12.78,-14 2.05,-4.5 0.53,-9.77 1,-14.7 0.37,-4.23 2.2,-8.18 3.34,-12.28 1.14,-4.1 1.51,-8.78 -0.81,-12.34 -2.46,-3.79 -7.17,-5.26 -11.46,-6.66 -9.69,-3.15 -11.55,-8.03 -11.19,-17.81 z" />
  <path
     style="fill:#ffc1c7"
     id="path92"
     d="m 920.86,359.97 c -0.69,-3.4 -1.38,-7 -0.15,-10.26 2.27,-6 9.72,-7.93 14.87,-11.82 a 20.16,20.16 0 0 0 6.62,-8.82 c 0.93,-2.46 1.06,-5.84 -1.24,-7.1 a 5.61,5.61 0 0 0 -2.87,-0.51 c -8,0.19 -15.39,4.55 -21.54,9.72 -3.58,3 -7,6.44 -8.76,10.76 a 35.24,35.24 0 0 0 -2,9.67 l -1.29,10.89 a 171.8,171.8 0 0 0 -1.5,18.85 84.49,84.49 0 0 0 0.68,10.79 c 0.32,2.54 0.8,5.17 2.29,7.25 2.77,3.88 8.12,4.75 12.89,4.88 a 22.57,22.57 0 0 0 5.39,-0.34 c 7.93,-1.72 13.95,-12.83 7.94,-19.69 -2.55,-2.91 -6.37,-3 -7.83,-7 -1.88,-5.31 -2.36,-11.74 -3.5,-17.27 z" />
  <path
     style="fill:#ff6584"
     id="path94"
     d="M 927.31,361.88 921,372.11 a 4.69,4.69 0 0 0 -0.77,1.76 c -0.17,1.33 0.82,2.51 1.61,3.6 5.4,7.36 4,17.5 2.4,26.48 a 48,48 0 0 0 33.05,-38.92 c 0.79,-5.35 2.06,-14.16 -2.69,-17.64 -11.39,-8.4 -21.93,5.72 -27.29,14.49 z" />
  <path
     style="fill:#3f3d56"
     id="path96"
     d="m 895.52,341.38 c 2.44,-0.4 5.06,0 7.32,-1.05 4,-1.84 4.9,-7 5.29,-11.36 0,-0.41 0.05,-0.85 0.07,-1.32 a 36,36 0 0 0 -4.63,-4 22.76,22.76 0 0 0 -4.73,-2.09 l -4.42,-1.55 a 25,25 0 0 0 -1,3.59 c -0.5,2.94 -0.08,6 -0.81,8.89 a 22.91,22.91 0 0 1 -3.73,7.14 l -6.51,9.52 q 1.77,-0.42 3.51,-0.93 c 2.27,-3.45 5.64,-6.19 9.64,-6.84 z" />
  <path
     style="fill:none;stroke:#3f3d56;stroke-width:4;stroke-miterlimit:10"
     id="path130"
     stroke-miterlimit="10"
     d="m 193.4,703.67 c -3,-5.51 0.4,-12.27 4.29,-17.18 3.89,-4.91 8.61,-10 8.51,-16.29 -0.15,-9 -9.7,-14.31 -17.33,-19.09 a 84,84 0 0 1 -15.56,-12.51 22.8,22.8 0 0 1 -4.78,-6.4 c -1.58,-3.52 -1.54,-7.52 -1.44,-11.37 q 0.51,-19.26 1.91,-38.49" />
  <path
     style="fill:#28a745;fill-opacity:1"
     id="path132"
     d="m 154.49,581.64 a 14,14 0 0 1 7,-11.5 l 3.14,6.22 -0.1,-7.53 a 14.22,14.22 0 0 1 4.63,-0.56 14,14 0 1 1 -14.68,13.37 z" />
  <path
     style="fill:#28a745;fill-opacity:1"
     id="path134"
     d="m 179.52,676.63 a 14,14 0 1 0 -0.68,-11.3 l 8.77,7.17 -9.65,-2.23 a 14,14 0 0 0 1.56,6.36 z" />
  <path
     style="fill:#28a745;fill-opacity:1"
     id="path136"
     d="m 186.45,649.38 a 14,14 0 0 0 4.45,-27.53 l 0.08,5.78 -3.18,-6.29 v 0 a 14,14 0 0 0 -14.67,13.36 13.84,13.84 0 0 0 0.6,4.79 14,14 0 0 0 12.72,9.89 z" />
  <path
     style="fill:#28a745;fill-opacity:1"
     id="path138"
     d="m 152.38,626.71 a 14,14 0 1 0 -6.21,-26.27 l 2.48,6.8 -5.1,-4.9 a 14,14 0 0 0 -4.53,9.69 13.79,13.79 0 0 0 0.35,3.87 14,14 0 0 0 13.01,10.81 z" />
  <path
     style="fill:#656380"
     id="path148"
     d="m 214.57,697.32 c 0,0 -11.08,-0.34 -14.42,-2.72 -3.34,-2.38 -17,-5.21 -17.86,-1.4 -0.86,3.81 -16.65,19 -4.15,19.06 12.5,0.06 29.06,-1.94 32.4,-4 3.34,-2.06 4.03,-10.94 4.03,-10.94 z" />
  <path
     style="opacity:0.2"
     id="path150"
     d="m 177.92,710.94 c 12.51,0.1 29.06,-2 32.39,-4 2.54,-1.55 3.55,-7.09 3.89,-9.65 h 0.37 c 0,0 -0.7,8.94 -4,11 -3.3,2.06 -19.89,4.07 -32.4,4 -3.61,0 -4.85,-1.31 -4.78,-3.21 0.47,1.12 1.84,1.83 4.53,1.86 z" />
  <path
     style="fill:none;stroke:#3f3d56;stroke-width:4;stroke-miterlimit:10"
     id="path152"
     stroke-miterlimit="10"
     d="m 969.6,714.67 c 3,-5.51 -0.4,-12.27 -4.29,-17.18 -3.89,-4.91 -8.61,-10 -8.51,-16.29 0.15,-9 9.7,-14.31 17.33,-19.09 a 84,84 0 0 0 15.56,-12.51 22.8,22.8 0 0 0 4.78,-6.4 c 1.58,-3.52 1.54,-7.52 1.44,-11.37 Q 995.4,612.57 994,593.34" />
  <path
     style="fill:#28a745;fill-opacity:1"
     id="path154"
     d="m 1008.51,592.64 a 14,14 0 0 0 -7,-11.5 l -3.14,6.22 0.1,-7.53 a 14.22,14.22 0 0 0 -4.63,-0.56 14,14 0 1 0 14.68,13.37 z" />
  <path
     style="fill:#28a745;fill-opacity:1"
     id="path156"
     d="m 983.48,687.63 a 14,14 0 1 1 0.68,-11.3 l -8.77,7.13 9.61,-2.23 a 14,14 0 0 1 -1.52,6.4 z" />
  <path
     style="fill:#28a745;fill-opacity:1"
     id="path158"
     d="m 976.55,660.38 a 14,14 0 0 1 -4.45,-27.53 l -0.08,5.78 3.18,-6.29 v 0 a 14,14 0 0 1 14.67,13.36 13.84,13.84 0 0 1 -0.6,4.79 14,14 0 0 1 -12.72,9.89 z" />
  <path
     style="fill:#28a745;fill-opacity:1"
     id="path160"
     d="m 1010.62,637.71 a 14,14 0 1 1 6.21,-26.27 l -2.48,6.8 5.1,-4.9 a 14,14 0 0 1 4.55,9.69 13.79,13.79 0 0 1 -0.35,3.87 14,14 0 0 1 -13.03,10.81 z" />
  <path
     style="fill:#656380"
     id="path170"
     d="m 948.43,708.32 c 0,0 11.08,-0.34 14.42,-2.72 3.34,-2.38 17,-5.21 17.86,-1.4 0.86,3.81 16.65,19 4.15,19.06 -12.5,0.06 -29.06,-1.94 -32.4,-4 -3.34,-2.06 -4.03,-10.94 -4.03,-10.94 z" />
  <path
     style="opacity:0.2"
     id="path172"
     d="m 985.08,721.94 c -12.51,0.1 -29.06,-2 -32.39,-4 -2.54,-1.55 -3.55,-7.09 -3.89,-9.65 h -0.37 c 0,0 0.7,8.94 4,11 3.3,2.06 19.89,4.07 32.4,4 3.61,0 4.85,-1.31 4.78,-3.21 -0.47,1.12 -1.84,1.83 -4.53,1.86 z" />
</svg>
