<svg xmlns="http://www.w3.org/2000/svg" xmlns:xlink="http://www.w3.org/1999/xlink" width="512" height="512" viewBox="0 0 57 60" version="1.1"><!-- Generator: Sketch 51.3 (57544) - http://www.bohemiancoding.com/sketch --><title>001 - Drafting Ideas</title><desc>Created with Sketch.</desc><defs/><g id="Page-1" stroke="none" stroke-width="1" fill="none" fill-rule="evenodd"><g id="001---Drafting-Ideas" transform="translate(0.000000, -1.000000)" fill="#000000" fill-rule="nonzero"><path d="M36.167,25.464 C35.9245028,24.5998646 35.1375138,24.0019653 34.24,24 L19.76,24 C18.8562429,24.0040177 18.0660607,24.6101513 17.828,25.482 L14.217,39.475 C14.0534248,40.0762911 14.179461,40.7194674 14.5578804,41.2145498 C14.9362999,41.7096322 15.5238565,42.0000424 16.147,42 L37.853,42 C38.4748884,42.0000763 39.0614257,41.7108611 39.4399914,41.2174716 C39.8185571,40.7240821 39.9460691,40.0826679 39.785,39.482 L36.167,25.464 Z M16.146,40 L16.151,39.982 L19.76,26 L34.235,25.982 L37.853,40 L16.146,40 Z" id="Shape" style="fill: #6c63ff;"/><path d="M3,52 L5,52 L5,59 C5,60.1045695 5.8954305,61 7,61 L11,61 C12.1045695,61 13,60.1045695 13,59 L13,52 L41,52 L41,59 C41,60.1045695 41.8954305,61 43,61 L47,61 C48.1045695,61 49,60.1045695 49,59 L49,52 L51,52 C52.6568542,52 54,50.6568542 54,49 L54,47 C53.9937797,45.6236118 53.0517424,44.4280285 51.715,44.1 L45.227,27.932 L55.446,18.032 C55.8717425,17.6208406 56.0935078,17.0422263 56.051627,16.4518411 C56.0097461,15.8614559 55.7085208,15.3199416 55.229,14.973 L48.143,9.843 L48.5,8.92 L49.056,8.364 C50.3369233,7.07349881 50.5862919,5.08142582 49.663,3.515 L50.471,2.707 C50.8614653,2.3159824 50.8610176,1.68246532 50.47,1.292 C50.0789824,0.901534682 49.4454653,0.901982397 49.055,1.293 L48.247,2.101 C46.6805603,1.17692837 44.6879078,1.42590722 43.397,2.707 L42.84,3.264 L35.282,6.171 C34.6494853,6.41319625 34.1825245,6.95905767 34.0412036,7.62144895 C33.8998827,8.28384023 34.1034058,8.97274913 34.582,9.452 L35.782,10.652 C34.6059007,12.2363774 34.7682193,14.4432749 36.1634722,15.8385278 C37.5587251,17.2337807 39.7656226,17.3960993 41.35,16.22 L42.309,17.178 C42.6823984,17.5537573 43.1902643,17.7650381 43.72,17.765 C43.860471,17.7646583 44.0005367,17.7499145 44.138,17.721 C44.8005718,17.5805041 45.3470179,17.1142185 45.59,16.482 L45.916,15.635 L47.854,17.035 L42.815,21.923 L41.744,19.255 C41.4418705,18.4955764 40.706314,17.9979358 39.889,18 L23,18 L23,12 C23,10.8954305 22.1045695,10 21,10 L19,10 L19,4 C19,3.44771525 18.5522847,3 18,3 C17.4477153,3 17,3.44771525 17,4 L17,9.139 L13.874,3.514 C13.6055896,3.03130313 12.9966969,2.85758961 12.514,3.126 C12.0313031,3.39441039 11.8575896,4.00330313 12.126,4.486 L15.544,10.637 C15.1954703,11.0053257 15.0008642,11.4929142 15,12 L15,18 L14.111,18 C13.2933215,17.9975246 12.5572635,18.4952362 12.255,19.255 L2.285,44.1 C0.94825755,44.4280285 0.00622030928,45.6236118 0,47 L0,49 C4.4408921e-16,50.6568542 1.34314575,52 3,52 Z M11,59 L7,59 L7,52 L11,52 L11,59 Z M47,59 L43,59 L43,52 L47,52 L47,59 Z M47.64,4.121 C48.015248,4.49609602 48.2260729,5.00492663 48.2260729,5.5355 C48.2260729,6.06607337 48.015248,6.57490398 47.64,6.95 L44.812,4.121 C45.5929997,3.34023612 46.8590003,3.34023612 47.64,4.121 Z M39,15 C38.3036882,14.9993179 37.6578506,14.6365287 37.2949898,14.042237 C36.932129,13.4479453 36.9044813,12.7077036 37.222,12.088 L39.912,14.778 C39.6299148,14.9232982 39.3173063,14.9993937 39,15 Z M43.727,15.764 L36,8.038 L43.15,5.288 L46.474,8.612 L43.727,15.764 Z M47.4,11.775 L54.056,16.59 L52.6,18 L46.658,13.7 L47.4,11.775 Z M49.5,18.226 L51.142,19.414 L44.423,25.926 L43.623,23.926 L49.5,18.226 Z M17,12 L21,12 L21,18 L17,18 L17,12 Z M14.111,20 L39.889,20 L41.505,24.026 L41.517,24.057 L49.517,44 L4.479,44 L14.111,20 Z M2,47 C2,46.4477153 2.44771525,46 3,46 L51,46 C51.5522847,46 52,46.4477153 52,47 L52,49 C52,49.5522847 51.5522847,50 51,50 L3,50 C2.44771525,50 2,49.5522847 2,49 L2,47 Z" id="Shape" style="fill: #6c63ff;"/><path d="M22,30 L32,30 C32.5522847,30 33,29.5522847 33,29 C33,28.4477153 32.5522847,28 32,28 L22,28 C21.4477153,28 21,28.4477153 21,29 C21,29.5522847 21.4477153,30 22,30 Z" id="Shape" style="fill: #6c63ff;"/><path d="M21,34 L33,34 C33.5522847,34 34,33.5522847 34,33 C34,32.4477153 33.5522847,32 33,32 L21,32 C20.4477153,32 20,32.4477153 20,33 C20,33.5522847 20.4477153,34 21,34 Z" id="Shape" style="fill: #6c63ff;"/><path d="M20,36 C19.4477153,36 19,36.4477153 19,37 C19,37.5522847 19.4477153,38 20,38 L34,38 C34.5522847,38 35,37.5522847 35,37 C35,36.4477153 34.5522847,36 34,36 L20,36 Z" id="Shape" style="fill: #6c63ff;"/></g></g></svg>