<?xml version="1.0" encoding="UTF-8" standalone="no"?>
<!-- Generator: Adobe Illustrator 18.0.0, SVG Export Plug-In . SVG Version: 6.00 Build 0)  -->

<svg
   xmlns:dc="http://purl.org/dc/elements/1.1/"
   xmlns:cc="http://creativecommons.org/ns#"
   xmlns:rdf="http://www.w3.org/1999/02/22-rdf-syntax-ns#"
   xmlns:svg="http://www.w3.org/2000/svg"
   xmlns="http://www.w3.org/2000/svg"
   xmlns:sodipodi="http://sodipodi.sourceforge.net/DTD/sodipodi-0.dtd"
   xmlns:inkscape="http://www.inkscape.org/namespaces/inkscape"
   version="1.1"
   id="Capa_1"
   x="0px"
   y="0px"
   viewBox="0 0 283.922 283.922"
   style="enable-background:new 0 0 283.922 283.922;"
   xml:space="preserve"
   sodipodi:docname="external-link.svg"
   inkscape:version="0.92.3 (2405546, 2018-03-11)"><metadata
   id="metadata43"><rdf:RDF><cc:Work
       rdf:about=""><dc:format>image/svg+xml</dc:format><dc:type
         rdf:resource="http://purl.org/dc/dcmitype/StillImage" /></cc:Work></rdf:RDF></metadata><defs
   id="defs41" /><sodipodi:namedview
   pagecolor="#ffffff"
   bordercolor="#666666"
   borderopacity="1"
   objecttolerance="10"
   gridtolerance="10"
   guidetolerance="10"
   inkscape:pageopacity="0"
   inkscape:pageshadow="2"
   inkscape:window-width="960"
   inkscape:window-height="969"
   id="namedview39"
   showgrid="false"
   inkscape:zoom="0.83121422"
   inkscape:cx="141.961"
   inkscape:cy="141.961"
   inkscape:window-x="0"
   inkscape:window-y="27"
   inkscape:window-maximized="0"
   inkscape:current-layer="Capa_1" />
<g
   id="g6"
   style="fill:#6c63ff;fill-opacity:1">
	<path
   d="M266.422,0h-97.625c-9.65,0-17.5,7.851-17.5,17.5c0,9.649,7.85,17.5,17.5,17.5h55.377l-92.375,92.374   c-3.307,3.305-5.127,7.699-5.127,12.375c0,4.676,1.819,9.069,5.125,12.371c3.306,3.309,7.699,5.13,12.375,5.13   c4.674,0,9.069-1.82,12.376-5.127l92.374-92.375v55.377c0,9.649,7.851,17.5,17.5,17.5c9.649,0,17.5-7.851,17.5-17.5V17.5   C283.922,7.851,276.071,0,266.422,0z"
   id="path2"
   style="fill:#6c63ff;fill-opacity:1" />
	<path
   d="M201.137,253.922H30V82.785h128.711l30-30H15c-8.284,0-15,6.716-15,15v201.137c0,8.284,6.716,15,15,15h201.137   c8.284,0,15-6.716,15-15V95.211l-30,30V253.922z"
   id="path4"
   style="fill:#6c63ff;fill-opacity:1" />
</g>
<g
   id="g8"
   style="fill:#6c63ff;fill-opacity:1">
</g>
<g
   id="g10"
   style="fill:#6c63ff;fill-opacity:1">
</g>
<g
   id="g12"
   style="fill:#6c63ff;fill-opacity:1">
</g>
<g
   id="g14"
   style="fill:#6c63ff;fill-opacity:1">
</g>
<g
   id="g16"
   style="fill:#6c63ff;fill-opacity:1">
</g>
<g
   id="g18"
   style="fill:#6c63ff;fill-opacity:1">
</g>
<g
   id="g20"
   style="fill:#6c63ff;fill-opacity:1">
</g>
<g
   id="g22"
   style="fill:#6c63ff;fill-opacity:1">
</g>
<g
   id="g24"
   style="fill:#6c63ff;fill-opacity:1">
</g>
<g
   id="g26"
   style="fill:#6c63ff;fill-opacity:1">
</g>
<g
   id="g28"
   style="fill:#6c63ff;fill-opacity:1">
</g>
<g
   id="g30"
   style="fill:#6c63ff;fill-opacity:1">
</g>
<g
   id="g32"
   style="fill:#6c63ff;fill-opacity:1">
</g>
<g
   id="g34"
   style="fill:#6c63ff;fill-opacity:1">
</g>
<g
   id="g36"
   style="fill:#6c63ff;fill-opacity:1">
</g>
</svg>