<svg height="511pt" viewBox="-38 0 511 511.75" width="511pt" xmlns="http://www.w3.org/2000/svg"><path d="m214.140625 40.132812-176 96.785157c-2.773437 1.527343-4.390625 4.550781-4.109375 7.703125l10.511719 120.847656c5.304687 60.960938 37.414062 115.585938 88.113281 149.855469l80.863281 54.691406c1.351563.917969 2.917969 1.375 4.480469 1.375 1.558594 0 3.125-.457031 4.476562-1.375l80.867188-54.679687c50.6875-34.28125 82.804688-88.90625 88.109375-149.867188l10.511719-120.847656c.28125-3.152344-1.335938-6.175782-4.109375-7.703125l-176-96.785157c-2.402344-1.328124-5.3125-1.328124-7.714844 0zm171.433594 108.289063-10.054688 115.65625c-4.890625 56.136719-34.457031 106.433594-81.136719 138l-76.382812 51.65625-76.386719-51.664063c-46.671875-31.558593-76.246093-81.855468-81.136719-137.992187l-10.054687-115.65625 167.578125-92.152344zm0 0" style="fill: #6c63ff;"/><path d="m431.476562 116.261719-209.621093-115.273438c-2.402344-1.316406-5.3125-1.316406-7.714844 0l-209.621094 115.273438c-2.777343 1.527343-4.394531 4.550781-4.113281 7.703125l12.519531 143.929687c6.273438 72.144531 44.28125 136.792969 104.273438 177.359375l96.320312 65.128906c1.351563.910157 2.917969 1.367188 4.480469 1.367188 1.558594 0 3.125-.457031 4.476562-1.367188l96.320313-65.136718c59.992187-40.566406 98-105.214844 104.273437-177.351563l12.519532-143.9375c.273437-3.152343-1.34375-6.167969-4.113282-7.695312zm-24.351562 150.25c-5.855469 67.308593-41.320312 127.628906-97.292969 165.484375l-91.832031 62.105468-91.832031-62.09375c-55.976563-37.859374-91.441407-98.179687-97.296875-165.496093l-12.074219-138.738281 201.203125-110.640626 201.199219 110.640626zm0 0" style="fill: #6c63ff;"/><path d="m138 279.140625v-32c0-4.414063-3.585938-8-8-8h-16v16h8v16h-24v-48h40v-16h-40c-8.824219 0-16 7.175781-16 16v48c0 8.824219 7.175781 16 16 16h32c4.414062 0 8-3.582031 8-8zm0 0" style="fill: #6c63ff;"/><path d="m186 287.140625c13.230469 0 24-10.765625 24-24v-32c0-13.230469-10.769531-24-24-24h-24c-4.417969 0-8 3.585937-8 8v64c0 4.417969 3.582031 8 8 8zm-16-64h16c4.40625 0 8 3.59375 8 8v32c0 4.410156-3.59375 8-8 8h-16zm0 0" style="fill: #6c63ff;"/><path d="m258 263.140625c13.230469 0 24-10.765625 24-24v-8c0-13.230469-10.769531-24-24-24h-24c-4.417969 0-8 3.585937-8 8v72h16v-24zm0-40c4.40625 0 8 3.59375 8 8v8c0 4.410156-3.59375 8-8 8h-16v-24zm0 0" style="fill: #6c63ff;"/><path d="m306 207.140625c-4.417969 0-8 3.585937-8 8v72h16v-24h17.566406l6.433594 10.296875v13.703125h16v-16c0-1.503906-.425781-2.964844-1.21875-4.238281l-6.429688-10.296875c4.679688-4.375 7.648438-10.558594 7.648438-17.464844v-8c0-13.230469-10.769531-24-24-24zm32 24v8c0 4.410156-3.59375 8-8 8h-16v-24h16c4.40625 0 8 3.59375 8 8zm0 0" style="fill: #6c63ff;"/><path d="m106 167.140625v16h16v-16c0-4.40625 3.589844-8 8-8h176c4.40625 0 8 3.59375 8 8v16h16v-16c0-13.230469-10.769531-24-24-24h-176c-13.234375 0-24 10.769531-24 24zm0 0" style="fill: #6c63ff;"/><path d="m314 327.140625c0 4.410156-3.59375 8-8 8h-176c-4.410156 0-8-3.589844-8-8v-16h-16v16c0 13.234375 10.765625 24 24 24h176c13.230469 0 24-10.765625 24-24v-16h-16zm0 0" style="fill: #6c63ff;"/><path d="m210 87.140625h16v32h-16zm0 0" style="fill: #6c63ff;"/><path d="m210 375.140625h16v48h-16zm0 0" style="fill: #6c63ff;"/></svg>