<svg xmlns="http://www.w3.org/2000/svg" xmlns:xlink="http://www.w3.org/1999/xlink" width="512" height="512" viewBox="0 0 60 55" version="1.1"><!-- Generator: Sketch 51.3 (57544) - http://www.bohemiancoding.com/sketch --><title>014 - Gold Ingots</title><desc>Created with Sketch.</desc><defs/><g id="Page-1" stroke="none" stroke-width="1" fill="none" fill-rule="evenodd"><g id="014---Gold-Ingots" transform="translate(-1.000000, 0.000000)" fill="#000000" fill-rule="nonzero"><path d="M1.606,35.133 L16.581,41.547 L33.455,48.916 C33.468,48.922 33.482,48.916 33.495,48.924 C33.6091183,48.9718579 33.7312752,48.9976466 33.855,49 C33.9606694,49.0000207 34.0656621,48.9831409 34.166,48.95 L60.311,40.4 C60.5657436,40.3165967 60.776339,40.1344137 60.8955369,39.8943257 C61.0147349,39.6542377 61.0325553,39.3763466 60.945,39.123 L57.258,28.426 C57.248,28.396 57.224,28.375 57.211,28.346 C57.1789966,28.2719363 57.1380236,28.2020807 57.089,28.138 C57.0618176,28.102536 57.0320712,28.069113 57,28.038 C56.9432908,27.9832563 56.8801653,27.9355764 56.812,27.896 C56.7798077,27.8756645 56.7464132,27.8572976 56.712,27.841 C56.692,27.832 56.678,27.817 56.658,27.81 L51.983,26.059 L48.448,15.608 C48.4069867,15.4873903 48.3427817,15.3759657 48.259,15.28 C48.238578,15.2580666 48.2168733,15.2373636 48.194,15.218 C48.1308512,15.1543893 48.0591649,15.0998673 47.981,15.056 C47.9469322,15.0370576 47.9115009,15.0206789 47.875,15.007 C47.8372403,14.9867141 47.798151,14.9690069 47.758,14.954 L37.548,12.224 C37.3818649,12.1799922 37.2071351,12.1799922 37.041,12.224 L18.341,17.035 C17.8233843,16.7914442 17.3517725,16.4602334 16.947,16.056 C16.2215761,15.3398929 15.736853,14.4158785 15.56,13.412 C15.4705774,12.886686 15.0153707,12.5024196 14.4825,12.5024196 C13.9496293,12.5024196 13.4944226,12.886686 13.405,13.412 C13.0314849,15.4682348 11.4215117,17.0770124 9.365,17.449 C8.84051173,17.5396999 8.45741888,17.9947271 8.45741888,18.527 C8.45741888,19.0592729 8.84051173,19.5143001 9.365,19.605 C10.3719181,19.7830791 11.2982464,20.2707123 12.015,21 L12.029,21.016 L11.423,22.629 L4.908,24.7 C4.89,24.706 4.878,24.72 4.861,24.726 C4.844,24.732 4.825,24.726 4.808,24.738 C4.76630854,24.7630154 4.72653248,24.7910927 4.689,24.822 C4.63113955,24.8541945 4.57683875,24.8924062 4.527,24.936 C4.48527235,24.9796956 4.44777196,25.0272407 4.415,25.078 C4.3723086,25.1317657 4.33574913,25.1901267 4.306,25.252 C4.298,25.27 4.282,25.283 4.275,25.302 L1.063,33.863 C0.87561714,34.3634175 1.1147582,34.9227346 1.606,35.133 Z M17.122,37.37 L15.357,30.9 L18.992,32.384 L17.122,37.37 Z M18.24,40.088 L20.845,33.141 L28.351,36.205 C28.3776957,36.2117725 28.4047342,36.2171135 28.432,36.221 L30.272,36.969 L32.434,46.287 L18.24,40.088 Z M34.585,46.71 L32.316,36.928 L55.679,29.98 L58.724,38.811 L34.585,46.71 Z M31.18,35.179 L28.918,34.26 L51.149,27.885 L53.167,28.641 L31.18,35.179 Z M26.521,32.866 L23.571,23.159 L46.849,17.122 L49.907,26.16 L26.521,32.866 Z M37.285,14.224 L43.573,15.905 L22.373,21.405 L19.436,20.295 C19.41,20.286 19.383,20.277 19.356,20.27 L18.497,19.948 C18.8489095,19.7903688 19.2181008,19.674577 19.597,19.603 C20.1106062,19.5081393 20.4866942,19.0651912 20.497,18.543 L37.285,14.224 Z M14.475,16.131 C15.072107,17.1064203 15.8918294,17.9264854 16.867,18.524 C16.4226099,18.7948823 16.0106074,19.1156269 15.639,19.48 C15.62,19.498 15.6,19.512 15.582,19.531 C15.564,19.55 15.55,19.559 15.535,19.574 C15.1287789,19.9747649 14.7740492,20.4245595 14.479,20.913 C14.3052881,20.6326443 14.1114449,20.3652744 13.899,20.113 C13.882,20.095 13.869,20.075 13.85,20.058 C13.715,19.897 13.58,19.735 13.429,19.586 C13.0260033,19.1786555 12.5742523,18.8226287 12.084,18.526 C13.0635082,17.9334781 13.8841162,17.1114972 14.475,16.131 Z M13.4,23.631 C13.4906999,24.1554883 13.9457271,24.5385811 14.478,24.5385811 C15.0102729,24.5385811 15.4653001,24.1554883 15.556,23.631 C15.7068459,22.7992791 16.070286,22.020725 16.611,21.371 L18.681,22.146 L18.691,22.146 L18.719,22.157 C18.743,22.165 18.768,22.174 18.793,22.181 L21.493,23.202 L24.278,32.366 L20.646,30.9 L14.258,28.292 L11.826,27.249 L13.314,23.288 C13.34,23.4 13.379,23.517 13.4,23.636 L13.4,23.631 Z M9.972,26.483 L8.172,25.76 L10.531,25.008 L9.972,26.483 Z M5.789,26.961 L10.182,28.722 L10.19,28.722 L13.021,29.936 L15.465,38.891 L3.272,33.671 L5.789,26.961 Z" id="Shape" style="fill: #6c63ff;"/><path d="M26,1 C26,0.44771525 25.5522847,0 25,0 C24.4477153,0 24,0.44771525 24,1 L24,3 C24,3.55228475 24.4477153,4 25,4 C25.5522847,4 26,3.55228475 26,3 L26,1 Z" id="Shape" style="fill: #6c63ff;"/><path d="M23,4 L21,4 C20.4477153,4 20,4.44771525 20,5 C20,5.55228475 20.4477153,6 21,6 L23,6 C23.5522847,6 24,5.55228475 24,5 C24,4.44771525 23.5522847,4 23,4 Z" id="Shape" style="fill: #6c63ff;"/><path d="M25,10 C25.5522847,10 26,9.55228475 26,9 L26,7 C26,6.44771525 25.5522847,6 25,6 C24.4477153,6 24,6.44771525 24,7 L24,9 C24,9.55228475 24.4477153,10 25,10 Z" id="Shape" style="fill: #6c63ff;"/><path d="M27,6 L29,6 C29.5522847,6 30,5.55228475 30,5 C30,4.44771525 29.5522847,4 29,4 L27,4 C26.4477153,4 26,4.44771525 26,5 C26,5.55228475 26.4477153,6 27,6 Z" id="Shape" style="fill: #6c63ff;"/><path d="M18.536,46.464 C18.1455001,46.0736181 17.5124999,46.0736181 17.122,46.464 L15.707,47.879 C15.4470434,48.1300745 15.3427874,48.5018779 15.4343028,48.8515073 C15.5258183,49.2011368 15.7988632,49.4741817 16.1484927,49.5656972 C16.4981221,49.6572126 16.8699255,49.5529566 17.121,49.293 L18.536,47.878 C18.9263819,47.4875001 18.9263819,46.8544999 18.536,46.464 Z" id="Shape" style="fill: #6c63ff;"/><path d="M14.293,47.879 L12.878,46.464 C12.6269255,46.2040434 12.2551221,46.0997874 11.9054927,46.1913028 C11.5558632,46.2828183 11.2828183,46.5558632 11.1913028,46.9054927 C11.0997874,47.2551221 11.2040434,47.6269255 11.464,47.878 L12.879,49.293 C13.2713789,49.6719722 13.8950848,49.6665524 14.2808186,49.2808186 C14.6665524,48.8950848 14.6719722,48.2713789 14.293,47.879 Z" id="Shape" style="fill: #6c63ff;"/><path d="M12.879,50.707 L11.464,52.122 C11.2040434,52.3730745 11.0997874,52.7448779 11.1913028,53.0945073 C11.2828183,53.4441368 11.5558632,53.7171817 11.9054927,53.8086972 C12.2551221,53.9002126 12.6269255,53.7959566 12.878,53.536 L14.293,52.121 C14.6719722,51.7286211 14.6665524,51.1049152 14.2808186,50.7191814 C13.8950848,50.3334476 13.2713789,50.3280278 12.879,50.707 Z" id="Shape" style="fill: #6c63ff;"/><path d="M17.121,50.707 C16.7286211,50.3280278 16.1049152,50.3334476 15.7191814,50.7191814 C15.3334476,51.1049152 15.3280278,51.7286211 15.707,52.121 L17.122,53.536 C17.5143789,53.9149722 18.1380848,53.9095524 18.5238186,53.5238186 C18.9095524,53.1380848 18.9149722,52.5143789 18.536,52.122 L17.121,50.707 Z" id="Shape" style="fill: #6c63ff;"/><path d="M55,11 C55,10.4477153 54.5522847,10 54,10 C53.4477153,10 53,10.4477153 53,11 L53,12 C53,12.5522847 53.4477153,13 54,13 C54.5522847,13 55,12.5522847 55,12 L55,11 Z" id="Shape" style="fill: #6c63ff;"/><path d="M54,18 C54.5522847,18 55,17.5522847 55,17 L55,16 C55,15.4477153 54.5522847,15 54,15 C53.4477153,15 53,15.4477153 53,16 L53,17 C53,17.5522847 53.4477153,18 54,18 Z" id="Shape" style="fill: #6c63ff;"/><path d="M56,15 L57,15 C57.5522847,15 58,14.5522847 58,14 C58,13.4477153 57.5522847,13 57,13 L56,13 C55.4477153,13 55,13.4477153 55,14 C55,14.5522847 55.4477153,15 56,15 Z" id="Shape" style="fill: #6c63ff;"/><path d="M52,13 L51,13 C50.4477153,13 50,13.4477153 50,14 C50,14.5522847 50.4477153,15 51,15 L52,15 C52.5522847,15 53,14.5522847 53,14 C53,13.4477153 52.5522847,13 52,13 Z" id="Shape" style="fill: #6c63ff;"/></g></g></svg>