<?xml version="1.0" encoding="UTF-8" standalone="no"?>
<!-- Generator: Adobe Illustrator 19.0.0, SVG Export Plug-In . SVG Version: 6.00 Build 0)  -->

<svg
   xmlns:dc="http://purl.org/dc/elements/1.1/"
   xmlns:cc="http://creativecommons.org/ns#"
   xmlns:rdf="http://www.w3.org/1999/02/22-rdf-syntax-ns#"
   xmlns:svg="http://www.w3.org/2000/svg"
   xmlns="http://www.w3.org/2000/svg"
   xmlns:sodipodi="http://sodipodi.sourceforge.net/DTD/sodipodi-0.dtd"
   xmlns:inkscape="http://www.inkscape.org/namespaces/inkscape"
   version="1.1"
   id="Capa_1"
   x="0px"
   y="0px"
   viewBox="0 0 512 512"
   style="enable-background:new 0 0 512 512;"
   xml:space="preserve"
   sodipodi:docname="paper-plane.svg"
   inkscape:version="0.92.3 (2405546, 2018-03-11)"><metadata
   id="metadata79"><rdf:RDF><cc:Work
       rdf:about=""><dc:format>image/svg+xml</dc:format><dc:type
         rdf:resource="http://purl.org/dc/dcmitype/StillImage" /></cc:Work></rdf:RDF></metadata><defs
   id="defs77" /><sodipodi:namedview
   pagecolor="#ffffff"
   bordercolor="#666666"
   borderopacity="1"
   objecttolerance="10"
   gridtolerance="10"
   guidetolerance="10"
   inkscape:pageopacity="0"
   inkscape:pageshadow="2"
   inkscape:window-width="640"
   inkscape:window-height="480"
   id="namedview75"
   showgrid="false"
   inkscape:zoom="0.4609375"
   inkscape:cx="256"
   inkscape:cy="256"
   inkscape:window-x="0"
   inkscape:window-y="27"
   inkscape:window-maximized="0"
   inkscape:current-layer="Capa_1" />
<g
   id="g6"
   style="fill:#28a745;fill-opacity:1">
	<g
   id="g4"
   style="fill:#28a745;fill-opacity:1">
		<path
   d="M506.955,1.314c-3.119-1.78-6.955-1.75-10.045,0.078L313.656,109.756c-4.754,2.811-6.329,8.943-3.518,13.697    c2.81,4.753,8.942,6.328,13.697,3.518l131.482-77.749L210.411,303.335L88.603,266.069l158.965-94    c4.754-2.812,6.329-8.944,3.518-13.698c-2.81-4.753-8.943-6.33-13.697-3.518L58.91,260.392c-3.41,2.017-5.309,5.856-4.84,9.791    s3.216,7.221,7.004,8.38l145.469,44.504L270.72,439.88c0.067,0.121,0.136,0.223,0.207,0.314c1.071,1.786,2.676,3.245,4.678,4.087    c1.253,0.527,2.57,0.784,3.878,0.784c2.563,0,5.086-0.986,6.991-2.849l73.794-72.12l138.806,42.466    c0.96,0.293,1.945,0.438,2.925,0.438c2.116,0,4.206-0.672,5.948-1.961C510.496,409.153,512,406.17,512,403V10    C512,6.409,510.074,3.093,506.955,1.314z M271.265,329.23c-1.158,1.673-1.779,3.659-1.779,5.694v61.171l-43.823-79.765    l193.921-201.21L271.265,329.23z M289.486,411.309v-62.867l48.99,14.988L289.486,411.309z M492,389.483l-196.499-60.116    L492,45.704V389.483z"
   id="path2"
   style="fill:#28a745;fill-opacity:1" />
	</g>
</g>
<g
   id="g12"
   style="fill:#28a745;fill-opacity:1">
	<g
   id="g10"
   style="fill:#28a745;fill-opacity:1">
		<path
   d="M164.423,347.577c-3.906-3.905-10.236-3.905-14.143,0l-93.352,93.352c-3.905,3.905-3.905,10.237,0,14.143    C58.882,457.024,61.441,458,64,458s5.118-0.976,7.071-2.929l93.352-93.352C168.328,357.815,168.328,351.483,164.423,347.577z"
   id="path8"
   style="fill:#28a745;fill-opacity:1" />
	</g>
</g>
<g
   id="g18"
   style="fill:#28a745;fill-opacity:1">
	<g
   id="g16"
   style="fill:#28a745;fill-opacity:1">
		<path
   d="M40.071,471.928c-3.906-3.903-10.236-3.903-14.142,0.001l-23,23c-3.905,3.905-3.905,10.237,0,14.143    C4.882,511.024,7.441,512,10,512s5.118-0.977,7.071-2.929l23-23C43.976,482.166,43.976,475.834,40.071,471.928z"
   id="path14"
   style="fill:#28a745;fill-opacity:1" />
	</g>
</g>
<g
   id="g24"
   style="fill:#28a745;fill-opacity:1">
	<g
   id="g22"
   style="fill:#28a745;fill-opacity:1">
		<path
   d="M142.649,494.34c-1.859-1.86-4.439-2.93-7.069-2.93c-2.641,0-5.21,1.07-7.07,2.93c-1.86,1.86-2.93,4.43-2.93,7.07    c0,2.63,1.069,5.21,2.93,7.07c1.86,1.86,4.44,2.93,7.07,2.93s5.21-1.07,7.069-2.93c1.86-1.86,2.931-4.44,2.931-7.07    C145.58,498.77,144.51,496.2,142.649,494.34z"
   id="path20"
   style="fill:#28a745;fill-opacity:1" />
	</g>
</g>
<g
   id="g30"
   style="fill:#28a745;fill-opacity:1">
	<g
   id="g28"
   style="fill:#28a745;fill-opacity:1">
		<path
   d="M217.051,419.935c-3.903-3.905-10.233-3.905-14.142,0l-49.446,49.445c-3.905,3.905-3.905,10.237,0,14.142    c1.953,1.953,4.512,2.929,7.071,2.929s5.118-0.977,7.071-2.929l49.446-49.445C220.956,430.172,220.956,423.84,217.051,419.935z"
   id="path26"
   style="fill:#28a745;fill-opacity:1" />
	</g>
</g>
<g
   id="g36"
   style="fill:#28a745;fill-opacity:1">
	<g
   id="g34"
   style="fill:#28a745;fill-opacity:1">
		<path
   d="M387.704,416.139c-3.906-3.904-10.236-3.904-14.142,0l-49.58,49.58c-3.905,3.905-3.905,10.237,0,14.143    c1.953,1.952,4.512,2.929,7.071,2.929s5.118-0.977,7.071-2.929l49.58-49.58C391.609,426.377,391.609,420.045,387.704,416.139z"
   id="path32"
   style="fill:#28a745;fill-opacity:1" />
	</g>
</g>
<g
   id="g42"
   style="fill:#28a745;fill-opacity:1">
	<g
   id="g40"
   style="fill:#28a745;fill-opacity:1">
		<path
   d="M283.5,136.31c-1.86-1.86-4.44-2.93-7.07-2.93s-5.21,1.07-7.07,2.93c-1.859,1.86-2.93,4.44-2.93,7.08    c0,2.63,1.07,5.2,2.93,7.06c1.86,1.87,4.44,2.93,7.07,2.93s5.21-1.06,7.07-2.93c1.859-1.86,2.93-4.43,2.93-7.06    C286.43,140.75,285.36,138.17,283.5,136.31z"
   id="path38"
   style="fill:#28a745;fill-opacity:1" />
	</g>
</g>
<g
   id="g44"
   style="fill:#28a745;fill-opacity:1">
</g>
<g
   id="g46"
   style="fill:#28a745;fill-opacity:1">
</g>
<g
   id="g48"
   style="fill:#28a745;fill-opacity:1">
</g>
<g
   id="g50"
   style="fill:#28a745;fill-opacity:1">
</g>
<g
   id="g52"
   style="fill:#28a745;fill-opacity:1">
</g>
<g
   id="g54"
   style="fill:#28a745;fill-opacity:1">
</g>
<g
   id="g56"
   style="fill:#28a745;fill-opacity:1">
</g>
<g
   id="g58"
   style="fill:#28a745;fill-opacity:1">
</g>
<g
   id="g60"
   style="fill:#28a745;fill-opacity:1">
</g>
<g
   id="g62"
   style="fill:#28a745;fill-opacity:1">
</g>
<g
   id="g64"
   style="fill:#28a745;fill-opacity:1">
</g>
<g
   id="g66"
   style="fill:#28a745;fill-opacity:1">
</g>
<g
   id="g68"
   style="fill:#28a745;fill-opacity:1">
</g>
<g
   id="g70"
   style="fill:#28a745;fill-opacity:1">
</g>
<g
   id="g72"
   style="fill:#28a745;fill-opacity:1">
</g>
</svg>