<svg height="512pt" viewBox="-28 0 512 512.001" width="512pt" xmlns="http://www.w3.org/2000/svg"><path d="m338.296875 284.78125h36.363281v3.535156c0 4.183594 3.390625 7.574219 7.574219 7.574219h32.316406c4.183594 0 7.574219-3.390625 7.574219-7.574219v-72.710937c0-4.183594-3.390625-7.574219-7.574219-7.574219h-24.742187v-31.328125c0-4.179687-3.390625-7.570313-7.574219-7.570313s-7.574219 3.390626-7.574219 7.570313v42.4375h-16.160156v-91.394531c0-53.175782-43.261719-96.441406-96.441406-96.441406h-80.789063c-53.175781 0-96.441406 43.265624-96.441406 96.441406v91.394531h-16.15625v-42.4375c0-4.179687-3.390625-7.570313-7.574219-7.570313s-7.574218 3.390626-7.574218 7.570313v31.328125h-24.742188c-4.183594 0-7.574219 3.390625-7.574219 7.574219v72.710937c0 4.183594 3.390625 7.574219 7.574219 7.574219h32.316406c4.183594 0 7.574219-3.390625 7.574219-7.574219v-3.535156h36.363281l-10.460937 63.617188c-1.105469 7.332031-1.667969 14.808593-1.667969 22.222656v12.621094c0 70.996093 57.761719 128.757812 128.757812 128.757812 70.996094 0 128.757813-57.761719 128.757813-128.757812v-12.621094c0-7.414063-.5625-14.890625-1.683594-22.320313zm68.675781-61.601562v57.5625h-17.167968v-57.5625zm-32.3125 46.453124h-38.851562l-5.8125-35.34375h44.664062zm-274.683594-141.886718c0-44.824219 36.46875-81.292969 81.292969-81.292969h80.789063c44.824218 0 81.292968 36.46875 81.292968 81.292969v91.394531h-15.847656l-3.4375-20.921875c-.175781-1.0625-.574218-2.074219-1.171875-2.972656l-20.199219-30.292969c-1.027343-1.542969-2.585937-2.65625-4.382812-3.128906l-40.097656-10.5-9.5625-11.300781c-1.4375-1.699219-3.554688-2.679688-5.78125-2.679688h-42.414063c-2.226562 0-4.34375.980469-5.78125 2.679688l-9.546875 11.285156-41.082031 10.507812c-1.871094.480469-3.488281 1.652344-4.519531 3.285156l-19.1875 30.296876c-.542969.859374-.910156 1.820312-1.074219 2.824218l-3.4375 20.917969h-15.851563zm96.699219 33.363281 7.296875-8.621094h35.386719l7.296875 8.621094 8.898438 97.910156c-10.800782-2.949219-22.164063-4.535156-33.886719-4.535156-11.726563 0-23.089844 1.585937-33.890625 4.535156zm-143.152343 119.632813h-17.167969v-57.5625h17.167969zm15.148437-11.109376v-35.34375h44.664063l-5.8125 35.34375zm65.289063-67.433593 16.753906-26.453125 30.121094-7.707032-8.761719 96.386719c-22.519531 9.433594-41.808594 25.089844-55.710938 44.804688zm87.703124 294.652343c-62.640624 0-113.609374-50.964843-113.609374-113.609374 0-62.644532 50.96875-113.609376 113.609374-113.609376 62.644532 0 113.609376 50.964844 113.609376 113.609376 0 62.644531-50.964844 113.609374-113.609376 113.609374zm49.59375-232.425781-8.757812-96.320312 29.191406 7.644531 17.691406 26.539062 17.585938 106.941407c-13.902344-19.714844-33.191406-35.371094-55.710938-44.804688zm0 0" style="fill: #6c63ff;"/><path d="m221.664062 292.859375c-18.648437 0-36.554687 5.636719-51.785156 16.296875-3.425781 2.398438-4.257812 7.121094-1.859375 10.550781 2.402344 3.425781 7.121094 4.257813 10.550781 1.859375 12.667969-8.871094 27.570313-13.558594 43.097657-13.558594 41.484375 0 75.234375 33.75 75.234375 75.234376 0 41.484374-33.75 75.234374-75.234375 75.234374-41.488281 0-75.238281-33.75-75.238281-75.234374 0-13.085938 3.410156-25.972657 9.859374-37.261719 2.078126-3.632813.8125-8.257813-2.816406-10.332031-3.632812-2.074219-8.257812-.8125-10.335937 2.816406-7.753907 13.574218-11.855469 29.058594-11.855469 44.777344 0 49.835937 40.546875 90.382812 90.382812 90.382812 49.839844 0 90.382813-40.542969 90.382813-90.382812 0-49.835938-40.542969-90.382813-90.382813-90.382813zm0 0" style="fill: #6c63ff;"/><path/><path/><path d="m229.746094 280.238281c0 4.460938-3.617188 8.078125-8.082032 8.078125-4.460937 0-8.078124-3.617187-8.078124-8.078125 0-4.464843 3.617187-8.082031 8.078124-8.082031 4.464844 0 8.082032 3.617188 8.082032 8.082031zm0 0" style="fill: #6c63ff;"/><path d="m332.75 383.242188c0 4.460937-3.617188 8.078124-8.078125 8.078124s-8.078125-3.617187-8.078125-8.078124c0-4.460938 3.617188-8.078126 8.078125-8.078126s8.078125 3.617188 8.078125 8.078126zm0 0" style="fill: #6c63ff;"/><path d="m229.746094 486.25c0 4.460938-3.617188 8.078125-8.082032 8.078125-4.460937 0-8.078124-3.617187-8.078124-8.078125 0-4.464844 3.617187-8.078125 8.078124-8.078125 4.464844 0 8.082032 3.613281 8.082032 8.078125zm0 0" style="fill: #6c63ff;"/><path d="m126.738281 383.242188c0 4.460937-3.617187 8.078124-8.078125 8.078124-4.460937 0-8.078125-3.617187-8.078125-8.078124 0-4.460938 3.617188-8.078126 8.078125-8.078126 4.460938 0 8.078125 3.617188 8.078125 8.078126zm0 0" style="fill: #6c63ff;"/><path d="m61.097656 148.953125c4.183594 0 7.574219-3.390625 7.574219-7.570313v-12.625c0-62.644531 50.964844-113.609374 113.609375-113.609374h78.769531c62.644531 0 113.609375 50.964843 113.609375 113.609374v12.625c0 4.179688 3.390625 7.570313 7.574219 7.570313 4.179687 0 7.570313-3.390625 7.570313-7.570313v-12.625c.003906-70.996093-57.757813-128.757812-128.753907-128.757812h-78.769531c-70.996094 0-128.757812 57.761719-128.757812 128.757812v12.621094c0 4.183594 3.390624 7.574219 7.574218 7.574219zm0 0" style="fill: #6c63ff;"/></svg>