<svg height="504pt" viewBox="-67 0 504 504.11592" width="504pt" xmlns="http://www.w3.org/2000/svg"><path d="m339.269531 227.160156c4.449219.003906 8.71875-1.761718 11.867188-4.902344l10.855469-10.851562c4.722656-4.722656 7.375-11.128906 7.375-17.808594 0-6.679687-2.652344-13.085937-7.375-17.804687l-19.246094-19.257813c-9.847656-9.800781-25.761719-9.800781-35.605469 0l-10.855469 10.855469c-4.753906 4.734375-6.214844 11.851563-3.707031 18.078125l-12.472656 12.421875c-20.972657-14.511719-44.992188-24.023437-70.210938-27.796875v-27.28125h8.390625c9.273438 0 16.789063-7.515625 16.789063-16.785156v-8.394532c-.019531-7.109374-2.3125-14.023437-6.546875-19.734374 21.046875-23.558594 19.699218-59.542969-3.054688-81.460938s-58.765625-21.917969-81.519531 0-24.101563 57.902344-3.054687 81.460938c-4.234376 5.710937-6.53125 12.625-6.546876 19.734374v8.394532c0 9.269531 7.515626 16.785156 16.789063 16.785156h8.390625v27.28125c-25.222656 3.777344-49.242188 13.289062-70.210938 27.804688l-12.472656-12.421876c2.507813-6.222656 1.046875-13.34375-3.710937-18.078124l-10.851563-10.851563c-9.832031-9.832031-25.769531-9.832031-35.605468 0l-19.246094 19.246094c-4.722656 4.71875-7.3750002 11.125-7.3750002 17.804687 0 6.679688 2.6523442 13.085938 7.3750002 17.808594l10.855468 10.859375c4.742188 4.722656 11.835938 6.175781 18.050782 3.703125l12.164062 12.160156c-50.117187 69.574219-39.746094 165.734375 24.050782 223.019532 63.800781 57.289062 160.515624 57.289062 224.316406 0 63.796875-57.285157 74.167968-153.445313 24.050781-223.019532l12.160156-12.160156c1.96875.785156 4.070313 1.1875 6.1875 1.191406zm-20.261719-58.746094c3.277344-3.277343 8.589844-3.277343 11.867188 0l19.246094 19.246094c1.578125 1.574219 2.460937 3.710938 2.460937 5.9375 0 2.226563-.882812 4.363282-2.460937 5.9375l-10.851563 10.855469-31.113281-31.125zm-134.296874-151.503906c16.65625-.015625 31.742187 9.832032 38.433593 25.082032 6.691407 15.253906 3.722657 33.019531-7.570312 45.265624-4.398438-2.085937-9.207031-3.175781-14.074219-3.199218h-33.574219c-4.871093.023437-9.675781 1.113281-14.074219 3.199218-11.292968-12.246093-14.265624-30.011718-7.570312-45.265624 6.691406-15.25 21.777344-25.097657 38.429688-25.082032zm-33.570313 100.722656c0-9.269531 7.515625-16.785156 16.785156-16.785156h33.574219c9.269531 0 16.785156 7.515625 16.785156 16.785156v8.394532h-67.144531zm25.179687 25.179688h16.785157v25.609375c-2.792969-.144531-5.554688-.429687-8.394531-.429687-2.835938 0-5.597657.285156-8.390626.429687zm-115.042968 36.4375.261718.257812-.253906-.25zm-41.964844 8.394531 19.246094-19.25c3.277344-3.273437 8.589844-3.273437 11.867187 0l10.84375 10.863281-15.5625 15.59375-14.316406 14.269532-1.226563 1.226562-10.851562-10.851562c-3.257812-3.273438-3.261719-8.5625-.007812-11.835938zm29.886719 27.429688 16.789062-16.789063 9.9375 9.996094c-6.007812 5.164062-11.648437 10.738281-16.878906 16.6875zm135.511719 271.871093c-83.4375 0-151.082032-67.644531-151.082032-151.082031 0-83.441406 67.644532-151.082031 151.082032-151.082031 83.441406 0 151.082031 67.640625 151.082031 151.082031-.09375 83.398438-67.679688 150.984375-151.082031 151.082031zm108.789062-278.664062 9.964844-9.9375 16.785156 16.789062-9.855469 9.851563c-5.234375-5.957031-10.878906-11.539063-16.894531-16.703125zm0 0" style="fill: #6c63ff;"/><path d="m300.433594 268.058594c-11.644532-19.78125-28.136719-36.273438-47.917969-47.917969-.207031-.203125-.425781-.398437-.65625-.578125-.214844-.085938-.4375-.164062-.664063-.226562-41.15625-23.691407-91.808593-23.691407-132.96875 0-.222656.0625-.445312.140624-.660156.226562-.230468.179688-.449218.375-.65625.578125-19.785156 11.644531-36.273437 28.136719-47.917968 47.917969-.207032.207031-.398438.425781-.578126.65625-.089843.214844-.164062.4375-.226562.664062-23.691406 41.15625-23.691406 91.8125 0 132.96875.0625.222656.136719.445313.226562.664063.246094.386719.527344.75.839844 1.089843 11.625 19.59375 28.019532 35.929688 47.65625 47.480469.207032.207031.425782.402344.65625.578125.292969.152344.597656.277344.914063.378906 41.03125 23.492188 91.433593 23.492188 132.464843 0 .3125-.101562.621094-.226562.914063-.378906.230469-.175781.449219-.371094.65625-.578125 19.636719-11.558593 36.03125-27.894531 47.664063-47.488281.308593-.339844.589843-.703125.839843-1.082031.089844-.21875.164063-.441407.226563-.664063 23.691406-41.15625 23.691406-91.8125 0-132.96875-.066406-.226562-.144532-.449218-.234375-.664062-.179688-.230469-.371094-.449219-.578125-.65625zm-49.875 165.066406-8.214844-14.269531c-1.492188-2.617188-4.269531-4.238281-7.28125-4.242188-3.011719-.007812-5.796875 1.601563-7.296875 4.210938-1.5 2.613281-1.484375 5.828125.039063 8.425781l8.167968 14.144531c-13.414062 6.566407-27.96875 10.488281-42.867187 11.546875v-16.359375c0-4.632812-3.757813-8.390625-8.394531-8.390625-4.632813 0-8.390626 3.757813-8.390626 8.390625v16.359375c-14.894531-1.046875-29.449218-4.953125-42.867187-11.507812l8.167969-14.140625c1.523437-2.597657 1.535156-5.816407.035156-8.425781-1.5-2.613282-4.28125-4.21875-7.296875-4.214844-3.011719.007812-5.789063 1.628906-7.277344 4.246094l-8.214843 14.269531c-12.363282-8.394531-23.023438-19.050781-31.417969-31.410157l14.269531-8.222656c2.617188-1.488281 4.238281-4.265625 4.246094-7.28125.003906-3.011718-1.601563-5.792968-4.214844-7.296875-2.613281-1.5-5.828125-1.484375-8.425781.039063l-14.152344 8.167968c-6.566406-13.429687-10.488281-27.996093-11.539063-42.90625h16.359376c4.632812 0 8.390624-3.761718 8.390624-8.394531 0-4.636719-3.757812-8.394531-8.390624-8.394531h-16.359376c1.046876-14.894531 4.953126-29.449219 11.507813-42.863281l14.152344 8.164062c2.597656 1.523438 5.8125 1.539063 8.421875.039063 2.613281-1.5 4.222656-4.285156 4.214844-7.296875-.007813-3.011719-1.625-5.789063-4.246094-7.277344l-14.269532-8.226563c8.398438-12.359374 19.058594-23.015624 31.417969-31.410156l8.21875 14.269532c1.488281 2.621093 4.265625 4.238281 7.277344 4.246093 3.011719.007813 5.796875-1.601562 7.296875-4.214843 1.5-2.609376 1.484375-5.824219-.039062-8.421876l-8.164063-14.144531c13.421875-6.570312 27.988281-10.492187 42.898437-11.550781v16.359375c0 4.636719 3.757813 8.394531 8.390626 8.394531 4.636718 0 8.394531-3.757812 8.394531-8.394531v-16.359375c14.894531 1.050781 29.449219 4.957031 42.867187 11.507812l-8.167968 14.144532c-1.523438 2.597656-1.539063 5.8125-.039063 8.425781 1.5 2.609375 4.285156 4.21875 7.296875 4.210937 3.011719-.007812 5.789062-1.625 7.28125-4.246093l8.214844-14.265625c12.363281 8.390625 23.019531 19.046875 31.417968 31.40625l-14.269531 8.226562c-2.617187 1.488282-4.238281 4.265625-4.246093 7.277344-.003907 3.011719 1.601562 5.796875 4.214843 7.296875 2.609375 1.5 5.828125 1.484375 8.425781-.035156l14.148438-8.167969c6.570312 13.425781 10.488281 27.996094 11.542969 42.90625h-16.359375c-4.636719 0-8.394532 3.757812-8.394532 8.394531 0 4.632813 3.757813 8.394531 8.394532 8.394531h16.359375c-1.046875 14.894532-4.957031 29.445313-11.507813 42.863282l-14.152344-8.167969c-4.011718-2.277344-9.109374-.894531-11.417968 3.101563-2.304688 3.996093-.953125 9.105468 3.027344 11.4375l14.265624 8.226562c-8.402343 12.359375-19.074218 23.019531-31.449218 31.40625zm0 0" style="fill: #6c63ff;"/><path d="m193.105469 312.226562v-43.511718c0-4.636719-3.757813-8.394532-8.394531-8.394532-4.632813 0-8.390626 3.757813-8.390626 8.394532v43.511718c-10.058593 3.503907-16.796874 12.988282-16.796874 23.636719 0 10.648438 6.738281 20.132813 16.796874 23.636719v9.9375c0 4.632812 3.757813 8.390625 8.390626 8.390625 4.636718 0 8.394531-3.757813 8.394531-8.390625v-9.9375c10.058593-3.503906 16.796875-12.988281 16.796875-23.636719 0-10.648437-6.738282-20.132812-16.796875-23.636719zm-8.394531 32.03125c-4.632813 0-8.390626-3.761718-8.390626-8.394531 0-4.636719 3.757813-8.394531 8.390626-8.394531 4.636718 0 8.394531 3.757812 8.394531 8.394531 0 4.632813-3.757813 8.394531-8.394531 8.394531zm0 0" style="fill: #6c63ff;"/></svg>